<svg width="60" height="60" viewBox="0 0 60 60" fill="none" xmlns="http://www.w3.org/2000/svg">
<rect width="60" height="60" rx="30" fill="#43003E" fill-opacity="0.2"/>
<path d="M29.6138 41.2306C31.034 41.8826 33.7037 41.7738 36.7319 42.2633C39.76 42.7528 41.992 46.4916 42.5964 44.2793C43.4465 41.1677 41.3439 35.3432 39.5175 30.5796C39.4533 30.412 41.3838 30.3122 42.5964 27.9989C43.3144 26.6292 43.2995 23.2027 43.7779 22.0093C45.2654 18.2986 43.5217 19.2225 43.3553 18.8425C43.2527 18.6081 43.9194 15.0568 42.8625 16.7906C42.6396 17.1562 40.616 22.5564 40.1436 23.5613C39.084 25.8152 38.1421 26.0255 38.0784 25.8552C37.639 25.3076 37.3427 24.5429 37.1893 23.5613C36.4595 18.889 33.3641 15 28.6455 15C23.9268 15 20.1016 18.833 20.1016 23.5613C19.8356 24.34 19.7026 25.1046 19.7026 25.8552C19.7026 26.164 17.8947 27.6261 16.9689 28.6301C15.4927 30.231 15.0109 31.9251 15.0001 32.4518C14.994 32.7711 15.2329 35.6912 16.5227 35.0068C16.611 34.96 16.7458 34.6318 16.9297 34.1883C17.1849 33.5723 17.532 32.7015 17.982 32.0843C18.6291 31.1968 19.6014 30.9575 19.7026 30.9592C19.6819 33.8709 19.6819 35.4799 19.7026 35.7863C19.8805 38.4242 20.4493 39.2707 21.8368 41.2306C22.7417 42.5088 24.0769 43.0333 25.4324 42.2633C25.9903 41.9464 27.5813 40.2975 29.6138 41.2306Z" fill="url(#paint0_linear_164_918)"/>
<path d="M32.1768 26.0542C34.0643 26.0542 35.5944 24.5044 35.5944 22.5926C35.5944 20.6809 34.0643 19.1311 32.1768 19.1311C30.2894 19.1311 28.7593 20.6809 28.7593 22.5926C28.7593 24.5044 30.2894 26.0542 32.1768 26.0542Z" fill="white"/>
<path d="M32.1304 25.0162C33.3081 24.6335 33.9951 23.4998 33.665 22.4839C33.335 21.468 32.1127 20.9547 30.9351 21.3373C29.7574 21.72 29.0703 22.8537 29.4004 23.8696C29.7305 24.8855 30.9528 25.3988 32.1304 25.0162Z" fill="#160B0D"/>
<path d="M32.757 23.0913C33.0165 23.0913 33.2269 22.8808 33.2269 22.6212C33.2269 22.3616 33.0165 22.1511 32.757 22.1511C32.4975 22.1511 32.2871 22.3616 32.2871 22.6212C32.2871 22.8808 32.4975 23.0913 32.757 23.0913Z" fill="white"/>
<path d="M23.5191 26.054C24.101 26.054 24.5728 25.6012 24.5728 25.0426C24.5728 24.4841 24.101 24.0312 23.5191 24.0312C22.9371 24.0312 22.4653 24.4841 22.4653 25.0426C22.4653 25.6012 22.9371 26.054 23.5191 26.054Z" fill="white"/>
<path d="M27.3745 34.0624C28.9268 35.9123 31.167 36.5881 32.3781 35.5719C33.5892 34.5556 33.3126 32.2322 31.7604 30.3823C30.2081 28.5324 27.9679 27.8565 26.7568 28.8728C25.5457 29.889 25.8223 32.2125 27.3745 34.0624Z" fill="white"/>
<path d="M23.9607 24.9715C24.0786 24.9715 24.1743 24.8759 24.1743 24.7579C24.1743 24.6399 24.0786 24.5442 23.9607 24.5442C23.8427 24.5442 23.7471 24.6399 23.7471 24.7579C23.7471 24.8759 23.8427 24.9715 23.9607 24.9715Z" fill="black"/>
<defs>
<linearGradient id="paint0_linear_164_918" x1="29.6871" y1="15" x2="29.6871" y2="44.9736" gradientUnits="userSpaceOnUse">
<stop stop-color="#0C0C02"/>
<stop offset="1" stop-color="#43003E"/>
</linearGradient>
</defs>
</svg>
