<svg width="60" height="60" viewBox="0 0 60 60" fill="none" xmlns="http://www.w3.org/2000/svg">
<rect width="60" height="60" rx="30" fill="#FFD66B" fill-opacity="0.2"/>
<path d="M24.3877 28.125C23.8708 28.125 23.4502 28.5456 23.4502 29.0625C23.4502 29.5794 23.8708 30 24.3877 30C24.9046 30 25.3252 29.5794 25.3252 29.0625C25.3252 28.5456 24.9046 28.125 24.3877 28.125Z" fill="black"/>
<path d="M35.6377 28.125C35.1208 28.125 34.7002 28.5456 34.7002 29.0625C34.7002 29.5794 35.1208 30 35.6377 30C36.1546 30 36.5752 29.5794 36.5752 29.0625C36.5752 28.5456 36.1546 28.125 35.6377 28.125Z" fill="black"/>
<path d="M43.3447 32.3438H43.6066C43.7408 32.3438 43.8685 32.2863 43.9574 32.1859C44.0464 32.0855 44.0881 31.9518 44.072 31.8186C44.0588 31.7099 43.729 29.1374 41.8093 25.9723C41.4749 24.4034 40.9268 23.0383 40.1682 21.8885C40.2531 21.862 40.3431 21.8351 40.4368 21.8072C40.9622 21.6508 41.616 21.4561 42.3951 21.038C43.9421 20.2079 44.2942 18.4815 43.9567 17.1389C43.6301 15.8396 42.7461 15 41.7047 15C40.6915 15 39.8688 15.8756 38.9976 16.8025C38.2309 17.6183 37.4395 18.4605 36.5451 18.6873C34.7692 17.7957 32.5726 17.3438 30.0129 17.3438C27.4499 17.3438 25.251 17.7968 23.4739 18.6906C22.5714 18.4714 21.7739 17.6233 21.0014 16.8018C20.1302 15.8752 19.3073 15 18.2941 15C17.2527 15 16.3687 15.8396 16.0421 17.1389C15.7046 18.4816 16.0567 20.2079 17.6037 21.038C18.3828 21.456 19.0365 21.6508 19.5617 21.8072C19.6753 21.8411 19.7807 21.8725 19.8776 21.9032C19.1609 23.0918 18.662 24.456 18.3354 25.8104C18.3052 25.8386 18.278 25.8709 18.2554 25.9078C16.3009 29.1024 15.967 31.7091 15.9537 31.8185C15.9375 31.9517 15.9792 32.0854 16.0682 32.1858C16.1572 32.2862 16.2848 32.3437 16.419 32.3437H16.6809C16.3927 33.161 15.9503 34.5849 15.9503 35.6249C15.9503 35.7756 16.0227 35.9171 16.1449 36.0052C16.2671 36.0933 16.4243 36.1172 16.5673 36.0697L17.0286 35.9159C16.7513 36.7136 16.4191 37.8825 16.4191 38.9062C16.4191 39.0585 16.4934 39.2019 16.6178 39.2897C16.8188 39.4318 16.9958 39.3744 17.2638 39.2875C17.3331 39.2651 17.4172 39.2371 17.5151 39.204C17.3517 39.7588 17.2275 40.432 17.3775 40.9195C17.4152 41.0415 17.5017 41.1436 17.6159 41.2009C17.8058 41.2962 17.8902 41.2739 18.597 41.0307C18.5434 41.5635 18.6172 42.0255 18.8166 42.4054C18.9282 42.6181 19.1826 42.712 19.4057 42.6227L21.2781 41.8738C21.3003 41.9443 21.3236 42.018 21.347 42.0916C21.413 42.2984 21.4676 42.4645 21.5093 42.5852C21.597 42.8391 21.6663 43.0397 21.9191 43.1088C21.9598 43.1199 22.0012 43.1254 22.0424 43.1254C22.1586 43.1254 22.2728 43.0823 22.3604 43.0022C23.2996 42.1435 24.533 41.696 24.5449 41.6917C24.5508 41.6895 24.5565 41.6868 24.5623 41.6845C24.8066 41.8208 25.0664 41.9323 25.3387 42.0152C25.4102 42.8642 25.7914 43.5741 26.454 44.0801C27.2532 44.6904 28.4507 45 30.0129 45C31.5752 45 32.7725 44.6905 33.5717 44.08C34.2343 43.574 34.6155 42.8641 34.687 42.0152C34.9593 41.9323 35.2191 41.8208 35.4634 41.6844C35.4691 41.6867 35.4745 41.6893 35.4804 41.6915C35.4927 41.6959 36.7261 42.1434 37.6654 43.0022C37.753 43.0823 37.8671 43.1253 37.9833 43.1253C38.0246 43.1253 38.0661 43.1198 38.1067 43.1088C38.3594 43.0396 38.4288 42.8391 38.5165 42.5851C38.5581 42.4645 38.6127 42.2984 38.6787 42.0915C38.7022 42.018 38.7255 41.9443 38.7476 41.8738L40.6201 42.6227C40.8432 42.712 41.0975 42.6181 41.2092 42.4054C41.4444 41.9573 41.4721 41.4534 41.4312 41.0345C42.1707 41.2905 42.243 41.2848 42.4101 41.2008C42.5243 41.1434 42.6108 41.0412 42.6484 40.9191C42.7984 40.4317 42.6741 39.7588 42.5107 39.204C42.6086 39.2371 42.6927 39.265 42.762 39.2875C43.03 39.3743 43.2071 39.4317 43.408 39.2897C43.5323 39.2019 43.6066 39.0584 43.6066 38.9062C43.6066 37.8824 43.2745 36.7136 42.9971 35.9159L43.4584 36.0697C43.6013 36.1173 43.7585 36.0933 43.8808 36.0052C44.003 35.9171 44.0754 35.7756 44.0754 35.6249C44.0754 34.585 43.6329 33.161 43.3447 32.3438ZM30.0129 44.0625C28.4487 44.0625 26.6108 43.7218 26.3073 42.1827C26.3703 42.1857 26.4336 42.1875 26.4973 42.1875C27.2908 42.1875 29.0576 42.1052 30.0111 41.4231C30.9145 42.079 32.5483 42.1875 33.5285 42.1875C33.5922 42.1875 33.6555 42.1857 33.7185 42.1827C33.415 43.7218 31.5771 44.0625 30.0129 44.0625ZM29.114 38.4659L28.3114 37.6419C28.0839 37.3787 28.0516 37.2016 28.072 37.1566C28.0926 37.1111 28.2505 37.0171 28.6067 37.0171H31.4192C31.7754 37.0171 31.9332 37.1111 31.9539 37.1566C31.9743 37.2016 31.942 37.3787 31.7145 37.6419L30.9184 38.4592C30.3323 39.0122 29.6572 39.0138 29.114 38.4659ZM42.3486 34.7116C42.1724 34.6528 41.9782 34.7037 41.8533 34.8412C41.7285 34.9787 41.6966 35.1769 41.772 35.3466C41.7797 35.364 42.4401 36.8629 42.6227 38.2519C42.396 38.1741 42.1342 38.0828 41.8881 37.9956C41.7114 37.9331 41.5147 37.9817 41.3875 38.1192C41.2603 38.2567 41.2272 38.4567 41.3033 38.6279C41.4888 39.0455 41.6996 39.6758 41.7625 40.154C41.5195 40.071 41.2253 39.9683 40.9511 39.8708C40.7792 39.8098 40.5876 39.8539 40.4598 39.984C40.3319 40.114 40.2912 40.3063 40.3552 40.4771C40.4207 40.6516 40.5447 41.1299 40.4954 41.5632L38.6245 40.8148C38.5027 40.7661 38.3661 40.7706 38.2478 40.8273C38.1295 40.884 38.0403 40.9876 38.0021 41.1131C37.9251 41.3648 37.8393 41.6394 37.764 41.8739C37.2388 41.4881 36.7083 41.2089 36.33 41.0331C37.0598 40.3106 37.5129 39.3089 37.5129 38.2032C37.5129 38.0691 37.5074 37.9327 37.4973 37.7948C39.2625 36.8484 40.9182 34.9489 41.6719 32.9801C41.7644 32.7384 41.6434 32.4673 41.4017 32.3747C41.16 32.2822 40.8889 32.4031 40.7964 32.6449C40.1713 34.2778 38.8025 35.9089 37.3529 36.7969C37.1456 35.796 36.7714 34.7943 36.44 34.027C35.8196 32.5904 34.9621 31.0646 34.0257 29.7307C33.8769 29.5188 33.5845 29.4677 33.3727 29.6164C33.1608 29.7652 33.1096 30.0575 33.2584 30.2694C34.8559 32.5449 36.5754 35.9982 36.5754 38.2032C36.5754 39.8832 35.2086 41.2501 33.5285 41.2501C32.0816 41.2501 30.9198 40.9986 30.4816 40.6009V39.7535C30.8626 39.6586 31.2349 39.4519 31.5707 39.1325C31.575 39.1284 31.5792 39.1242 31.5834 39.12L32.3952 38.2865C32.4011 38.2805 32.4067 38.2744 32.4122 38.2682C33.0285 37.5639 32.9244 37.0267 32.8076 36.7692C32.6907 36.5116 32.3549 36.0796 31.4192 36.0796H28.6067C27.6709 36.0796 27.3352 36.5116 27.2183 36.7692C27.1015 37.0267 26.9974 37.5639 27.6136 38.2682C27.6192 38.2744 27.6248 38.2806 27.6306 38.2865L28.4453 39.1229C28.7762 39.4567 29.1528 39.669 29.5442 39.7611V40.6005C29.0476 41.0459 27.655 41.25 26.4973 41.25C24.8173 41.25 23.4504 39.8832 23.4504 38.2031C23.4504 36.5967 24.4734 33.5205 26.7586 30.2696C26.9075 30.0578 26.8564 29.7654 26.6447 29.6165C26.433 29.4677 26.1405 29.5186 25.9916 29.7304C25.0561 31.0613 24.2006 32.5837 23.5826 34.0172C23.148 35.0254 22.8409 35.9654 22.6704 36.8003C21.1972 35.913 19.8054 34.2787 19.1706 32.6429C19.0769 32.4015 18.8053 32.2818 18.564 32.3755C18.3227 32.4692 18.2029 32.7407 18.2966 32.9821C19.0608 34.9514 20.7394 36.8511 22.5285 37.7968C22.5184 37.9365 22.5129 38.0723 22.5129 38.2031C22.5129 39.3088 22.9659 40.3106 23.6958 41.0331C23.3175 41.2089 22.787 41.4881 22.2618 41.8738C22.1865 41.6393 22.1006 41.3647 22.0237 41.113C21.9854 40.9876 21.8963 40.884 21.778 40.8273C21.6597 40.7706 21.5231 40.7661 21.4014 40.8148L19.53 41.5634C19.4808 41.1355 19.6017 40.6643 19.6706 40.4771C19.7347 40.3063 19.6938 40.114 19.566 39.9839C19.4382 39.8538 19.2465 39.8096 19.0747 39.8708C18.8007 39.9681 18.5067 40.0708 18.2637 40.1538C18.3269 39.6761 18.5374 39.0457 18.7226 38.6278C18.7986 38.4567 18.7655 38.2566 18.6383 38.1191C18.5112 37.9816 18.3143 37.933 18.1377 37.9956C17.8918 38.0827 17.63 38.1741 17.4033 38.2518C17.5862 36.8647 18.2462 35.3638 18.2539 35.3466C18.3293 35.1769 18.2974 34.9786 18.1725 34.8411C18.0477 34.7036 17.8533 34.6528 17.6773 34.7115L16.9458 34.9554C17.1438 33.6619 17.7836 32.0698 17.7913 32.0509C17.8498 31.9064 17.8326 31.7422 17.7455 31.613C17.6583 31.4838 17.5127 31.4062 17.3568 31.4062H16.981C17.1029 30.8425 17.3633 29.8634 17.8815 28.6604C17.8436 29.1309 17.8255 29.5809 17.8255 30C17.8255 30.2589 18.0354 30.4688 18.2942 30.4688C18.5531 30.4688 18.763 30.2589 18.763 30C18.763 27.0599 19.6266 23.8991 20.9631 21.9476C21.0371 21.8396 21.0625 21.7056 21.0333 21.5779C21.004 21.4502 20.9226 21.3407 20.809 21.2757C20.5341 21.1186 20.2076 21.0214 19.8296 20.9088C19.3451 20.7645 18.7421 20.5848 18.0472 20.2119C17.253 19.7858 16.6063 18.741 16.9515 17.3674C17.1303 16.6557 17.6149 15.9375 18.2941 15.9375C18.902 15.9375 19.59 16.6692 20.3184 17.4439C20.9233 18.0872 21.5838 18.7896 22.3536 19.2328C21.9247 19.3678 21.5488 19.3764 21.2433 19.2529C21.0032 19.1559 20.73 19.2718 20.633 19.5118C20.5359 19.7518 20.6518 20.0251 20.8918 20.1221C21.1617 20.2311 21.4392 20.2772 21.7156 20.2772C22.4679 20.2772 23.2119 19.9358 23.7694 19.5929C25.435 18.7226 27.5354 18.2812 30.0129 18.2812C32.4931 18.2812 34.5956 18.7235 36.2621 19.5958C36.308 19.6198 36.3574 19.6359 36.4079 19.6437C36.955 19.9687 37.6628 20.2772 38.378 20.2772C38.6544 20.2772 38.932 20.2311 39.2018 20.1221C39.4418 20.0251 39.5577 19.7518 39.4607 19.5118C39.3636 19.2718 39.0905 19.1559 38.8503 19.2529C38.5305 19.3822 38.1343 19.3678 37.6802 19.2141C38.4353 18.7696 39.0852 18.0782 39.6807 17.4445C40.4091 16.6695 41.097 15.9375 41.7047 15.9375C42.384 15.9375 42.8686 16.6557 43.0475 17.3674C43.3928 18.741 42.746 19.7858 41.9519 20.2119C41.2569 20.5849 40.6539 20.7644 40.1693 20.9087C39.8019 21.0182 39.4846 21.1126 39.215 21.2616C39.0959 21.3273 39.0113 21.4415 38.9831 21.5745C38.9548 21.7075 38.9857 21.8463 39.0678 21.9547C40.5244 23.88 41.263 26.5869 41.263 29.9999C41.263 30.2588 41.4729 30.4687 41.7317 30.4687C41.9906 30.4687 42.2005 30.2588 42.2005 29.9999C42.2005 29.5586 42.1883 29.1284 42.1645 28.7087C42.6674 29.8877 42.923 30.8492 43.0442 31.4062H42.6693C42.5134 31.4062 42.3678 31.4837 42.2807 31.613C42.1935 31.7422 42.1764 31.9063 42.2348 32.0508C42.2425 32.0697 42.8823 33.6619 43.0803 34.9553L42.3486 34.7116Z" fill="black"/>
<path d="M24.8569 21.1129C24.923 21.1129 24.9901 21.0988 25.054 21.0691C26.3029 20.489 28.1103 20.1562 30.0128 20.1562C31.9154 20.1562 33.7228 20.489 34.9716 21.0691C35.2065 21.1782 35.4851 21.0763 35.5942 20.8415C35.7032 20.6067 35.6013 20.328 35.3666 20.2189C33.9984 19.5833 32.047 19.2188 30.0128 19.2188C27.9786 19.2188 26.0273 19.5833 24.6591 20.2189C24.4243 20.328 24.3224 20.6067 24.4314 20.8414C24.5109 21.0124 24.6801 21.1129 24.8569 21.1129Z" fill="black"/>
<path d="M34.9136 22.1016C33.6602 21.4611 31.874 21.0938 30.0128 21.0938C28.1517 21.0938 26.3654 21.4611 25.112 22.1016C24.8814 22.2194 24.7901 22.5018 24.9079 22.7323C24.9908 22.8946 25.1552 22.9879 25.3256 22.9879C25.3974 22.9879 25.4703 22.9713 25.5386 22.9364C26.6643 22.3612 28.2951 22.0312 30.0128 22.0312C31.7305 22.0312 33.3613 22.3612 34.487 22.9364C34.7175 23.0542 34.9999 22.9628 35.1177 22.7323C35.2355 22.5018 35.1441 22.2194 34.9136 22.1016Z" fill="black"/>
<path d="M34.463 23.9863C33.324 23.3396 31.702 22.9688 30.0128 22.9688C28.3236 22.9688 26.7016 23.3396 25.5626 23.9863C25.3375 24.1142 25.2586 24.4003 25.3864 24.6254C25.5142 24.8505 25.8003 24.9294 26.0255 24.8016C27.0277 24.2326 28.481 23.9063 30.0128 23.9063C31.5446 23.9063 32.9979 24.2326 34.0001 24.8016C34.0732 24.8431 34.1527 24.8628 34.2311 24.8628C34.3943 24.8628 34.5528 24.7774 34.6392 24.6254C34.7669 24.4003 34.6881 24.1142 34.463 23.9863Z" fill="black"/>
<path d="M20.6377 29.5454C20.6456 29.2866 20.4422 29.0705 20.1834 29.0627C19.9251 29.0555 19.7086 29.2583 19.7007 29.517C19.6381 31.5837 20.1868 32.6692 20.7061 33.5245C20.7942 33.6697 20.9488 33.75 21.1072 33.75C21.19 33.75 21.274 33.728 21.35 33.6819C21.5713 33.5475 21.6417 33.2592 21.5074 33.0379C21.0373 32.2636 20.5829 31.3562 20.6377 29.5454Z" fill="black"/>
<path d="M39.8379 29.0627C39.5791 29.0705 39.3757 29.2866 39.3836 29.5454C39.4384 31.3561 38.984 32.2636 38.5139 33.0379C38.3796 33.2592 38.4501 33.5475 38.6714 33.6819C38.7474 33.728 38.8313 33.75 38.9142 33.75C39.0726 33.75 39.2271 33.6697 39.3153 33.5245C39.8346 32.6693 40.3833 31.5838 40.3207 29.517C40.3128 29.2582 40.0963 29.0553 39.8379 29.0627Z" fill="black"/>
<path d="M22.5643 25.9135C22.0595 25.1876 21.2966 24.0908 21.5231 23.6528C21.642 23.4229 21.552 23.1401 21.3221 23.0211C21.0921 22.9022 20.8093 22.9922 20.6904 23.2221C20.2042 24.162 21.0491 25.3768 21.7946 26.4487C22.0759 26.8532 22.5009 27.4643 22.513 27.6574C22.5136 27.9157 22.7233 28.1249 22.9817 28.1249C23.2406 28.1249 23.4505 27.915 23.4505 27.6561C23.4505 27.1878 23.0594 26.6255 22.5643 25.9135Z" fill="black"/>
<path d="M39.2455 23.2221C39.1265 22.9922 38.8438 22.9021 38.6138 23.0212C38.3839 23.14 38.2939 23.4229 38.4127 23.6529C38.6393 24.0907 37.8764 25.1877 37.3716 25.9135C36.8765 26.6255 36.4854 27.1879 36.4854 27.6563C36.4854 27.9151 36.6952 28.126 36.9541 28.126C37.213 28.126 37.4229 27.9169 37.4229 27.6581C37.4341 27.4657 37.8597 26.8537 38.1413 26.4488C38.8867 25.3769 39.7316 24.162 39.2455 23.2221Z" fill="black"/>
</svg>
