<svg width="122" height="118" viewBox="0 0 122 118" fill="none" xmlns="http://www.w3.org/2000/svg">
<g filter="url(#filter0_d_508_1820)">
<path d="M3.47813 51.88V62.44C3.63813 69.16 8.43813 74.92 14.5181 76.68C17.2381 77.64 19.7981 79.08 21.8781 81.16L34.9981 94.44C37.0781 96.52 38.8381 98.92 39.6381 101.8C41.2381 107.24 45.8781 111.56 51.6381 112.52C52.9181 112.84 54.3581 113 55.6381 113H103.158C111.638 113 118.518 106.12 118.518 97.64C118.518 89.32 111.638 82.44 103.158 82.44H57.2381C56.4381 82.28 55.7981 82.28 54.9981 82.28L54.5181 82.12C43.9581 81.16 35.3181 72.2 34.0381 61.8V52.04C35.3181 41.48 43.7981 32.84 54.3581 31.56H102.998C111.478 31.56 118.358 24.68 118.358 16.36C118.358 7.88 111.478 0.999992 102.998 0.999992H54.1981C47.1581 0.999992 41.3981 5.8 39.4781 12.04C38.6781 14.92 37.0781 17.32 34.9981 19.4L21.7181 32.68C19.7981 34.76 17.2381 36.36 14.5181 37.16C8.11813 39.08 3.47813 44.84 3.47813 51.88Z" fill="black"/>
</g>
<defs>
<filter id="filter0_d_508_1820" x="0.478027" y="0" width="121.04" height="118" filterUnits="userSpaceOnUse" color-interpolation-filters="sRGB">
<feFlood flood-opacity="0" result="BackgroundImageFix"/>
<feColorMatrix in="SourceAlpha" type="matrix" values="0 0 0 0 0 0 0 0 0 0 0 0 0 0 0 0 0 0 127 0" result="hardAlpha"/>
<feOffset dy="2"/>
<feGaussianBlur stdDeviation="1.5"/>
<feComposite in2="hardAlpha" operator="out"/>
<feColorMatrix type="matrix" values="0 0 0 0 0 0 0 0 0 0 0 0 0 0 0 0 0 0 0.25 0"/>
<feBlend mode="normal" in2="BackgroundImageFix" result="effect1_dropShadow_508_1820"/>
<feBlend mode="normal" in="SourceGraphic" in2="effect1_dropShadow_508_1820" result="shape"/>
</filter>
</defs>
</svg>
