<svg width="140" height="140" viewBox="0 0 140 140" fill="none" xmlns="http://www.w3.org/2000/svg">
<rect width="140" height="140" rx="70" fill="#FFD66B"/>
<path d="M56.9043 65.625C55.6982 65.625 54.7168 66.6064 54.7168 67.8125C54.7168 69.0186 55.6982 70 56.9043 70C58.1104 70 59.0918 69.0186 59.0918 67.8125C59.0918 66.6064 58.1104 65.625 56.9043 65.625Z" fill="black"/>
<path d="M83.1543 65.625C81.9482 65.625 80.9668 66.6064 80.9668 67.8125C80.9668 69.0186 81.9482 70 83.1543 70C84.3604 70 85.3418 69.0186 85.3418 67.8125C85.3418 66.6064 84.3604 65.625 83.1543 65.625Z" fill="black"/>
<path d="M101.137 75.4688H101.748C102.061 75.4688 102.359 75.3346 102.567 75.1004C102.774 74.8661 102.872 74.5542 102.834 74.2433C102.803 73.9899 102.034 67.9874 97.5544 60.6021C96.7742 56.9412 95.4953 53.756 93.7252 51.0731C93.9233 51.0113 94.1332 50.9487 94.3519 50.8836C95.5778 50.5185 97.1033 50.0642 98.9212 49.0887C102.531 47.1518 103.352 43.1236 102.565 39.9908C101.803 36.959 99.7403 35 97.3104 35C94.9463 35 93.0265 37.043 90.9937 39.2059C89.2049 41.1094 87.3582 43.0745 85.2712 43.6037C81.1274 41.5233 76.0021 40.4688 70.0294 40.4688C64.0491 40.4688 58.9184 41.5259 54.7719 43.6115C52.6658 43.0999 50.8051 41.121 49.0026 39.2041C46.9697 37.0422 45.0497 35 42.6857 35C40.2556 35 38.1931 36.959 37.431 39.9908C36.6435 43.1237 37.4649 47.1518 41.0747 49.0887C42.8925 50.0641 44.4179 50.5185 45.6434 50.8836C45.9084 50.9625 46.1543 51.0357 46.3803 51.1075C44.7081 53.8809 43.544 57.0641 42.7819 60.2242C42.7115 60.29 42.6481 60.3654 42.5953 60.4516C38.0349 67.9056 37.2556 73.9879 37.2246 74.2432C37.187 74.554 37.2842 74.866 37.4917 75.1003C37.6994 75.3345 37.9973 75.4686 38.3104 75.4686H38.9215C38.249 77.3756 37.2166 80.6981 37.2166 83.1249C37.2166 83.4764 37.3856 83.8065 37.6708 84.0122C37.956 84.2177 38.3228 84.2736 38.6563 84.1626L39.7328 83.8037C39.0857 85.6651 38.3107 88.3925 38.3107 90.7812C38.3107 91.1364 38.484 91.4711 38.7741 91.6761C39.2432 92.0076 39.6562 91.8735 40.2815 91.6709C40.4432 91.6185 40.6394 91.5533 40.868 91.4761C40.4865 92.7706 40.1968 94.3413 40.5468 95.4788C40.6347 95.7636 40.8365 96.0017 41.103 96.1354C41.5461 96.3577 41.7431 96.3058 43.3924 95.7383C43.2674 96.9816 43.4394 98.0595 43.9048 98.946C44.1652 99.4422 44.7587 99.6613 45.2793 99.453L49.6483 97.7055C49.7 97.87 49.7544 98.042 49.8091 98.2137C49.9631 98.6963 50.0905 99.0839 50.1877 99.3654C50.3924 99.9579 50.554 100.426 51.1439 100.587C51.2388 100.613 51.3354 100.626 51.4317 100.626C51.7027 100.626 51.9691 100.525 52.1735 100.339C54.3651 98.3348 57.2429 97.2906 57.2707 97.2806C57.2846 97.2755 57.2977 97.2692 57.3114 97.2638C57.8814 97.5818 58.4876 97.842 59.1229 98.0355C59.2899 100.016 60.1794 101.673 61.7252 102.854C63.5902 104.278 66.3842 105 70.0294 105C73.6747 105 76.4686 104.278 78.3334 102.853C79.8793 101.673 80.7688 100.016 80.9357 98.0354C81.5711 97.842 82.1773 97.5818 82.7473 97.2636C82.7605 97.269 82.7732 97.2751 82.7869 97.2802C82.8158 97.2904 85.6935 98.3347 87.8853 100.339C88.0897 100.525 88.356 100.626 88.627 100.626C88.7234 100.626 88.8203 100.613 88.9151 100.587C89.5047 100.426 89.6665 99.9578 89.8711 99.3653C89.9683 99.0838 90.0958 98.6962 90.2497 98.2136C90.3044 98.042 90.3588 97.87 90.4105 97.7055L94.7795 99.453C95.3001 99.6614 95.8934 99.4422 96.154 98.946C96.703 97.9005 96.7675 96.7247 96.6722 95.7471C98.3977 96.3445 98.5663 96.3312 98.9564 96.1352C99.2228 96.0013 99.4246 95.7629 99.5123 95.4778C99.8623 94.3407 99.5723 92.7705 99.191 91.4759C99.4194 91.5532 99.6156 91.6184 99.7774 91.6707C100.403 91.8734 100.816 92.0073 101.285 91.6759C101.575 91.471 101.748 91.1363 101.748 90.7811C101.748 88.3924 100.973 85.665 100.326 83.8037L101.402 84.1626C101.736 84.2737 102.103 84.2178 102.388 84.0122C102.673 83.8065 102.842 83.4764 102.842 83.1249C102.842 80.6982 101.81 77.3757 101.137 75.4688ZM70.0294 102.812C66.3796 102.812 62.0912 102.017 61.383 98.4263C61.53 98.4333 61.6777 98.4375 61.8263 98.4375C63.6779 98.4375 67.8003 98.2455 70.0253 96.6539C72.1331 98.1844 75.9454 98.4375 78.2325 98.4375C78.3811 98.4375 78.5288 98.4333 78.6758 98.4263C77.9676 102.017 73.6792 102.812 70.0294 102.812ZM67.932 89.7537L66.0592 87.831C65.5284 87.217 65.453 86.8037 65.5007 86.6987C65.5489 86.5926 65.9172 86.3733 66.7483 86.3733H73.3108C74.1419 86.3733 74.5102 86.5926 74.5583 86.6987C74.6061 86.8037 74.5307 87.217 73.9999 87.831L72.1424 89.7381C70.7747 91.0286 69.1995 91.0323 67.932 89.7537ZM98.8128 80.9937C98.4017 80.8566 97.9485 80.9752 97.6571 81.2961C97.3658 81.617 97.2914 82.0795 97.4674 82.4754C97.4854 82.5161 99.0262 86.0133 99.4524 89.2544C98.9233 89.0729 98.3124 88.8598 97.7382 88.6565C97.326 88.5105 96.8669 88.624 96.5702 88.9447C96.2734 89.2656 96.1961 89.7323 96.3736 90.1317C96.8066 91.1061 97.2985 92.5769 97.4452 93.6927C96.8782 93.4989 96.1918 93.2593 95.5519 93.0319C95.1508 92.8895 94.7039 92.9924 94.4055 93.2959C94.1072 93.5993 94.0121 94.0481 94.1615 94.4467C94.3142 94.8537 94.6036 95.9697 94.4885 96.9808L90.1231 95.2346C89.839 95.121 89.5203 95.1315 89.2441 95.2637C88.9681 95.3959 88.7601 95.6378 88.6709 95.9305C88.4914 96.5178 88.2911 97.1585 88.1154 97.7058C86.89 96.8055 85.652 96.154 84.7693 95.744C86.4723 94.058 87.5294 91.7208 87.5294 89.1408C87.5294 88.8279 87.5167 88.5097 87.493 88.1878C91.6118 85.9796 95.4752 81.5474 97.2337 76.9537C97.4497 76.3895 97.1674 75.7571 96.6033 75.5411C96.0393 75.3251 95.4069 75.6072 95.1909 76.1715C93.7323 79.9816 90.5386 83.7875 87.1562 85.8595C86.6725 83.5239 85.7992 81.1867 85.0261 79.3964C83.5784 76.0442 81.5776 72.484 79.3926 69.3716C79.0455 68.8773 78.3632 68.7579 77.869 69.1049C77.3746 69.452 77.2551 70.1341 77.6023 70.6286C81.3299 75.9381 85.3419 83.9959 85.3419 89.1408C85.3419 93.0609 82.1527 96.2501 78.2325 96.2501C74.8565 96.2501 72.1455 95.6633 71.1232 94.7354V92.7582C72.0121 92.5367 72.8807 92.0545 73.6642 91.3093C73.6743 91.2997 73.6842 91.2898 73.6939 91.28L75.5883 89.3352C75.6019 89.3212 75.615 89.3069 75.6279 89.2924C77.0658 87.649 76.823 86.3956 76.5503 85.7948C76.2776 85.1938 75.4942 84.1858 73.3108 84.1858H66.7483C64.5649 84.1858 63.7815 85.1938 63.5087 85.7947C63.2361 86.3956 62.9933 87.649 64.4312 89.2924C64.444 89.307 64.4572 89.3214 64.4708 89.3352L66.3718 91.2867C67.1438 92.0656 68.0225 92.5611 68.9358 92.7758V94.7345C67.7771 95.7737 64.5276 96.25 61.8264 96.25C57.9063 96.25 54.717 93.0608 54.717 89.1406C54.717 85.3922 57.1039 78.2145 62.436 70.629C62.7834 70.1349 62.6644 69.4527 62.1703 69.1052C61.6763 68.7579 60.9939 68.8767 60.6464 69.371C58.4635 72.4762 56.4673 76.0286 55.0253 79.3736C54.0114 81.7258 53.2949 83.9192 52.8969 85.8674C49.4595 83.797 46.2119 79.9836 44.7307 76.1667C44.5122 75.6036 43.8784 75.3242 43.3154 75.5429C42.7522 75.7615 42.4728 76.395 42.6914 76.9583C44.4745 81.5533 48.3913 85.986 52.5659 88.1925C52.5423 88.5186 52.5294 88.8353 52.5294 89.1406C52.5294 91.7206 53.5865 94.058 55.2896 95.7439C54.407 96.154 53.169 96.8055 51.9436 97.7056C51.7679 97.1584 51.5675 96.5177 51.3881 95.9304C51.2987 95.6376 51.0907 95.3959 50.8147 95.2637C50.5386 95.1314 50.2198 95.121 49.9359 95.2346L45.5693 96.9812C45.4545 95.9828 45.7365 94.8834 45.8975 94.4465C46.0469 94.0481 45.9516 93.5993 45.6534 93.2958C45.3551 92.9923 44.9079 92.8892 44.507 93.0318C43.8676 93.259 43.1815 93.4985 42.6147 93.6921C42.7621 92.5775 43.2532 91.1066 43.6853 90.1316C43.8628 89.7322 43.7856 89.2654 43.4887 88.9446C43.1921 88.6237 42.7327 88.5104 42.3208 88.6564C41.7468 88.8597 41.1359 89.0728 40.607 89.2541C41.0338 86.0177 42.5738 82.5156 42.5917 82.4753C42.7677 82.0794 42.6933 81.6167 42.402 81.296C42.1106 80.9751 41.6571 80.8566 41.2463 80.9936L39.5395 81.5626C40.0016 78.5445 41.4944 74.8295 41.5123 74.7854C41.6488 74.4483 41.6087 74.0652 41.4054 73.7637C41.2021 73.4621 40.8622 73.2812 40.4986 73.2812H39.6217C39.9062 71.9659 40.5136 69.6813 41.7227 66.8743C41.6344 67.972 41.5922 69.0222 41.5922 70C41.5922 70.604 42.0819 71.0938 42.6859 71.0938C43.29 71.0938 43.7797 70.604 43.7797 70C43.7797 63.1397 45.7948 55.7646 48.9133 51.2112C49.086 50.959 49.1452 50.6464 49.077 50.3485C49.0088 50.0505 48.8189 49.795 48.5536 49.6434C47.9121 49.2767 47.1503 49.0499 46.2684 48.7871C45.1378 48.4504 43.7309 48.0312 42.1094 47.1611C40.2564 46.1669 38.7473 43.7289 39.5529 40.524C39.97 38.8633 41.1007 37.1875 42.6857 37.1875C44.104 37.1875 45.7093 38.8948 47.409 40.7025C48.8204 42.2036 50.3615 43.8423 52.1577 44.8766C51.1569 45.1916 50.28 45.2117 49.567 44.9235C49.0067 44.6972 48.3695 44.9676 48.1429 45.5276C47.9165 46.0876 48.1869 46.7251 48.7469 46.9515C49.3765 47.206 50.024 47.3136 50.6691 47.3136C52.4245 47.3136 54.1605 46.5168 55.4612 45.7168C59.3477 43.6862 64.2487 42.6562 70.0294 42.6562C75.8166 42.6562 80.7225 43.6882 84.6109 45.7235C84.7181 45.7796 84.8332 45.8171 84.9512 45.8352C86.2277 46.5936 87.8791 47.3136 89.5481 47.3136C90.193 47.3136 90.8407 47.206 91.4702 46.9515C92.0302 46.7251 92.3006 46.0876 92.0742 45.5276C91.8478 44.9675 91.2104 44.6972 90.6501 44.9235C89.9039 45.2252 88.9793 45.1916 87.9197 44.8328C89.6818 43.7957 91.1983 42.1825 92.5877 40.7039C94.2871 38.8955 95.8924 37.1875 97.3104 37.1875C98.8954 37.1875 100.026 38.8633 100.444 40.524C101.249 43.7289 99.74 46.1669 97.8871 47.1611C96.2655 48.0313 94.8583 48.4503 93.7278 48.787C92.8705 49.0424 92.13 49.2628 91.5009 49.6103C91.2231 49.7637 91.0257 50.0302 90.9598 50.3405C90.8939 50.6509 90.966 50.9746 91.1575 51.2276C94.5563 55.72 96.2797 62.036 96.2797 69.9999C96.2797 70.6039 96.7694 71.0936 97.3734 71.0936C97.9775 71.0936 98.4672 70.6039 98.4672 69.9999C98.4672 68.9701 98.4386 67.9662 98.3831 66.987C99.5567 69.738 100.153 71.9815 100.436 73.2811H99.5611C99.1974 73.2811 98.8575 73.462 98.6542 73.7636C98.4509 74.0652 98.4109 74.4481 98.5473 74.7853C98.5651 74.8293 100.058 78.5444 100.52 81.5624L98.8128 80.9937Z" fill="black"/>
<path d="M57.9991 49.2633C58.1533 49.2633 58.31 49.2305 58.4591 49.1612C61.3731 47.8077 65.5904 47.0312 70.0296 47.0312C74.469 47.0312 78.6863 47.8077 81.6 49.1613C82.1481 49.4158 82.7983 49.1781 83.0528 48.6302C83.3072 48.0822 83.0695 47.432 82.5216 47.1774C79.3294 45.6944 74.7761 44.8438 70.0296 44.8438C65.2832 44.8438 60.73 45.6944 57.5375 47.1774C56.9897 47.432 56.7519 48.0823 57.0063 48.63C57.1917 49.0288 57.5866 49.2633 57.9991 49.2633Z" fill="black"/>
<path d="M81.4647 51.5703C78.5401 50.0758 74.3723 49.2188 70.0295 49.2188C65.6869 49.2188 61.5189 50.076 58.5944 51.5703C58.0564 51.8453 57.8432 52.5041 58.118 53.0421C58.3115 53.4207 58.6951 53.6383 59.0929 53.6383C59.2603 53.6383 59.4304 53.5996 59.5897 53.5183C62.2163 52.1761 66.0215 51.4062 70.0295 51.4062C74.0376 51.4062 77.8427 52.1761 80.4694 53.5183C81.0072 53.7931 81.6662 53.5799 81.941 53.0421C82.2158 52.5041 82.0027 51.8453 81.4647 51.5703Z" fill="black"/>
<path d="M80.4133 55.9681C77.7556 54.4592 73.9709 53.5938 70.0295 53.5938C66.088 53.5938 62.3034 54.4592 59.6457 55.9681C59.1204 56.2665 58.9364 56.9341 59.2346 57.4593C59.5329 57.9846 60.2005 58.1686 60.7258 57.8704C63.0642 56.5428 66.4552 55.7812 70.0295 55.7812C73.6037 55.7812 76.9947 56.5428 79.3332 57.8704C79.5038 57.9672 79.6892 58.0132 79.8723 58.0132C80.253 58.0132 80.623 57.814 80.8244 57.4593C81.1226 56.9341 80.9385 56.2665 80.4133 55.9681Z" fill="black"/>
<path d="M48.1539 68.9393C48.1722 68.3356 47.6977 67.8314 47.0938 67.813C46.4911 67.7964 45.9858 68.2694 45.9675 68.8732C45.8213 73.6955 47.1017 76.2284 48.3133 78.2239C48.5191 78.5628 48.8797 78.7501 49.2493 78.7501C49.4426 78.7501 49.6385 78.6989 49.8159 78.5911C50.3323 78.2776 50.4966 77.605 50.1832 77.0886C49.0862 75.2819 48.0259 73.1645 48.1539 68.9393Z" fill="black"/>
<path d="M92.9543 67.813C92.3505 67.8314 91.8759 68.3356 91.8942 68.9393C92.0222 73.1644 90.9619 75.2818 89.865 77.0886C89.5515 77.605 89.716 78.2776 90.2324 78.5911C90.4097 78.6989 90.6055 78.7501 90.799 78.7501C91.1685 78.7501 91.5292 78.5628 91.7349 78.2239C92.9466 76.2284 94.2269 73.6955 94.0808 68.8732C94.0625 68.2693 93.5571 67.7957 92.9543 67.813Z" fill="black"/>
<path d="M52.6486 60.4648C51.4708 58.7711 49.6907 56.2118 50.2193 55.1899C50.4968 54.6535 50.2868 53.9935 49.7502 53.716C49.2137 53.4384 48.5538 53.6484 48.2762 54.1849C47.1419 56.378 49.1134 59.2126 50.8527 61.7136C51.5091 62.6575 52.5008 64.0835 52.529 64.5338C52.5305 65.1366 53.0197 65.6247 53.6228 65.6247C54.2268 65.6247 54.7165 65.135 54.7165 64.531C54.7165 63.4382 53.8039 62.1261 52.6486 60.4648Z" fill="black"/>
<path d="M91.5721 54.1851C91.2946 53.6486 90.6348 53.4384 90.0982 53.7161C89.5617 53.9935 89.3517 54.6535 89.6291 55.1901C90.1576 56.2118 88.3775 58.7713 87.1997 60.465C86.0444 62.1262 85.1318 63.4384 85.1318 64.5314C85.1318 65.1354 85.6216 65.6273 86.2256 65.6273C86.8296 65.6273 87.3193 65.1396 87.3193 64.5356C87.3456 64.0866 88.3386 62.6587 88.9957 61.714C90.735 59.2127 92.7065 56.378 91.5721 54.1851Z" fill="black"/>
</svg>
