<svg width="552" height="501" viewBox="0 0 552 501" fill="none" xmlns="http://www.w3.org/2000/svg">
<g filter="url(#filter0_d_707_593)">
<ellipse cx="270" cy="232.5" rx="191" ry="190.5" fill="url(#paint0_linear_707_593)" fill-opacity="0.5" shape-rendering="crispEdges"/>
</g>
<circle cx="416" cy="124" r="122.5" stroke="#F6F88A"/>
<path d="M157.5 204.5C157.5 247.575 122.357 282.5 79 282.5C35.6426 282.5 0.5 247.575 0.5 204.5C0.5 161.425 35.6426 126.5 79 126.5C122.357 126.5 157.5 161.425 157.5 204.5Z" stroke="#F6F88A"/>
<path d="M331.5 193C331.5 249.059 286.278 294.5 230.5 294.5C174.722 294.5 129.5 249.059 129.5 193C129.5 136.941 174.722 91.5 230.5 91.5C286.278 91.5 331.5 136.941 331.5 193Z" stroke="#F6F88A"/>
<circle cx="357.5" cy="288.5" r="72" stroke="#F6F88A"/>
<circle cx="479.5" cy="339.5" r="72" stroke="#F6F88A"/>
<path d="M457.5 336.096H454.056V335.2H461.98V336.096H458.536V345H457.5V336.096ZM465.591 337.58C466.552 337.58 467.29 337.823 467.803 338.308C468.316 338.784 468.573 339.493 468.573 340.436V345H467.621V343.852C467.397 344.235 467.066 344.533 466.627 344.748C466.198 344.963 465.684 345.07 465.087 345.07C464.266 345.07 463.612 344.874 463.127 344.482C462.642 344.09 462.399 343.572 462.399 342.928C462.399 342.303 462.623 341.799 463.071 341.416C463.528 341.033 464.252 340.842 465.241 340.842H467.579V340.394C467.579 339.759 467.402 339.279 467.047 338.952C466.692 338.616 466.174 338.448 465.493 338.448C465.026 338.448 464.578 338.527 464.149 338.686C463.72 338.835 463.351 339.045 463.043 339.316L462.595 338.574C462.968 338.257 463.416 338.014 463.939 337.846C464.462 337.669 465.012 337.58 465.591 337.58ZM465.241 344.286C465.801 344.286 466.282 344.16 466.683 343.908C467.084 343.647 467.383 343.273 467.579 342.788V341.584H465.269C464.009 341.584 463.379 342.023 463.379 342.9C463.379 343.329 463.542 343.67 463.869 343.922C464.196 344.165 464.653 344.286 465.241 344.286ZM471.273 334.612H472.267V345H471.273V334.612ZM481.444 341.626H475.284C475.34 342.391 475.634 343.012 476.166 343.488C476.698 343.955 477.37 344.188 478.182 344.188C478.64 344.188 479.06 344.109 479.442 343.95C479.825 343.782 480.156 343.539 480.436 343.222L480.996 343.866C480.67 344.258 480.259 344.557 479.764 344.762C479.279 344.967 478.742 345.07 478.154 345.07C477.398 345.07 476.726 344.911 476.138 344.594C475.56 344.267 475.107 343.819 474.78 343.25C474.454 342.681 474.29 342.037 474.29 341.318C474.29 340.599 474.444 339.955 474.752 339.386C475.07 338.817 475.499 338.373 476.04 338.056C476.591 337.739 477.207 337.58 477.888 337.58C478.57 337.58 479.181 337.739 479.722 338.056C480.264 338.373 480.688 338.817 480.996 339.386C481.304 339.946 481.458 340.59 481.458 341.318L481.444 341.626ZM477.888 338.434C477.179 338.434 476.582 338.663 476.096 339.12C475.62 339.568 475.35 340.156 475.284 340.884H480.506C480.441 340.156 480.166 339.568 479.68 339.12C479.204 338.663 478.607 338.434 477.888 338.434ZM487.234 337.58C488.158 337.58 488.89 337.851 489.432 338.392C489.982 338.924 490.258 339.703 490.258 340.73V345H489.264V340.828C489.264 340.063 489.072 339.479 488.69 339.078C488.307 338.677 487.761 338.476 487.052 338.476C486.258 338.476 485.628 338.714 485.162 339.19C484.704 339.657 484.476 340.305 484.476 341.136V345H483.482V337.636H484.434V338.994C484.704 338.546 485.078 338.201 485.554 337.958C486.039 337.706 486.599 337.58 487.234 337.58ZM496.834 344.552C496.648 344.72 496.414 344.851 496.134 344.944C495.864 345.028 495.579 345.07 495.28 345.07C494.59 345.07 494.058 344.883 493.684 344.51C493.311 344.137 493.124 343.609 493.124 342.928V338.476H491.808V337.636H493.124V336.026H494.118V337.636H496.358V338.476H494.118V342.872C494.118 343.311 494.226 343.647 494.44 343.88C494.664 344.104 494.982 344.216 495.392 344.216C495.598 344.216 495.794 344.183 495.98 344.118C496.176 344.053 496.344 343.959 496.484 343.838L496.834 344.552Z" fill="black"/>
<path d="M435.384 97.084C434.656 97.084 433.956 96.9673 433.284 96.734C432.621 96.5007 432.108 96.1927 431.744 95.81L432.15 95.012C432.505 95.3667 432.976 95.656 433.564 95.88C434.152 96.0947 434.759 96.202 435.384 96.202C436.261 96.202 436.919 96.0433 437.358 95.726C437.797 95.3993 438.016 94.9793 438.016 94.466C438.016 94.074 437.895 93.7613 437.652 93.528C437.419 93.2947 437.129 93.1173 436.784 92.996C436.439 92.8653 435.958 92.7253 435.342 92.576C434.605 92.3893 434.017 92.212 433.578 92.044C433.139 91.8667 432.761 91.6007 432.444 91.246C432.136 90.8913 431.982 90.4107 431.982 89.804C431.982 89.3093 432.113 88.8613 432.374 88.46C432.635 88.0493 433.037 87.7227 433.578 87.48C434.119 87.2373 434.791 87.116 435.594 87.116C436.154 87.116 436.7 87.1953 437.232 87.354C437.773 87.5033 438.24 87.7133 438.632 87.984L438.282 88.81C437.871 88.5393 437.433 88.3387 436.966 88.208C436.499 88.068 436.042 87.998 435.594 87.998C434.735 87.998 434.087 88.166 433.648 88.502C433.219 88.8287 433.004 89.2533 433.004 89.776C433.004 90.168 433.121 90.4853 433.354 90.728C433.597 90.9613 433.895 91.1433 434.25 91.274C434.614 91.3953 435.099 91.5307 435.706 91.68C436.425 91.8573 437.003 92.0347 437.442 92.212C437.89 92.38 438.268 92.6413 438.576 92.996C438.884 93.3413 439.038 93.8127 439.038 94.41C439.038 94.9047 438.903 95.3573 438.632 95.768C438.371 96.1693 437.965 96.4913 437.414 96.734C436.863 96.9673 436.187 97.084 435.384 97.084ZM444.963 96.552C444.777 96.72 444.543 96.8507 444.263 96.944C443.993 97.028 443.708 97.07 443.409 97.07C442.719 97.07 442.187 96.8833 441.813 96.51C441.44 96.1367 441.253 95.6093 441.253 94.928V90.476H439.937V89.636H441.253V88.026H442.247V89.636H444.487V90.476H442.247V94.872C442.247 95.3107 442.355 95.6467 442.569 95.88C442.793 96.104 443.111 96.216 443.521 96.216C443.727 96.216 443.923 96.1833 444.109 96.118C444.305 96.0527 444.473 95.9593 444.613 95.838L444.963 96.552ZM449.349 89.58C450.31 89.58 451.047 89.8227 451.561 90.308C452.074 90.784 452.331 91.4933 452.331 92.436V97H451.379V95.852C451.155 96.2347 450.823 96.5333 450.385 96.748C449.955 96.9627 449.442 97.07 448.845 97.07C448.023 97.07 447.37 96.874 446.885 96.482C446.399 96.09 446.157 95.572 446.157 94.928C446.157 94.3027 446.381 93.7987 446.829 93.416C447.286 93.0333 448.009 92.842 448.999 92.842H451.337V92.394C451.337 91.7593 451.159 91.2787 450.805 90.952C450.45 90.616 449.932 90.448 449.251 90.448C448.784 90.448 448.336 90.5273 447.907 90.686C447.477 90.8353 447.109 91.0453 446.801 91.316L446.353 90.574C446.726 90.2567 447.174 90.014 447.697 89.846C448.219 89.6687 448.77 89.58 449.349 89.58ZM448.999 96.286C449.559 96.286 450.039 96.16 450.441 95.908C450.842 95.6467 451.141 95.2733 451.337 94.788V93.584H449.027C447.767 93.584 447.137 94.0227 447.137 94.9C447.137 95.3293 447.3 95.67 447.627 95.922C447.953 96.1647 448.411 96.286 448.999 96.286ZM455.983 91.078C456.216 90.5833 456.561 90.21 457.019 89.958C457.485 89.706 458.059 89.58 458.741 89.58V90.546L458.503 90.532C457.728 90.532 457.121 90.77 456.683 91.246C456.244 91.722 456.025 92.3893 456.025 93.248V97H455.031V89.636H455.983V91.078ZM464.733 96.552C464.546 96.72 464.313 96.8507 464.033 96.944C463.762 97.028 463.477 97.07 463.179 97.07C462.488 97.07 461.956 96.8833 461.583 96.51C461.209 96.1367 461.023 95.6093 461.023 94.928V90.476H459.707V89.636H461.023V88.026H462.017V89.636H464.257V90.476H462.017V94.872C462.017 95.3107 462.124 95.6467 462.339 95.88C462.563 96.104 462.88 96.216 463.291 96.216C463.496 96.216 463.692 96.1833 463.879 96.118C464.075 96.0527 464.243 95.9593 464.383 95.838L464.733 96.552ZM473.178 89.636V97H472.226V95.656C471.965 96.104 471.606 96.454 471.148 96.706C470.691 96.9487 470.168 97.07 469.58 97.07C468.619 97.07 467.858 96.804 467.298 96.272C466.748 95.7307 466.472 94.942 466.472 93.906V89.636H467.466V93.808C467.466 94.5827 467.658 95.1707 468.04 95.572C468.423 95.9733 468.969 96.174 469.678 96.174C470.453 96.174 471.064 95.9407 471.512 95.474C471.96 94.998 472.184 94.34 472.184 93.5V89.636H473.178ZM479.756 89.58C480.447 89.58 481.072 89.7387 481.632 90.056C482.192 90.364 482.631 90.8027 482.948 91.372C483.266 91.9413 483.424 92.59 483.424 93.318C483.424 94.0553 483.266 94.7087 482.948 95.278C482.631 95.8473 482.192 96.2907 481.632 96.608C481.082 96.916 480.456 97.07 479.756 97.07C479.159 97.07 478.618 96.9487 478.132 96.706C477.656 96.454 477.264 96.09 476.956 95.614V99.716H475.962V89.636H476.914V91.092C477.213 90.6067 477.605 90.2333 478.09 89.972C478.585 89.7107 479.14 89.58 479.756 89.58ZM479.686 96.188C480.2 96.188 480.666 96.0713 481.086 95.838C481.506 95.5953 481.833 95.2547 482.066 94.816C482.309 94.3773 482.43 93.878 482.43 93.318C482.43 92.758 482.309 92.2633 482.066 91.834C481.833 91.3953 481.506 91.0547 481.086 90.812C480.666 90.5693 480.2 90.448 479.686 90.448C479.164 90.448 478.692 90.5693 478.272 90.812C477.862 91.0547 477.535 91.3953 477.292 91.834C477.059 92.2633 476.942 92.758 476.942 93.318C476.942 93.878 477.059 94.3773 477.292 94.816C477.535 95.2547 477.862 95.5953 478.272 95.838C478.692 96.0713 479.164 96.188 479.686 96.188ZM487.424 97.07C486.827 97.07 486.253 96.986 485.702 96.818C485.161 96.6407 484.736 96.4213 484.428 96.16L484.876 95.376C485.184 95.6187 485.572 95.8193 486.038 95.978C486.505 96.1273 486.99 96.202 487.494 96.202C488.166 96.202 488.661 96.0993 488.978 95.894C489.305 95.6793 489.468 95.3807 489.468 94.998C489.468 94.7273 489.38 94.5173 489.202 94.368C489.025 94.2093 488.801 94.0927 488.53 94.018C488.26 93.934 487.9 93.8547 487.452 93.78C486.855 93.668 486.374 93.556 486.01 93.444C485.646 93.3227 485.334 93.122 485.072 92.842C484.82 92.562 484.694 92.1747 484.694 91.68C484.694 91.064 484.951 90.56 485.464 90.168C485.978 89.776 486.692 89.58 487.606 89.58C488.082 89.58 488.558 89.6453 489.034 89.776C489.51 89.8973 489.902 90.0607 490.21 90.266L489.776 91.064C489.17 90.644 488.446 90.434 487.606 90.434C486.972 90.434 486.491 90.546 486.164 90.77C485.847 90.994 485.688 91.288 485.688 91.652C485.688 91.932 485.777 92.156 485.954 92.324C486.141 92.492 486.37 92.618 486.64 92.702C486.911 92.7767 487.284 92.856 487.76 92.94C488.348 93.052 488.82 93.164 489.174 93.276C489.529 93.388 489.832 93.5793 490.084 93.85C490.336 94.1207 490.462 94.494 490.462 94.97C490.462 95.614 490.192 96.1273 489.65 96.51C489.118 96.8833 488.376 97.07 487.424 97.07Z" fill="black"/>
<path d="M198.814 188.2H199.85V198H198.814V188.2ZM206.58 190.58C207.504 190.58 208.237 190.851 208.778 191.392C209.329 191.924 209.604 192.703 209.604 193.73V198H208.61V193.828C208.61 193.063 208.419 192.479 208.036 192.078C207.654 191.677 207.108 191.476 206.398 191.476C205.605 191.476 204.975 191.714 204.508 192.19C204.051 192.657 203.822 193.305 203.822 194.136V198H202.828V190.636H203.78V191.994C204.051 191.546 204.424 191.201 204.9 190.958C205.386 190.706 205.946 190.58 206.58 190.58ZM215.382 198.07C214.654 198.07 214.001 197.911 213.422 197.594C212.853 197.277 212.405 196.833 212.078 196.264C211.752 195.685 211.588 195.037 211.588 194.318C211.588 193.599 211.752 192.955 212.078 192.386C212.405 191.817 212.853 191.373 213.422 191.056C214.001 190.739 214.654 190.58 215.382 190.58C216.017 190.58 216.582 190.706 217.076 190.958C217.58 191.201 217.977 191.56 218.266 192.036L217.524 192.54C217.282 192.176 216.974 191.905 216.6 191.728C216.227 191.541 215.821 191.448 215.382 191.448C214.85 191.448 214.37 191.569 213.94 191.812C213.52 192.045 213.189 192.381 212.946 192.82C212.713 193.259 212.596 193.758 212.596 194.318C212.596 194.887 212.713 195.391 212.946 195.83C213.189 196.259 213.52 196.595 213.94 196.838C214.37 197.071 214.85 197.188 215.382 197.188C215.821 197.188 216.227 197.099 216.6 196.922C216.974 196.745 217.282 196.474 217.524 196.11L218.266 196.614C217.977 197.09 217.58 197.454 217.076 197.706C216.572 197.949 216.008 198.07 215.382 198.07ZM226.855 190.636V198H225.903V196.656C225.642 197.104 225.282 197.454 224.825 197.706C224.368 197.949 223.845 198.07 223.257 198.07C222.296 198.07 221.535 197.804 220.975 197.272C220.424 196.731 220.149 195.942 220.149 194.906V190.636H221.143V194.808C221.143 195.583 221.334 196.171 221.717 196.572C222.1 196.973 222.646 197.174 223.355 197.174C224.13 197.174 224.741 196.941 225.189 196.474C225.637 195.998 225.861 195.34 225.861 194.5V190.636H226.855ZM233.433 190.58C234.124 190.58 234.749 190.739 235.309 191.056C235.869 191.364 236.308 191.803 236.625 192.372C236.942 192.941 237.101 193.59 237.101 194.318C237.101 195.046 236.942 195.695 236.625 196.264C236.308 196.833 235.869 197.277 235.309 197.594C234.749 197.911 234.124 198.07 233.433 198.07C232.817 198.07 232.262 197.939 231.767 197.678C231.282 197.417 230.89 197.039 230.591 196.544V198H229.639V187.612H230.633V192.036C230.941 191.56 231.333 191.201 231.809 190.958C232.294 190.706 232.836 190.58 233.433 190.58ZM233.363 197.188C233.876 197.188 234.343 197.071 234.763 196.838C235.183 196.595 235.51 196.255 235.743 195.816C235.986 195.377 236.107 194.878 236.107 194.318C236.107 193.758 235.986 193.259 235.743 192.82C235.51 192.381 235.183 192.045 234.763 191.812C234.343 191.569 233.876 191.448 233.363 191.448C232.84 191.448 232.369 191.569 231.949 191.812C231.538 192.045 231.212 192.381 230.969 192.82C230.736 193.259 230.619 193.758 230.619 194.318C230.619 194.878 230.736 195.377 230.969 195.816C231.212 196.255 231.538 196.595 231.949 196.838C232.369 197.071 232.84 197.188 233.363 197.188ZM241.662 190.58C242.624 190.58 243.361 190.823 243.874 191.308C244.388 191.784 244.644 192.493 244.644 193.436V198H243.692V196.852C243.468 197.235 243.137 197.533 242.698 197.748C242.269 197.963 241.756 198.07 241.158 198.07C240.337 198.07 239.684 197.874 239.198 197.482C238.713 197.09 238.47 196.572 238.47 195.928C238.47 195.303 238.694 194.799 239.142 194.416C239.6 194.033 240.323 193.842 241.312 193.842H243.65V193.394C243.65 192.759 243.473 192.279 243.118 191.952C242.764 191.616 242.246 191.448 241.564 191.448C241.098 191.448 240.65 191.527 240.22 191.686C239.791 191.835 239.422 192.045 239.114 192.316L238.666 191.574C239.04 191.257 239.488 191.014 240.01 190.846C240.533 190.669 241.084 190.58 241.662 190.58ZM241.312 197.286C241.872 197.286 242.353 197.16 242.754 196.908C243.156 196.647 243.454 196.273 243.65 195.788V194.584H241.34C240.08 194.584 239.45 195.023 239.45 195.9C239.45 196.329 239.614 196.67 239.94 196.922C240.267 197.165 240.724 197.286 241.312 197.286ZM251.222 197.552C251.035 197.72 250.802 197.851 250.522 197.944C250.251 198.028 249.967 198.07 249.668 198.07C248.977 198.07 248.445 197.883 248.072 197.51C247.699 197.137 247.512 196.609 247.512 195.928V191.476H246.196V190.636H247.512V189.026H248.506V190.636H250.746V191.476H248.506V195.872C248.506 196.311 248.613 196.647 248.828 196.88C249.052 197.104 249.369 197.216 249.78 197.216C249.985 197.216 250.181 197.183 250.368 197.118C250.564 197.053 250.732 196.959 250.872 196.838L251.222 197.552ZM255.782 198.07C255.072 198.07 254.433 197.911 253.864 197.594C253.294 197.267 252.846 196.819 252.52 196.25C252.193 195.681 252.03 195.037 252.03 194.318C252.03 193.599 252.193 192.955 252.52 192.386C252.846 191.817 253.294 191.373 253.864 191.056C254.433 190.739 255.072 190.58 255.782 190.58C256.491 190.58 257.13 190.739 257.7 191.056C258.269 191.373 258.712 191.817 259.03 192.386C259.356 192.955 259.52 193.599 259.52 194.318C259.52 195.037 259.356 195.681 259.03 196.25C258.712 196.819 258.269 197.267 257.7 197.594C257.13 197.911 256.491 198.07 255.782 198.07ZM255.782 197.188C256.304 197.188 256.771 197.071 257.182 196.838C257.602 196.595 257.928 196.255 258.162 195.816C258.395 195.377 258.512 194.878 258.512 194.318C258.512 193.758 258.395 193.259 258.162 192.82C257.928 192.381 257.602 192.045 257.182 191.812C256.771 191.569 256.304 191.448 255.782 191.448C255.259 191.448 254.788 191.569 254.368 191.812C253.957 192.045 253.63 192.381 253.388 192.82C253.154 193.259 253.038 193.758 253.038 194.318C253.038 194.878 253.154 195.377 253.388 195.816C253.63 196.255 253.957 196.595 254.368 196.838C254.788 197.071 255.259 197.188 255.782 197.188ZM262.501 192.078C262.734 191.583 263.08 191.21 263.537 190.958C264.004 190.706 264.578 190.58 265.259 190.58V191.546L265.021 191.532C264.246 191.532 263.64 191.77 263.201 192.246C262.762 192.722 262.543 193.389 262.543 194.248V198H261.549V190.636H262.501V192.078Z" fill="black"/>
<path d="M221.335 340.084C220.607 340.084 219.907 339.967 219.235 339.734C218.572 339.501 218.059 339.193 217.695 338.81L218.101 338.012C218.456 338.367 218.927 338.656 219.515 338.88C220.103 339.095 220.71 339.202 221.335 339.202C222.212 339.202 222.87 339.043 223.309 338.726C223.748 338.399 223.967 337.979 223.967 337.466C223.967 337.074 223.846 336.761 223.603 336.528C223.37 336.295 223.08 336.117 222.735 335.996C222.39 335.865 221.909 335.725 221.293 335.576C220.556 335.389 219.968 335.212 219.529 335.044C219.09 334.867 218.712 334.601 218.395 334.246C218.087 333.891 217.933 333.411 217.933 332.804C217.933 332.309 218.064 331.861 218.325 331.46C218.586 331.049 218.988 330.723 219.529 330.48C220.07 330.237 220.742 330.116 221.545 330.116C222.105 330.116 222.651 330.195 223.183 330.354C223.724 330.503 224.191 330.713 224.583 330.984L224.233 331.81C223.822 331.539 223.384 331.339 222.917 331.208C222.45 331.068 221.993 330.998 221.545 330.998C220.686 330.998 220.038 331.166 219.599 331.502C219.17 331.829 218.955 332.253 218.955 332.776C218.955 333.168 219.072 333.485 219.305 333.728C219.548 333.961 219.846 334.143 220.201 334.274C220.565 334.395 221.05 334.531 221.657 334.68C222.376 334.857 222.954 335.035 223.393 335.212C223.841 335.38 224.219 335.641 224.527 335.996C224.835 336.341 224.989 336.813 224.989 337.41C224.989 337.905 224.854 338.357 224.583 338.768C224.322 339.169 223.916 339.491 223.365 339.734C222.814 339.967 222.138 340.084 221.335 340.084ZM233.672 332.636V340H232.72V338.656C232.459 339.104 232.1 339.454 231.642 339.706C231.185 339.949 230.662 340.07 230.074 340.07C229.113 340.07 228.352 339.804 227.792 339.272C227.242 338.731 226.966 337.942 226.966 336.906V332.636H227.96V336.808C227.96 337.583 228.152 338.171 228.534 338.572C228.917 338.973 229.463 339.174 230.172 339.174C230.947 339.174 231.558 338.941 232.006 338.474C232.454 337.998 232.678 337.34 232.678 336.5V332.636H233.672ZM240.25 332.58C240.941 332.58 241.566 332.739 242.126 333.056C242.686 333.364 243.125 333.803 243.442 334.372C243.76 334.941 243.918 335.59 243.918 336.318C243.918 337.046 243.76 337.695 243.442 338.264C243.125 338.833 242.686 339.277 242.126 339.594C241.566 339.911 240.941 340.07 240.25 340.07C239.634 340.07 239.079 339.939 238.584 339.678C238.099 339.417 237.707 339.039 237.408 338.544V340H236.456V329.612H237.45V334.036C237.758 333.56 238.15 333.201 238.626 332.958C239.112 332.706 239.653 332.58 240.25 332.58ZM240.18 339.188C240.694 339.188 241.16 339.071 241.58 338.838C242 338.595 242.327 338.255 242.56 337.816C242.803 337.377 242.924 336.878 242.924 336.318C242.924 335.758 242.803 335.259 242.56 334.82C242.327 334.381 242 334.045 241.58 333.812C241.16 333.569 240.694 333.448 240.18 333.448C239.658 333.448 239.186 333.569 238.766 333.812C238.356 334.045 238.029 334.381 237.786 334.82C237.553 335.259 237.436 335.758 237.436 336.318C237.436 336.878 237.553 337.377 237.786 337.816C238.029 338.255 238.356 338.595 238.766 338.838C239.186 339.071 239.658 339.188 240.18 339.188ZM245.535 335.772H249.203V336.64H245.535V335.772ZM251.637 330.2H255.627C256.663 330.2 257.578 330.41 258.371 330.83C259.164 331.241 259.78 331.819 260.219 332.566C260.658 333.303 260.877 334.148 260.877 335.1C260.877 336.052 260.658 336.901 260.219 337.648C259.78 338.385 259.164 338.964 258.371 339.384C257.578 339.795 256.663 340 255.627 340H251.637V330.2ZM255.571 339.104C256.43 339.104 257.181 338.936 257.825 338.6C258.469 338.255 258.968 337.783 259.323 337.186C259.678 336.579 259.855 335.884 259.855 335.1C259.855 334.316 259.678 333.625 259.323 333.028C258.968 332.421 258.469 331.95 257.825 331.614C257.181 331.269 256.43 331.096 255.571 331.096H252.673V339.104H255.571ZM269.213 337.382H263.753L262.577 340H261.499L265.979 330.2H267.001L271.481 340H270.389L269.213 337.382ZM268.835 336.542L266.483 331.278L264.131 336.542H268.835ZM277.249 340.084C276.278 340.084 275.396 339.869 274.603 339.44C273.819 339.001 273.203 338.404 272.755 337.648C272.316 336.892 272.097 336.043 272.097 335.1C272.097 334.157 272.316 333.308 272.755 332.552C273.203 331.796 273.819 331.203 274.603 330.774C275.396 330.335 276.278 330.116 277.249 330.116C278.22 330.116 279.092 330.331 279.867 330.76C280.651 331.189 281.267 331.787 281.715 332.552C282.163 333.308 282.387 334.157 282.387 335.1C282.387 336.043 282.163 336.897 281.715 337.662C281.267 338.418 280.651 339.011 279.867 339.44C279.092 339.869 278.22 340.084 277.249 340.084ZM277.249 339.16C278.024 339.16 278.724 338.987 279.349 338.642C279.974 338.287 280.464 337.802 280.819 337.186C281.174 336.561 281.351 335.865 281.351 335.1C281.351 334.335 281.174 333.644 280.819 333.028C280.464 332.403 279.974 331.917 279.349 331.572C278.724 331.217 278.024 331.04 277.249 331.04C276.474 331.04 275.77 331.217 275.135 331.572C274.51 331.917 274.015 332.403 273.651 333.028C273.296 333.644 273.119 334.335 273.119 335.1C273.119 335.865 273.296 336.561 273.651 337.186C274.015 337.802 274.51 338.287 275.135 338.642C275.77 338.987 276.474 339.16 277.249 339.16ZM286.473 340.07C285.876 340.07 285.302 339.986 284.751 339.818C284.21 339.641 283.785 339.421 283.477 339.16L283.925 338.376C284.233 338.619 284.621 338.819 285.087 338.978C285.554 339.127 286.039 339.202 286.543 339.202C287.215 339.202 287.71 339.099 288.027 338.894C288.354 338.679 288.517 338.381 288.517 337.998C288.517 337.727 288.429 337.517 288.251 337.368C288.074 337.209 287.85 337.093 287.579 337.018C287.309 336.934 286.949 336.855 286.501 336.78C285.904 336.668 285.423 336.556 285.059 336.444C284.695 336.323 284.383 336.122 284.121 335.842C283.869 335.562 283.743 335.175 283.743 334.68C283.743 334.064 284 333.56 284.513 333.168C285.027 332.776 285.741 332.58 286.655 332.58C287.131 332.58 287.607 332.645 288.083 332.776C288.559 332.897 288.951 333.061 289.259 333.266L288.825 334.064C288.219 333.644 287.495 333.434 286.655 333.434C286.021 333.434 285.54 333.546 285.213 333.77C284.896 333.994 284.737 334.288 284.737 334.652C284.737 334.932 284.826 335.156 285.003 335.324C285.19 335.492 285.419 335.618 285.689 335.702C285.96 335.777 286.333 335.856 286.809 335.94C287.397 336.052 287.869 336.164 288.223 336.276C288.578 336.388 288.881 336.579 289.133 336.85C289.385 337.121 289.511 337.494 289.511 337.97C289.511 338.614 289.241 339.127 288.699 339.51C288.167 339.883 287.425 340.07 286.473 340.07Z" fill="black"/>
<path d="M181.573 37.084C180.845 37.084 180.145 36.9673 179.473 36.734C178.811 36.5007 178.297 36.1927 177.933 35.81L178.339 35.012C178.694 35.3667 179.165 35.656 179.753 35.88C180.341 36.0947 180.948 36.202 181.573 36.202C182.451 36.202 183.109 36.0433 183.547 35.726C183.986 35.3993 184.205 34.9793 184.205 34.466C184.205 34.074 184.084 33.7613 183.841 33.528C183.608 33.2947 183.319 33.1173 182.973 32.996C182.628 32.8653 182.147 32.7253 181.531 32.576C180.794 32.3893 180.206 32.212 179.767 32.044C179.329 31.8667 178.951 31.6007 178.633 31.246C178.325 30.8913 178.171 30.4107 178.171 29.804C178.171 29.3093 178.302 28.8613 178.563 28.46C178.825 28.0493 179.226 27.7227 179.767 27.48C180.309 27.2373 180.981 27.116 181.783 27.116C182.343 27.116 182.889 27.1953 183.421 27.354C183.963 27.5033 184.429 27.7133 184.821 27.984L184.471 28.81C184.061 28.5393 183.622 28.3387 183.155 28.208C182.689 28.068 182.231 27.998 181.783 27.998C180.925 27.998 180.276 28.166 179.837 28.502C179.408 28.8287 179.193 29.2533 179.193 29.776C179.193 30.168 179.31 30.4853 179.543 30.728C179.786 30.9613 180.085 31.1433 180.439 31.274C180.803 31.3953 181.289 31.5307 181.895 31.68C182.614 31.8573 183.193 32.0347 183.631 32.212C184.079 32.38 184.457 32.6413 184.765 32.996C185.073 33.3413 185.227 33.8127 185.227 34.41C185.227 34.9047 185.092 35.3573 184.821 35.768C184.56 36.1693 184.154 36.4913 183.603 36.734C183.053 36.9673 182.376 37.084 181.573 37.084ZM193.687 33.626H187.527C187.583 34.3913 187.877 35.012 188.409 35.488C188.941 35.9547 189.613 36.188 190.425 36.188C190.882 36.188 191.302 36.1087 191.685 35.95C192.067 35.782 192.399 35.5393 192.679 35.222L193.239 35.866C192.912 36.258 192.501 36.5567 192.007 36.762C191.521 36.9673 190.985 37.07 190.397 37.07C189.641 37.07 188.969 36.9113 188.381 36.594C187.802 36.2673 187.349 35.8193 187.023 35.25C186.696 34.6807 186.533 34.0367 186.533 33.318C186.533 32.5993 186.687 31.9553 186.995 31.386C187.312 30.8167 187.741 30.3733 188.283 30.056C188.833 29.7387 189.449 29.58 190.131 29.58C190.812 29.58 191.423 29.7387 191.965 30.056C192.506 30.3733 192.931 30.8167 193.239 31.386C193.547 31.946 193.701 32.59 193.701 33.318L193.687 33.626ZM190.131 30.434C189.421 30.434 188.824 30.6627 188.339 31.12C187.863 31.568 187.592 32.156 187.527 32.884H192.749C192.683 32.156 192.408 31.568 191.923 31.12C191.447 30.6627 190.849 30.434 190.131 30.434ZM196.676 31.078C196.909 30.5833 197.255 30.21 197.712 29.958C198.179 29.706 198.753 29.58 199.434 29.58V30.546L199.196 30.532C198.421 30.532 197.815 30.77 197.376 31.246C196.937 31.722 196.718 32.3893 196.718 33.248V37H195.724V29.636H196.676V31.078ZM207.736 29.636L204.46 37H203.438L200.176 29.636H201.212L203.97 35.908L206.756 29.636H207.736ZM209.136 29.636H210.13V37H209.136V29.636ZM209.64 28.026C209.435 28.026 209.262 27.956 209.122 27.816C208.982 27.676 208.912 27.508 208.912 27.312C208.912 27.1253 208.982 26.962 209.122 26.822C209.262 26.682 209.435 26.612 209.64 26.612C209.845 26.612 210.018 26.682 210.158 26.822C210.298 26.9527 210.368 27.1113 210.368 27.298C210.368 27.5033 210.298 27.676 210.158 27.816C210.018 27.956 209.845 28.026 209.64 28.026ZM215.948 37.07C215.22 37.07 214.566 36.9113 213.988 36.594C213.418 36.2767 212.97 35.8333 212.644 35.264C212.317 34.6853 212.154 34.0367 212.154 33.318C212.154 32.5993 212.317 31.9553 212.644 31.386C212.97 30.8167 213.418 30.3733 213.988 30.056C214.566 29.7387 215.22 29.58 215.948 29.58C216.582 29.58 217.147 29.706 217.642 29.958C218.146 30.2007 218.542 30.56 218.832 31.036L218.09 31.54C217.847 31.176 217.539 30.9053 217.166 30.728C216.792 30.5413 216.386 30.448 215.948 30.448C215.416 30.448 214.935 30.5693 214.506 30.812C214.086 31.0453 213.754 31.3813 213.512 31.82C213.278 32.2587 213.162 32.758 213.162 33.318C213.162 33.8873 213.278 34.3913 213.512 34.83C213.754 35.2593 214.086 35.5953 214.506 35.838C214.935 36.0713 215.416 36.188 215.948 36.188C216.386 36.188 216.792 36.0993 217.166 35.922C217.539 35.7447 217.847 35.474 218.09 35.11L218.832 35.614C218.542 36.09 218.146 36.454 217.642 36.706C217.138 36.9487 216.573 37.07 215.948 37.07ZM227.073 33.626H220.913C220.969 34.3913 221.263 35.012 221.795 35.488C222.327 35.9547 222.999 36.188 223.811 36.188C224.269 36.188 224.689 36.1087 225.071 35.95C225.454 35.782 225.785 35.5393 226.065 35.222L226.625 35.866C226.299 36.258 225.888 36.5567 225.393 36.762C224.908 36.9673 224.371 37.07 223.783 37.07C223.027 37.07 222.355 36.9113 221.767 36.594C221.189 36.2673 220.736 35.8193 220.409 35.25C220.083 34.6807 219.919 34.0367 219.919 33.318C219.919 32.5993 220.073 31.9553 220.381 31.386C220.699 30.8167 221.128 30.3733 221.669 30.056C222.22 29.7387 222.836 29.58 223.517 29.58C224.199 29.58 224.81 29.7387 225.351 30.056C225.893 30.3733 226.317 30.8167 226.625 31.386C226.933 31.946 227.087 32.59 227.087 33.318L227.073 33.626ZM223.517 30.434C222.808 30.434 222.211 30.6627 221.725 31.12C221.249 31.568 220.979 32.156 220.913 32.884H226.135C226.07 32.156 225.795 31.568 225.309 31.12C224.833 30.6627 224.236 30.434 223.517 30.434Z" fill="black"/>
<path d="M319.117 300.084C318.146 300.084 317.269 299.869 316.485 299.44C315.71 299.011 315.099 298.418 314.651 297.662C314.212 296.897 313.993 296.043 313.993 295.1C313.993 294.157 314.212 293.308 314.651 292.552C315.099 291.787 315.715 291.189 316.499 290.76C317.283 290.331 318.16 290.116 319.131 290.116C319.859 290.116 320.531 290.237 321.147 290.48C321.763 290.723 322.285 291.077 322.715 291.544L322.057 292.202C321.291 291.427 320.325 291.04 319.159 291.04C318.384 291.04 317.679 291.217 317.045 291.572C316.41 291.927 315.911 292.412 315.547 293.028C315.192 293.644 315.015 294.335 315.015 295.1C315.015 295.865 315.192 296.556 315.547 297.172C315.911 297.788 316.41 298.273 317.045 298.628C317.679 298.983 318.384 299.16 319.159 299.16C320.335 299.16 321.301 298.768 322.057 297.984L322.715 298.642C322.285 299.109 321.758 299.468 321.133 299.72C320.517 299.963 319.845 300.084 319.117 300.084ZM327.395 300.07C326.686 300.07 326.046 299.911 325.477 299.594C324.908 299.267 324.46 298.819 324.133 298.25C323.806 297.681 323.643 297.037 323.643 296.318C323.643 295.599 323.806 294.955 324.133 294.386C324.46 293.817 324.908 293.373 325.477 293.056C326.046 292.739 326.686 292.58 327.395 292.58C328.104 292.58 328.744 292.739 329.313 293.056C329.882 293.373 330.326 293.817 330.643 294.386C330.97 294.955 331.133 295.599 331.133 296.318C331.133 297.037 330.97 297.681 330.643 298.25C330.326 298.819 329.882 299.267 329.313 299.594C328.744 299.911 328.104 300.07 327.395 300.07ZM327.395 299.188C327.918 299.188 328.384 299.071 328.795 298.838C329.215 298.595 329.542 298.255 329.775 297.816C330.008 297.377 330.125 296.878 330.125 296.318C330.125 295.758 330.008 295.259 329.775 294.82C329.542 294.381 329.215 294.045 328.795 293.812C328.384 293.569 327.918 293.448 327.395 293.448C326.872 293.448 326.401 293.569 325.981 293.812C325.57 294.045 325.244 294.381 325.001 294.82C324.768 295.259 324.651 295.758 324.651 296.318C324.651 296.878 324.768 297.377 325.001 297.816C325.244 298.255 325.57 298.595 325.981 298.838C326.401 299.071 326.872 299.188 327.395 299.188ZM336.914 292.58C337.838 292.58 338.571 292.851 339.112 293.392C339.663 293.924 339.938 294.703 339.938 295.73V300H338.944V295.828C338.944 295.063 338.753 294.479 338.37 294.078C337.988 293.677 337.442 293.476 336.732 293.476C335.939 293.476 335.309 293.714 334.842 294.19C334.385 294.657 334.156 295.305 334.156 296.136V300H333.162V292.636H334.114V293.994C334.385 293.546 334.758 293.201 335.234 292.958C335.72 292.706 336.28 292.58 336.914 292.58ZM346.515 299.552C346.328 299.72 346.095 299.851 345.815 299.944C345.544 300.028 345.26 300.07 344.961 300.07C344.27 300.07 343.738 299.883 343.365 299.51C342.992 299.137 342.805 298.609 342.805 297.928V293.476H341.489V292.636H342.805V291.026H343.799V292.636H346.039V293.476H343.799V297.872C343.799 298.311 343.906 298.647 344.121 298.88C344.345 299.104 344.662 299.216 345.073 299.216C345.278 299.216 345.474 299.183 345.661 299.118C345.857 299.053 346.025 298.959 346.165 298.838L346.515 299.552ZM349.276 294.078C349.51 293.583 349.855 293.21 350.312 292.958C350.779 292.706 351.353 292.58 352.034 292.58V293.546L351.796 293.532C351.022 293.532 350.415 293.77 349.976 294.246C349.538 294.722 349.318 295.389 349.318 296.248V300H348.324V292.636H349.276V294.078ZM353.834 292.636H354.828V300H353.834V292.636ZM354.338 291.026C354.133 291.026 353.96 290.956 353.82 290.816C353.68 290.676 353.61 290.508 353.61 290.312C353.61 290.125 353.68 289.962 353.82 289.822C353.96 289.682 354.133 289.612 354.338 289.612C354.544 289.612 354.716 289.682 354.856 289.822C354.996 289.953 355.066 290.111 355.066 290.298C355.066 290.503 354.996 290.676 354.856 290.816C354.716 290.956 354.544 291.026 354.338 291.026ZM361.388 292.58C362.079 292.58 362.704 292.739 363.264 293.056C363.824 293.364 364.263 293.803 364.58 294.372C364.897 294.941 365.056 295.59 365.056 296.318C365.056 297.046 364.897 297.695 364.58 298.264C364.263 298.833 363.824 299.277 363.264 299.594C362.704 299.911 362.079 300.07 361.388 300.07C360.772 300.07 360.217 299.939 359.722 299.678C359.237 299.417 358.845 299.039 358.546 298.544V300H357.594V289.612H358.588V294.036C358.896 293.56 359.288 293.201 359.764 292.958C360.249 292.706 360.791 292.58 361.388 292.58ZM361.318 299.188C361.831 299.188 362.298 299.071 362.718 298.838C363.138 298.595 363.465 298.255 363.698 297.816C363.941 297.377 364.062 296.878 364.062 296.318C364.062 295.758 363.941 295.259 363.698 294.82C363.465 294.381 363.138 294.045 362.718 293.812C362.298 293.569 361.831 293.448 361.318 293.448C360.795 293.448 360.324 293.569 359.904 293.812C359.493 294.045 359.167 294.381 358.924 294.82C358.691 295.259 358.574 295.758 358.574 296.318C358.574 296.878 358.691 297.377 358.924 297.816C359.167 298.255 359.493 298.595 359.904 298.838C360.324 299.071 360.795 299.188 361.318 299.188ZM373.718 292.636V300H372.766V298.656C372.505 299.104 372.146 299.454 371.688 299.706C371.231 299.949 370.708 300.07 370.12 300.07C369.159 300.07 368.398 299.804 367.838 299.272C367.288 298.731 367.012 297.942 367.012 296.906V292.636H368.006V296.808C368.006 297.583 368.198 298.171 368.58 298.572C368.963 298.973 369.509 299.174 370.218 299.174C370.993 299.174 371.604 298.941 372.052 298.474C372.5 297.998 372.724 297.34 372.724 296.5V292.636H373.718ZM380.38 299.552C380.194 299.72 379.96 299.851 379.68 299.944C379.41 300.028 379.125 300.07 378.826 300.07C378.136 300.07 377.604 299.883 377.23 299.51C376.857 299.137 376.67 298.609 376.67 297.928V293.476H375.354V292.636H376.67V291.026H377.664V292.636H379.904V293.476H377.664V297.872C377.664 298.311 377.772 298.647 377.986 298.88C378.21 299.104 378.528 299.216 378.938 299.216C379.144 299.216 379.34 299.183 379.526 299.118C379.722 299.053 379.89 298.959 380.03 298.838L380.38 299.552ZM384.94 300.07C384.231 300.07 383.591 299.911 383.022 299.594C382.453 299.267 382.005 298.819 381.678 298.25C381.351 297.681 381.188 297.037 381.188 296.318C381.188 295.599 381.351 294.955 381.678 294.386C382.005 293.817 382.453 293.373 383.022 293.056C383.591 292.739 384.231 292.58 384.94 292.58C385.649 292.58 386.289 292.739 386.858 293.056C387.427 293.373 387.871 293.817 388.188 294.386C388.515 294.955 388.678 295.599 388.678 296.318C388.678 297.037 388.515 297.681 388.188 298.25C387.871 298.819 387.427 299.267 386.858 299.594C386.289 299.911 385.649 300.07 384.94 300.07ZM384.94 299.188C385.463 299.188 385.929 299.071 386.34 298.838C386.76 298.595 387.087 298.255 387.32 297.816C387.553 297.377 387.67 296.878 387.67 296.318C387.67 295.758 387.553 295.259 387.32 294.82C387.087 294.381 386.76 294.045 386.34 293.812C385.929 293.569 385.463 293.448 384.94 293.448C384.417 293.448 383.946 293.569 383.526 293.812C383.115 294.045 382.789 294.381 382.546 294.82C382.313 295.259 382.196 295.758 382.196 296.318C382.196 296.878 382.313 297.377 382.546 297.816C382.789 298.255 383.115 298.595 383.526 298.838C383.946 299.071 384.417 299.188 384.94 299.188ZM391.659 294.078C391.893 293.583 392.238 293.21 392.695 292.958C393.162 292.706 393.736 292.58 394.417 292.58V293.546L394.179 293.532C393.405 293.532 392.798 293.77 392.359 294.246C391.921 294.722 391.701 295.389 391.701 296.248V300H390.707V292.636H391.659V294.078ZM398.246 300.07C397.648 300.07 397.074 299.986 396.524 299.818C395.982 299.641 395.558 299.421 395.25 299.16L395.698 298.376C396.006 298.619 396.393 298.819 396.86 298.978C397.326 299.127 397.812 299.202 398.316 299.202C398.988 299.202 399.482 299.099 399.8 298.894C400.126 298.679 400.29 298.381 400.29 297.998C400.29 297.727 400.201 297.517 400.024 297.368C399.846 297.209 399.622 297.093 399.352 297.018C399.081 296.934 398.722 296.855 398.274 296.78C397.676 296.668 397.196 296.556 396.832 296.444C396.468 296.323 396.155 296.122 395.894 295.842C395.642 295.562 395.516 295.175 395.516 294.68C395.516 294.064 395.772 293.56 396.286 293.168C396.799 292.776 397.513 292.58 398.428 292.58C398.904 292.58 399.38 292.645 399.856 292.776C400.332 292.897 400.724 293.061 401.032 293.266L400.598 294.064C399.991 293.644 399.268 293.434 398.428 293.434C397.793 293.434 397.312 293.546 396.986 293.77C396.668 293.994 396.51 294.288 396.51 294.652C396.51 294.932 396.598 295.156 396.776 295.324C396.962 295.492 397.191 295.618 397.462 295.702C397.732 295.777 398.106 295.856 398.582 295.94C399.17 296.052 399.641 296.164 399.996 296.276C400.35 296.388 400.654 296.579 400.906 296.85C401.158 297.121 401.284 297.494 401.284 297.97C401.284 298.614 401.013 299.127 400.472 299.51C399.94 299.883 399.198 300.07 398.246 300.07Z" fill="black"/>
<path d="M322.504 377.1H323.498V380.838C323.041 381.239 322.499 381.547 321.874 381.762C321.249 381.977 320.591 382.084 319.9 382.084C318.92 382.084 318.038 381.869 317.254 381.44C316.47 381.011 315.854 380.418 315.406 379.662C314.958 378.897 314.734 378.043 314.734 377.1C314.734 376.157 314.958 375.308 315.406 374.552C315.854 373.787 316.47 373.189 317.254 372.76C318.038 372.331 318.925 372.116 319.914 372.116C320.661 372.116 321.347 372.237 321.972 372.48C322.597 372.713 323.125 373.063 323.554 373.53L322.91 374.188C322.135 373.423 321.151 373.04 319.956 373.04C319.163 373.04 318.444 373.217 317.8 373.572C317.165 373.917 316.666 374.403 316.302 375.028C315.938 375.644 315.756 376.335 315.756 377.1C315.756 377.865 315.938 378.556 316.302 379.172C316.666 379.788 317.165 380.273 317.8 380.628C318.435 380.983 319.149 381.16 319.942 381.16C320.95 381.16 321.804 380.908 322.504 380.404V377.1ZM329.23 382.07C328.521 382.07 327.881 381.911 327.312 381.594C326.743 381.267 326.295 380.819 325.968 380.25C325.641 379.681 325.478 379.037 325.478 378.318C325.478 377.599 325.641 376.955 325.968 376.386C326.295 375.817 326.743 375.373 327.312 375.056C327.881 374.739 328.521 374.58 329.23 374.58C329.939 374.58 330.579 374.739 331.148 375.056C331.717 375.373 332.161 375.817 332.478 376.386C332.805 376.955 332.968 377.599 332.968 378.318C332.968 379.037 332.805 379.681 332.478 380.25C332.161 380.819 331.717 381.267 331.148 381.594C330.579 381.911 329.939 382.07 329.23 382.07ZM329.23 381.188C329.753 381.188 330.219 381.071 330.63 380.838C331.05 380.595 331.377 380.255 331.61 379.816C331.843 379.377 331.96 378.878 331.96 378.318C331.96 377.758 331.843 377.259 331.61 376.82C331.377 376.381 331.05 376.045 330.63 375.812C330.219 375.569 329.753 375.448 329.23 375.448C328.707 375.448 328.236 375.569 327.816 375.812C327.405 376.045 327.079 376.381 326.836 376.82C326.603 377.259 326.486 377.758 326.486 378.318C326.486 378.878 326.603 379.377 326.836 379.816C327.079 380.255 327.405 380.595 327.816 380.838C328.236 381.071 328.707 381.188 329.23 381.188ZM340.98 374.636L337.704 382H336.682L333.42 374.636H334.456L337.214 380.908L340 374.636H340.98Z" fill="black"/>
<path d="M13.6644 173.2H14.7004V183H13.6644V173.2ZM21.431 175.58C22.355 175.58 23.0876 175.851 23.629 176.392C24.1796 176.924 24.455 177.703 24.455 178.73V183H23.461V178.828C23.461 178.063 23.2696 177.479 22.887 177.078C22.5043 176.677 21.9583 176.476 21.249 176.476C20.4556 176.476 19.8256 176.714 19.359 177.19C18.9016 177.657 18.673 178.305 18.673 179.136V183H17.679V175.636H18.631V176.994C18.9016 176.546 19.275 176.201 19.751 175.958C20.2363 175.706 20.7963 175.58 21.431 175.58ZM33.2049 175.636L29.9289 183H28.9069L25.6449 175.636H26.6809L29.4389 181.908L32.2249 175.636H33.2049ZM40.8117 179.626H34.6517C34.7077 180.391 35.0017 181.012 35.5337 181.488C36.0657 181.955 36.7377 182.188 37.5497 182.188C38.007 182.188 38.427 182.109 38.8097 181.95C39.1923 181.782 39.5237 181.539 39.8037 181.222L40.3637 181.866C40.037 182.258 39.6263 182.557 39.1317 182.762C38.6463 182.967 38.1097 183.07 37.5217 183.07C36.7657 183.07 36.0937 182.911 35.5057 182.594C34.927 182.267 34.4743 181.819 34.1477 181.25C33.821 180.681 33.6577 180.037 33.6577 179.318C33.6577 178.599 33.8117 177.955 34.1197 177.386C34.437 176.817 34.8663 176.373 35.4077 176.056C35.9583 175.739 36.5743 175.58 37.2557 175.58C37.937 175.58 38.5483 175.739 39.0897 176.056C39.631 176.373 40.0557 176.817 40.3637 177.386C40.6717 177.946 40.8257 178.59 40.8257 179.318L40.8117 179.626ZM37.2557 176.434C36.5463 176.434 35.949 176.663 35.4637 177.12C34.9877 177.568 34.717 178.156 34.6517 178.884H39.8737C39.8083 178.156 39.533 177.568 39.0477 177.12C38.5717 176.663 37.9743 176.434 37.2557 176.434ZM44.8229 183.07C44.2256 183.07 43.6516 182.986 43.1009 182.818C42.5596 182.641 42.1349 182.421 41.8269 182.16L42.2749 181.376C42.5829 181.619 42.9702 181.819 43.4369 181.978C43.9036 182.127 44.3889 182.202 44.8929 182.202C45.5649 182.202 46.0596 182.099 46.3769 181.894C46.7036 181.679 46.8669 181.381 46.8669 180.998C46.8669 180.727 46.7782 180.517 46.6009 180.368C46.4236 180.209 46.1996 180.093 45.9289 180.018C45.6582 179.934 45.2989 179.855 44.8509 179.78C44.2536 179.668 43.7729 179.556 43.4089 179.444C43.0449 179.323 42.7322 179.122 42.4709 178.842C42.2189 178.562 42.0929 178.175 42.0929 177.68C42.0929 177.064 42.3496 176.56 42.8629 176.168C43.3762 175.776 44.0902 175.58 45.0049 175.58C45.4809 175.58 45.9569 175.645 46.4329 175.776C46.9089 175.897 47.3009 176.061 47.6089 176.266L47.1749 177.064C46.5682 176.644 45.8449 176.434 45.0049 176.434C44.3702 176.434 43.8896 176.546 43.5629 176.77C43.2456 176.994 43.0869 177.288 43.0869 177.652C43.0869 177.932 43.1756 178.156 43.3529 178.324C43.5396 178.492 43.7682 178.618 44.0389 178.702C44.3096 178.777 44.6829 178.856 45.1589 178.94C45.7469 179.052 46.2182 179.164 46.5729 179.276C46.9276 179.388 47.2309 179.579 47.4829 179.85C47.7349 180.121 47.8609 180.494 47.8609 180.97C47.8609 181.614 47.5902 182.127 47.0489 182.51C46.5169 182.883 45.7749 183.07 44.8229 183.07ZM53.5765 182.552C53.3898 182.72 53.1565 182.851 52.8765 182.944C52.6058 183.028 52.3212 183.07 52.0225 183.07C51.3318 183.07 50.7998 182.883 50.4265 182.51C50.0532 182.137 49.8665 181.609 49.8665 180.928V176.476H48.5505V175.636H49.8665V174.026H50.8605V175.636H53.1005V176.476H50.8605V180.872C50.8605 181.311 50.9678 181.647 51.1825 181.88C51.4065 182.104 51.7238 182.216 52.1345 182.216C52.3398 182.216 52.5358 182.183 52.7225 182.118C52.9185 182.053 53.0865 181.959 53.2265 181.838L53.5765 182.552ZM58.1362 183.07C57.4269 183.07 56.7876 182.911 56.2182 182.594C55.6489 182.267 55.2009 181.819 54.8742 181.25C54.5476 180.681 54.3842 180.037 54.3842 179.318C54.3842 178.599 54.5476 177.955 54.8742 177.386C55.2009 176.817 55.6489 176.373 56.2182 176.056C56.7876 175.739 57.4269 175.58 58.1362 175.58C58.8456 175.58 59.4849 175.739 60.0542 176.056C60.6236 176.373 61.0669 176.817 61.3842 177.386C61.7109 177.955 61.8742 178.599 61.8742 179.318C61.8742 180.037 61.7109 180.681 61.3842 181.25C61.0669 181.819 60.6236 182.267 60.0542 182.594C59.4849 182.911 58.8456 183.07 58.1362 183.07ZM58.1362 182.188C58.6589 182.188 59.1256 182.071 59.5362 181.838C59.9562 181.595 60.2829 181.255 60.5162 180.816C60.7496 180.377 60.8662 179.878 60.8662 179.318C60.8662 178.758 60.7496 178.259 60.5162 177.82C60.2829 177.381 59.9562 177.045 59.5362 176.812C59.1256 176.569 58.6589 176.448 58.1362 176.448C57.6136 176.448 57.1422 176.569 56.7222 176.812C56.3116 177.045 55.9849 177.381 55.7422 177.82C55.5089 178.259 55.3922 178.758 55.3922 179.318C55.3922 179.878 55.5089 180.377 55.7422 180.816C55.9849 181.255 56.3116 181.595 56.7222 181.838C57.1422 182.071 57.6136 182.188 58.1362 182.188ZM64.8556 177.078C65.0889 176.583 65.4342 176.21 65.8916 175.958C66.3582 175.706 66.9322 175.58 67.6136 175.58V176.546L67.3756 176.532C66.6009 176.532 65.9942 176.77 65.5556 177.246C65.1169 177.722 64.8976 178.389 64.8976 179.248V183H63.9036V175.636H64.8556V177.078ZM71.442 183.07C70.8447 183.07 70.2707 182.986 69.72 182.818C69.1787 182.641 68.754 182.421 68.446 182.16L68.894 181.376C69.202 181.619 69.5894 181.819 70.056 181.978C70.5227 182.127 71.008 182.202 71.512 182.202C72.184 182.202 72.6787 182.099 72.996 181.894C73.3227 181.679 73.486 181.381 73.486 180.998C73.486 180.727 73.3974 180.517 73.22 180.368C73.0427 180.209 72.8187 180.093 72.548 180.018C72.2774 179.934 71.918 179.855 71.47 179.78C70.8727 179.668 70.392 179.556 70.028 179.444C69.664 179.323 69.3514 179.122 69.09 178.842C68.838 178.562 68.712 178.175 68.712 177.68C68.712 177.064 68.9687 176.56 69.482 176.168C69.9954 175.776 70.7094 175.58 71.624 175.58C72.1 175.58 72.576 175.645 73.052 175.776C73.528 175.897 73.92 176.061 74.228 176.266L73.794 177.064C73.1874 176.644 72.464 176.434 71.624 176.434C70.9894 176.434 70.5087 176.546 70.182 176.77C69.8647 176.994 69.706 177.288 69.706 177.652C69.706 177.932 69.7947 178.156 69.972 178.324C70.1587 178.492 70.3874 178.618 70.658 178.702C70.9287 178.777 71.302 178.856 71.778 178.94C72.366 179.052 72.8374 179.164 73.192 179.276C73.5467 179.388 73.85 179.579 74.102 179.85C74.354 180.121 74.48 180.494 74.48 180.97C74.48 181.614 74.2094 182.127 73.668 182.51C73.136 182.883 72.394 183.07 71.442 183.07ZM47.4274 208.154L46.0694 206.754C45.2387 207.641 44.1467 208.084 42.7934 208.084C42.1587 208.084 41.5894 207.981 41.0854 207.776C40.5907 207.561 40.2034 207.267 39.9234 206.894C39.6434 206.511 39.5034 206.077 39.5034 205.592C39.5034 205.004 39.69 204.477 40.0634 204.01C40.4367 203.543 41.0714 203.053 41.9674 202.54C41.5007 202.055 41.1787 201.644 41.0014 201.308C40.824 200.963 40.7354 200.599 40.7354 200.216C40.7354 199.591 40.9594 199.087 41.4074 198.704C41.8554 198.321 42.4574 198.13 43.2134 198.13C43.9134 198.13 44.4687 198.303 44.8794 198.648C45.29 198.993 45.4954 199.469 45.4954 200.076C45.4954 200.561 45.332 201 45.0054 201.392C44.6787 201.775 44.114 202.199 43.3114 202.666L45.9994 205.438C46.298 204.906 46.5174 204.276 46.6574 203.548L47.4694 203.8C47.292 204.677 47.0027 205.429 46.6014 206.054L48.0014 207.496L47.4274 208.154ZM43.2134 198.872C42.728 198.872 42.3454 198.993 42.0654 199.236C41.7947 199.479 41.6594 199.801 41.6594 200.202C41.6594 200.491 41.734 200.767 41.8834 201.028C42.0327 201.289 42.3267 201.644 42.7654 202.092C43.4747 201.681 43.9647 201.331 44.2354 201.042C44.506 200.753 44.6414 200.435 44.6414 200.09C44.6414 199.717 44.5154 199.423 44.2634 199.208C44.0114 198.984 43.6614 198.872 43.2134 198.872ZM42.8494 207.258C43.932 207.258 44.8094 206.889 45.4814 206.152L42.5274 203.114C41.7527 203.553 41.216 203.949 40.9174 204.304C40.628 204.659 40.4834 205.055 40.4834 205.494C40.4834 206.026 40.698 206.455 41.1274 206.782C41.566 207.099 42.14 207.258 42.8494 207.258ZM20.3949 223.2C21.6455 223.2 22.6255 223.499 23.3349 224.096C24.0442 224.693 24.3989 225.515 24.3989 226.56C24.3989 227.605 24.0442 228.427 23.3349 229.024C22.6255 229.612 21.6455 229.906 20.3949 229.906H17.7629V233H16.7269V223.2H20.3949ZM20.3669 228.996C21.3375 228.996 22.0795 228.786 22.5929 228.366C23.1062 227.937 23.3629 227.335 23.3629 226.56C23.3629 225.767 23.1062 225.16 22.5929 224.74C22.0795 224.311 21.3375 224.096 20.3669 224.096H17.7629V228.996H20.3669ZM27.1896 227.078C27.4229 226.583 27.7682 226.21 28.2256 225.958C28.6922 225.706 29.2662 225.58 29.9476 225.58V226.546L29.7096 226.532C28.9349 226.532 28.3282 226.77 27.8896 227.246C27.4509 227.722 27.2316 228.389 27.2316 229.248V233H26.2376V225.636H27.1896V227.078ZM34.689 233.07C33.9796 233.07 33.3403 232.911 32.771 232.594C32.2016 232.267 31.7536 231.819 31.427 231.25C31.1003 230.681 30.937 230.037 30.937 229.318C30.937 228.599 31.1003 227.955 31.427 227.386C31.7536 226.817 32.2016 226.373 32.771 226.056C33.3403 225.739 33.9796 225.58 34.689 225.58C35.3983 225.58 36.0376 225.739 36.607 226.056C37.1763 226.373 37.6196 226.817 37.937 227.386C38.2636 227.955 38.427 228.599 38.427 229.318C38.427 230.037 38.2636 230.681 37.937 231.25C37.6196 231.819 37.1763 232.267 36.607 232.594C36.0376 232.911 35.3983 233.07 34.689 233.07ZM34.689 232.188C35.2116 232.188 35.6783 232.071 36.089 231.838C36.509 231.595 36.8356 231.255 37.069 230.816C37.3023 230.377 37.419 229.878 37.419 229.318C37.419 228.758 37.3023 228.259 37.069 227.82C36.8356 227.381 36.509 227.045 36.089 226.812C35.6783 226.569 35.2116 226.448 34.689 226.448C34.1663 226.448 33.695 226.569 33.275 226.812C32.8643 227.045 32.5376 227.381 32.295 227.82C32.0616 228.259 31.945 228.758 31.945 229.318C31.945 229.878 32.0616 230.377 32.295 230.816C32.5376 231.255 32.8643 231.595 33.275 231.838C33.695 232.071 34.1663 232.188 34.689 232.188ZM39.3643 235.786C39.0563 235.786 38.767 235.744 38.4963 235.66C38.2163 235.585 37.9876 235.469 37.8103 235.31L38.1603 234.554C38.4496 234.806 38.8323 234.932 39.3083 234.932C39.7003 234.932 39.999 234.815 40.2043 234.582C40.419 234.349 40.5263 234.003 40.5263 233.546V225.636H41.5203V233.546C41.5203 234.237 41.3336 234.783 40.9603 235.184C40.587 235.585 40.055 235.786 39.3643 235.786ZM41.0303 224.012C40.825 224.012 40.6523 223.942 40.5123 223.802C40.3723 223.662 40.3023 223.494 40.3023 223.298C40.3023 223.111 40.3723 222.948 40.5123 222.808C40.6523 222.668 40.825 222.598 41.0303 222.598C41.2356 222.598 41.4083 222.668 41.5483 222.808C41.6883 222.939 41.7583 223.097 41.7583 223.284C41.7583 223.489 41.6883 223.662 41.5483 223.802C41.4083 223.942 41.2356 224.012 41.0303 224.012ZM50.7101 229.626H44.5501C44.6061 230.391 44.9001 231.012 45.4321 231.488C45.9641 231.955 46.6361 232.188 47.4481 232.188C47.9054 232.188 48.3254 232.109 48.7081 231.95C49.0908 231.782 49.4221 231.539 49.7021 231.222L50.2621 231.866C49.9354 232.258 49.5248 232.557 49.0301 232.762C48.5448 232.967 48.0081 233.07 47.4201 233.07C46.6641 233.07 45.9921 232.911 45.4041 232.594C44.8254 232.267 44.3728 231.819 44.0461 231.25C43.7194 230.681 43.5561 230.037 43.5561 229.318C43.5561 228.599 43.7101 227.955 44.0181 227.386C44.3354 226.817 44.7648 226.373 45.3061 226.056C45.8568 225.739 46.4728 225.58 47.1541 225.58C47.8354 225.58 48.4468 225.739 48.9881 226.056C49.5294 226.373 49.9541 226.817 50.2621 227.386C50.5701 227.946 50.7241 228.59 50.7241 229.318L50.7101 229.626ZM47.1541 226.434C46.4448 226.434 45.8474 226.663 45.3621 227.12C44.8861 227.568 44.6154 228.156 44.5501 228.884H49.7721C49.7068 228.156 49.4314 227.568 48.9461 227.12C48.4701 226.663 47.8728 226.434 47.1541 226.434ZM55.7993 233.07C55.0713 233.07 54.418 232.911 53.8393 232.594C53.27 232.277 52.822 231.833 52.4953 231.264C52.1687 230.685 52.0053 230.037 52.0053 229.318C52.0053 228.599 52.1687 227.955 52.4953 227.386C52.822 226.817 53.27 226.373 53.8393 226.056C54.418 225.739 55.0713 225.58 55.7993 225.58C56.434 225.58 56.9987 225.706 57.4933 225.958C57.9973 226.201 58.394 226.56 58.6833 227.036L57.9413 227.54C57.6987 227.176 57.3907 226.905 57.0173 226.728C56.644 226.541 56.238 226.448 55.7993 226.448C55.2673 226.448 54.7867 226.569 54.3573 226.812C53.9373 227.045 53.606 227.381 53.3633 227.82C53.13 228.259 53.0133 228.758 53.0133 229.318C53.0133 229.887 53.13 230.391 53.3633 230.83C53.606 231.259 53.9373 231.595 54.3573 231.838C54.7867 232.071 55.2673 232.188 55.7993 232.188C56.238 232.188 56.644 232.099 57.0173 231.922C57.3907 231.745 57.6987 231.474 57.9413 231.11L58.6833 231.614C58.394 232.09 57.9973 232.454 57.4933 232.706C56.9893 232.949 56.4247 233.07 55.7993 233.07ZM64.596 232.552C64.4094 232.72 64.176 232.851 63.896 232.944C63.6254 233.028 63.3407 233.07 63.042 233.07C62.3514 233.07 61.8194 232.883 61.446 232.51C61.0727 232.137 60.886 231.609 60.886 230.928V226.476H59.57V225.636H60.886V224.026H61.88V225.636H64.12V226.476H61.88V230.872C61.88 231.311 61.9874 231.647 62.202 231.88C62.426 232.104 62.7434 232.216 63.154 232.216C63.3594 232.216 63.5554 232.183 63.742 232.118C63.938 232.053 64.106 231.959 64.246 231.838L64.596 232.552ZM68.3795 233.07C67.7822 233.07 67.2082 232.986 66.6575 232.818C66.1162 232.641 65.6915 232.421 65.3835 232.16L65.8315 231.376C66.1395 231.619 66.5269 231.819 66.9935 231.978C67.4602 232.127 67.9455 232.202 68.4495 232.202C69.1215 232.202 69.6162 232.099 69.9335 231.894C70.2602 231.679 70.4235 231.381 70.4235 230.998C70.4235 230.727 70.3349 230.517 70.1575 230.368C69.9802 230.209 69.7562 230.093 69.4855 230.018C69.2149 229.934 68.8555 229.855 68.4075 229.78C67.8102 229.668 67.3295 229.556 66.9655 229.444C66.6015 229.323 66.2889 229.122 66.0275 228.842C65.7755 228.562 65.6495 228.175 65.6495 227.68C65.6495 227.064 65.9062 226.56 66.4195 226.168C66.9329 225.776 67.6469 225.58 68.5615 225.58C69.0375 225.58 69.5135 225.645 69.9895 225.776C70.4655 225.897 70.8575 226.061 71.1655 226.266L70.7315 227.064C70.1249 226.644 69.4015 226.434 68.5615 226.434C67.9269 226.434 67.4462 226.546 67.1195 226.77C66.8022 226.994 66.6435 227.288 66.6435 227.652C66.6435 227.932 66.7322 228.156 66.9095 228.324C67.0962 228.492 67.3249 228.618 67.5955 228.702C67.8662 228.777 68.2395 228.856 68.7155 228.94C69.3035 229.052 69.7749 229.164 70.1295 229.276C70.4842 229.388 70.7875 229.579 71.0395 229.85C71.2915 230.121 71.4175 230.494 71.4175 230.97C71.4175 231.614 71.1469 232.127 70.6055 232.51C70.0735 232.883 69.3315 233.07 68.3795 233.07Z" fill="black"/>
<circle cx="327.5" cy="376.5" r="26" stroke="#F6F88A"/>
<circle cx="258.5" cy="322.5" r="51" stroke="#F6F88A"/>
<circle cx="202.5" cy="56.5" r="51" stroke="#F6F88A"/>
<defs>
<filter id="filter0_d_707_593" x="19" y="0" width="502" height="501" filterUnits="userSpaceOnUse" color-interpolation-filters="sRGB">
<feFlood flood-opacity="0" result="BackgroundImageFix"/>
<feColorMatrix in="SourceAlpha" type="matrix" values="0 0 0 0 0 0 0 0 0 0 0 0 0 0 0 0 0 0 127 0" result="hardAlpha"/>
<feOffset dy="18"/>
<feGaussianBlur stdDeviation="30"/>
<feComposite in2="hardAlpha" operator="out"/>
<feColorMatrix type="matrix" values="0 0 0 0 0 0 0 0 0 0 0 0 0 0 0 0 0 0 0.25 0"/>
<feBlend mode="normal" in2="BackgroundImageFix" result="effect1_dropShadow_707_593"/>
<feBlend mode="normal" in="SourceGraphic" in2="effect1_dropShadow_707_593" result="shape"/>
</filter>
<linearGradient id="paint0_linear_707_593" x1="105.882" y1="-30.7364" x2="559.185" y2="114.843" gradientUnits="userSpaceOnUse">
<stop stop-color="#775FAF"/>
<stop offset="1" stop-color="#FFD390"/>
</linearGradient>
</defs>
</svg>
