<svg width="560" height="501" viewBox="0 0 560 501" fill="none" xmlns="http://www.w3.org/2000/svg">
<g filter="url(#filter0_d_318_856)">
<ellipse cx="274" cy="232.5" rx="191" ry="190.5" fill="url(#paint0_linear_318_856)" fill-opacity="0.5" shape-rendering="crispEdges"/>
</g>
<g filter="url(#filter1_d_318_856)">
<circle cx="420" cy="124" r="122.5" stroke="url(#paint1_linear_318_856)" shape-rendering="crispEdges"/>
</g>
<g filter="url(#filter2_d_318_856)">
<path d="M161.5 204.5C161.5 247.575 126.357 282.5 83 282.5C39.6426 282.5 4.5 247.575 4.5 204.5C4.5 161.425 39.6426 126.5 83 126.5C126.357 126.5 161.5 161.425 161.5 204.5Z" stroke="url(#paint2_linear_318_856)" shape-rendering="crispEdges"/>
</g>
<g filter="url(#filter3_d_318_856)">
<path d="M335.5 193C335.5 249.059 290.278 294.5 234.5 294.5C178.722 294.5 133.5 249.059 133.5 193C133.5 136.941 178.722 91.5 234.5 91.5C290.278 91.5 335.5 136.941 335.5 193Z" stroke="url(#paint3_linear_318_856)" shape-rendering="crispEdges"/>
</g>
<g filter="url(#filter4_d_318_856)">
<circle cx="361.5" cy="288.5" r="72" stroke="url(#paint4_linear_318_856)" shape-rendering="crispEdges"/>
</g>
<g filter="url(#filter5_d_318_856)">
<circle cx="483.5" cy="339.5" r="72" stroke="url(#paint5_linear_318_856)" shape-rendering="crispEdges"/>
</g>
<path d="M461.5 336.096H458.056V335.2H465.98V336.096H462.536V345H461.5V336.096ZM469.591 337.58C470.552 337.58 471.29 337.823 471.803 338.308C472.316 338.784 472.573 339.493 472.573 340.436V345H471.621V343.852C471.397 344.235 471.066 344.533 470.627 344.748C470.198 344.963 469.684 345.07 469.087 345.07C468.266 345.07 467.612 344.874 467.127 344.482C466.642 344.09 466.399 343.572 466.399 342.928C466.399 342.303 466.623 341.799 467.071 341.416C467.528 341.033 468.252 340.842 469.241 340.842H471.579V340.394C471.579 339.759 471.402 339.279 471.047 338.952C470.692 338.616 470.174 338.448 469.493 338.448C469.026 338.448 468.578 338.527 468.149 338.686C467.72 338.835 467.351 339.045 467.043 339.316L466.595 338.574C466.968 338.257 467.416 338.014 467.939 337.846C468.462 337.669 469.012 337.58 469.591 337.58ZM469.241 344.286C469.801 344.286 470.282 344.16 470.683 343.908C471.084 343.647 471.383 343.273 471.579 342.788V341.584H469.269C468.009 341.584 467.379 342.023 467.379 342.9C467.379 343.329 467.542 343.67 467.869 343.922C468.196 344.165 468.653 344.286 469.241 344.286ZM475.273 334.612H476.267V345H475.273V334.612ZM485.444 341.626H479.284C479.34 342.391 479.634 343.012 480.166 343.488C480.698 343.955 481.37 344.188 482.182 344.188C482.64 344.188 483.06 344.109 483.442 343.95C483.825 343.782 484.156 343.539 484.436 343.222L484.996 343.866C484.67 344.258 484.259 344.557 483.764 344.762C483.279 344.967 482.742 345.07 482.154 345.07C481.398 345.07 480.726 344.911 480.138 344.594C479.56 344.267 479.107 343.819 478.78 343.25C478.454 342.681 478.29 342.037 478.29 341.318C478.29 340.599 478.444 339.955 478.752 339.386C479.07 338.817 479.499 338.373 480.04 338.056C480.591 337.739 481.207 337.58 481.888 337.58C482.57 337.58 483.181 337.739 483.722 338.056C484.264 338.373 484.688 338.817 484.996 339.386C485.304 339.946 485.458 340.59 485.458 341.318L485.444 341.626ZM481.888 338.434C481.179 338.434 480.582 338.663 480.096 339.12C479.62 339.568 479.35 340.156 479.284 340.884H484.506C484.441 340.156 484.166 339.568 483.68 339.12C483.204 338.663 482.607 338.434 481.888 338.434ZM491.234 337.58C492.158 337.58 492.89 337.851 493.432 338.392C493.982 338.924 494.258 339.703 494.258 340.73V345H493.264V340.828C493.264 340.063 493.072 339.479 492.69 339.078C492.307 338.677 491.761 338.476 491.052 338.476C490.258 338.476 489.628 338.714 489.162 339.19C488.704 339.657 488.476 340.305 488.476 341.136V345H487.482V337.636H488.434V338.994C488.704 338.546 489.078 338.201 489.554 337.958C490.039 337.706 490.599 337.58 491.234 337.58ZM500.834 344.552C500.648 344.72 500.414 344.851 500.134 344.944C499.864 345.028 499.579 345.07 499.28 345.07C498.59 345.07 498.058 344.883 497.684 344.51C497.311 344.137 497.124 343.609 497.124 342.928V338.476H495.808V337.636H497.124V336.026H498.118V337.636H500.358V338.476H498.118V342.872C498.118 343.311 498.226 343.647 498.44 343.88C498.664 344.104 498.982 344.216 499.392 344.216C499.598 344.216 499.794 344.183 499.98 344.118C500.176 344.053 500.344 343.959 500.484 343.838L500.834 344.552Z" fill="black"/>
<path d="M439.384 97.084C438.656 97.084 437.956 96.9673 437.284 96.734C436.621 96.5007 436.108 96.1927 435.744 95.81L436.15 95.012C436.505 95.3667 436.976 95.656 437.564 95.88C438.152 96.0947 438.759 96.202 439.384 96.202C440.261 96.202 440.919 96.0433 441.358 95.726C441.797 95.3993 442.016 94.9793 442.016 94.466C442.016 94.074 441.895 93.7613 441.652 93.528C441.419 93.2947 441.129 93.1173 440.784 92.996C440.439 92.8653 439.958 92.7253 439.342 92.576C438.605 92.3893 438.017 92.212 437.578 92.044C437.139 91.8667 436.761 91.6007 436.444 91.246C436.136 90.8913 435.982 90.4107 435.982 89.804C435.982 89.3093 436.113 88.8613 436.374 88.46C436.635 88.0493 437.037 87.7227 437.578 87.48C438.119 87.2373 438.791 87.116 439.594 87.116C440.154 87.116 440.7 87.1953 441.232 87.354C441.773 87.5033 442.24 87.7133 442.632 87.984L442.282 88.81C441.871 88.5393 441.433 88.3387 440.966 88.208C440.499 88.068 440.042 87.998 439.594 87.998C438.735 87.998 438.087 88.166 437.648 88.502C437.219 88.8287 437.004 89.2533 437.004 89.776C437.004 90.168 437.121 90.4853 437.354 90.728C437.597 90.9613 437.895 91.1433 438.25 91.274C438.614 91.3953 439.099 91.5307 439.706 91.68C440.425 91.8573 441.003 92.0347 441.442 92.212C441.89 92.38 442.268 92.6413 442.576 92.996C442.884 93.3413 443.038 93.8127 443.038 94.41C443.038 94.9047 442.903 95.3573 442.632 95.768C442.371 96.1693 441.965 96.4913 441.414 96.734C440.863 96.9673 440.187 97.084 439.384 97.084ZM448.963 96.552C448.777 96.72 448.543 96.8507 448.263 96.944C447.993 97.028 447.708 97.07 447.409 97.07C446.719 97.07 446.187 96.8833 445.813 96.51C445.44 96.1367 445.253 95.6093 445.253 94.928V90.476H443.937V89.636H445.253V88.026H446.247V89.636H448.487V90.476H446.247V94.872C446.247 95.3107 446.355 95.6467 446.569 95.88C446.793 96.104 447.111 96.216 447.521 96.216C447.727 96.216 447.923 96.1833 448.109 96.118C448.305 96.0527 448.473 95.9593 448.613 95.838L448.963 96.552ZM453.349 89.58C454.31 89.58 455.047 89.8227 455.561 90.308C456.074 90.784 456.331 91.4933 456.331 92.436V97H455.379V95.852C455.155 96.2347 454.823 96.5333 454.385 96.748C453.955 96.9627 453.442 97.07 452.845 97.07C452.023 97.07 451.37 96.874 450.885 96.482C450.399 96.09 450.157 95.572 450.157 94.928C450.157 94.3027 450.381 93.7987 450.829 93.416C451.286 93.0333 452.009 92.842 452.999 92.842H455.337V92.394C455.337 91.7593 455.159 91.2787 454.805 90.952C454.45 90.616 453.932 90.448 453.251 90.448C452.784 90.448 452.336 90.5273 451.907 90.686C451.477 90.8353 451.109 91.0453 450.801 91.316L450.353 90.574C450.726 90.2567 451.174 90.014 451.697 89.846C452.219 89.6687 452.77 89.58 453.349 89.58ZM452.999 96.286C453.559 96.286 454.039 96.16 454.441 95.908C454.842 95.6467 455.141 95.2733 455.337 94.788V93.584H453.027C451.767 93.584 451.137 94.0227 451.137 94.9C451.137 95.3293 451.3 95.67 451.627 95.922C451.953 96.1647 452.411 96.286 452.999 96.286ZM459.983 91.078C460.216 90.5833 460.561 90.21 461.019 89.958C461.485 89.706 462.059 89.58 462.741 89.58V90.546L462.503 90.532C461.728 90.532 461.121 90.77 460.683 91.246C460.244 91.722 460.025 92.3893 460.025 93.248V97H459.031V89.636H459.983V91.078ZM468.733 96.552C468.546 96.72 468.313 96.8507 468.033 96.944C467.762 97.028 467.477 97.07 467.179 97.07C466.488 97.07 465.956 96.8833 465.583 96.51C465.209 96.1367 465.023 95.6093 465.023 94.928V90.476H463.707V89.636H465.023V88.026H466.017V89.636H468.257V90.476H466.017V94.872C466.017 95.3107 466.124 95.6467 466.339 95.88C466.563 96.104 466.88 96.216 467.291 96.216C467.496 96.216 467.692 96.1833 467.879 96.118C468.075 96.0527 468.243 95.9593 468.383 95.838L468.733 96.552ZM477.178 89.636V97H476.226V95.656C475.965 96.104 475.606 96.454 475.148 96.706C474.691 96.9487 474.168 97.07 473.58 97.07C472.619 97.07 471.858 96.804 471.298 96.272C470.748 95.7307 470.472 94.942 470.472 93.906V89.636H471.466V93.808C471.466 94.5827 471.658 95.1707 472.04 95.572C472.423 95.9733 472.969 96.174 473.678 96.174C474.453 96.174 475.064 95.9407 475.512 95.474C475.96 94.998 476.184 94.34 476.184 93.5V89.636H477.178ZM483.756 89.58C484.447 89.58 485.072 89.7387 485.632 90.056C486.192 90.364 486.631 90.8027 486.948 91.372C487.266 91.9413 487.424 92.59 487.424 93.318C487.424 94.0553 487.266 94.7087 486.948 95.278C486.631 95.8473 486.192 96.2907 485.632 96.608C485.082 96.916 484.456 97.07 483.756 97.07C483.159 97.07 482.618 96.9487 482.132 96.706C481.656 96.454 481.264 96.09 480.956 95.614V99.716H479.962V89.636H480.914V91.092C481.213 90.6067 481.605 90.2333 482.09 89.972C482.585 89.7107 483.14 89.58 483.756 89.58ZM483.686 96.188C484.2 96.188 484.666 96.0713 485.086 95.838C485.506 95.5953 485.833 95.2547 486.066 94.816C486.309 94.3773 486.43 93.878 486.43 93.318C486.43 92.758 486.309 92.2633 486.066 91.834C485.833 91.3953 485.506 91.0547 485.086 90.812C484.666 90.5693 484.2 90.448 483.686 90.448C483.164 90.448 482.692 90.5693 482.272 90.812C481.862 91.0547 481.535 91.3953 481.292 91.834C481.059 92.2633 480.942 92.758 480.942 93.318C480.942 93.878 481.059 94.3773 481.292 94.816C481.535 95.2547 481.862 95.5953 482.272 95.838C482.692 96.0713 483.164 96.188 483.686 96.188ZM491.424 97.07C490.827 97.07 490.253 96.986 489.702 96.818C489.161 96.6407 488.736 96.4213 488.428 96.16L488.876 95.376C489.184 95.6187 489.572 95.8193 490.038 95.978C490.505 96.1273 490.99 96.202 491.494 96.202C492.166 96.202 492.661 96.0993 492.978 95.894C493.305 95.6793 493.468 95.3807 493.468 94.998C493.468 94.7273 493.38 94.5173 493.202 94.368C493.025 94.2093 492.801 94.0927 492.53 94.018C492.26 93.934 491.9 93.8547 491.452 93.78C490.855 93.668 490.374 93.556 490.01 93.444C489.646 93.3227 489.334 93.122 489.072 92.842C488.82 92.562 488.694 92.1747 488.694 91.68C488.694 91.064 488.951 90.56 489.464 90.168C489.978 89.776 490.692 89.58 491.606 89.58C492.082 89.58 492.558 89.6453 493.034 89.776C493.51 89.8973 493.902 90.0607 494.21 90.266L493.776 91.064C493.17 90.644 492.446 90.434 491.606 90.434C490.972 90.434 490.491 90.546 490.164 90.77C489.847 90.994 489.688 91.288 489.688 91.652C489.688 91.932 489.777 92.156 489.954 92.324C490.141 92.492 490.37 92.618 490.64 92.702C490.911 92.7767 491.284 92.856 491.76 92.94C492.348 93.052 492.82 93.164 493.174 93.276C493.529 93.388 493.832 93.5793 494.084 93.85C494.336 94.1207 494.462 94.494 494.462 94.97C494.462 95.614 494.192 96.1273 493.65 96.51C493.118 96.8833 492.376 97.07 491.424 97.07Z" fill="black"/>
<path d="M202.814 188.2H203.85V198H202.814V188.2ZM210.58 190.58C211.504 190.58 212.237 190.851 212.778 191.392C213.329 191.924 213.604 192.703 213.604 193.73V198H212.61V193.828C212.61 193.063 212.419 192.479 212.036 192.078C211.654 191.677 211.108 191.476 210.398 191.476C209.605 191.476 208.975 191.714 208.508 192.19C208.051 192.657 207.822 193.305 207.822 194.136V198H206.828V190.636H207.78V191.994C208.051 191.546 208.424 191.201 208.9 190.958C209.386 190.706 209.946 190.58 210.58 190.58ZM219.382 198.07C218.654 198.07 218.001 197.911 217.422 197.594C216.853 197.277 216.405 196.833 216.078 196.264C215.752 195.685 215.588 195.037 215.588 194.318C215.588 193.599 215.752 192.955 216.078 192.386C216.405 191.817 216.853 191.373 217.422 191.056C218.001 190.739 218.654 190.58 219.382 190.58C220.017 190.58 220.582 190.706 221.076 190.958C221.58 191.201 221.977 191.56 222.266 192.036L221.524 192.54C221.282 192.176 220.974 191.905 220.6 191.728C220.227 191.541 219.821 191.448 219.382 191.448C218.85 191.448 218.37 191.569 217.94 191.812C217.52 192.045 217.189 192.381 216.946 192.82C216.713 193.259 216.596 193.758 216.596 194.318C216.596 194.887 216.713 195.391 216.946 195.83C217.189 196.259 217.52 196.595 217.94 196.838C218.37 197.071 218.85 197.188 219.382 197.188C219.821 197.188 220.227 197.099 220.6 196.922C220.974 196.745 221.282 196.474 221.524 196.11L222.266 196.614C221.977 197.09 221.58 197.454 221.076 197.706C220.572 197.949 220.008 198.07 219.382 198.07ZM230.855 190.636V198H229.903V196.656C229.642 197.104 229.282 197.454 228.825 197.706C228.368 197.949 227.845 198.07 227.257 198.07C226.296 198.07 225.535 197.804 224.975 197.272C224.424 196.731 224.149 195.942 224.149 194.906V190.636H225.143V194.808C225.143 195.583 225.334 196.171 225.717 196.572C226.1 196.973 226.646 197.174 227.355 197.174C228.13 197.174 228.741 196.941 229.189 196.474C229.637 195.998 229.861 195.34 229.861 194.5V190.636H230.855ZM237.433 190.58C238.124 190.58 238.749 190.739 239.309 191.056C239.869 191.364 240.308 191.803 240.625 192.372C240.942 192.941 241.101 193.59 241.101 194.318C241.101 195.046 240.942 195.695 240.625 196.264C240.308 196.833 239.869 197.277 239.309 197.594C238.749 197.911 238.124 198.07 237.433 198.07C236.817 198.07 236.262 197.939 235.767 197.678C235.282 197.417 234.89 197.039 234.591 196.544V198H233.639V187.612H234.633V192.036C234.941 191.56 235.333 191.201 235.809 190.958C236.294 190.706 236.836 190.58 237.433 190.58ZM237.363 197.188C237.876 197.188 238.343 197.071 238.763 196.838C239.183 196.595 239.51 196.255 239.743 195.816C239.986 195.377 240.107 194.878 240.107 194.318C240.107 193.758 239.986 193.259 239.743 192.82C239.51 192.381 239.183 192.045 238.763 191.812C238.343 191.569 237.876 191.448 237.363 191.448C236.84 191.448 236.369 191.569 235.949 191.812C235.538 192.045 235.212 192.381 234.969 192.82C234.736 193.259 234.619 193.758 234.619 194.318C234.619 194.878 234.736 195.377 234.969 195.816C235.212 196.255 235.538 196.595 235.949 196.838C236.369 197.071 236.84 197.188 237.363 197.188ZM245.662 190.58C246.624 190.58 247.361 190.823 247.874 191.308C248.388 191.784 248.644 192.493 248.644 193.436V198H247.692V196.852C247.468 197.235 247.137 197.533 246.698 197.748C246.269 197.963 245.756 198.07 245.158 198.07C244.337 198.07 243.684 197.874 243.198 197.482C242.713 197.09 242.47 196.572 242.47 195.928C242.47 195.303 242.694 194.799 243.142 194.416C243.6 194.033 244.323 193.842 245.312 193.842H247.65V193.394C247.65 192.759 247.473 192.279 247.118 191.952C246.764 191.616 246.246 191.448 245.564 191.448C245.098 191.448 244.65 191.527 244.22 191.686C243.791 191.835 243.422 192.045 243.114 192.316L242.666 191.574C243.04 191.257 243.488 191.014 244.01 190.846C244.533 190.669 245.084 190.58 245.662 190.58ZM245.312 197.286C245.872 197.286 246.353 197.16 246.754 196.908C247.156 196.647 247.454 196.273 247.65 195.788V194.584H245.34C244.08 194.584 243.45 195.023 243.45 195.9C243.45 196.329 243.614 196.67 243.94 196.922C244.267 197.165 244.724 197.286 245.312 197.286ZM255.222 197.552C255.035 197.72 254.802 197.851 254.522 197.944C254.251 198.028 253.967 198.07 253.668 198.07C252.977 198.07 252.445 197.883 252.072 197.51C251.699 197.137 251.512 196.609 251.512 195.928V191.476H250.196V190.636H251.512V189.026H252.506V190.636H254.746V191.476H252.506V195.872C252.506 196.311 252.613 196.647 252.828 196.88C253.052 197.104 253.369 197.216 253.78 197.216C253.985 197.216 254.181 197.183 254.368 197.118C254.564 197.053 254.732 196.959 254.872 196.838L255.222 197.552ZM259.782 198.07C259.072 198.07 258.433 197.911 257.864 197.594C257.294 197.267 256.846 196.819 256.52 196.25C256.193 195.681 256.03 195.037 256.03 194.318C256.03 193.599 256.193 192.955 256.52 192.386C256.846 191.817 257.294 191.373 257.864 191.056C258.433 190.739 259.072 190.58 259.782 190.58C260.491 190.58 261.13 190.739 261.7 191.056C262.269 191.373 262.712 191.817 263.03 192.386C263.356 192.955 263.52 193.599 263.52 194.318C263.52 195.037 263.356 195.681 263.03 196.25C262.712 196.819 262.269 197.267 261.7 197.594C261.13 197.911 260.491 198.07 259.782 198.07ZM259.782 197.188C260.304 197.188 260.771 197.071 261.182 196.838C261.602 196.595 261.928 196.255 262.162 195.816C262.395 195.377 262.512 194.878 262.512 194.318C262.512 193.758 262.395 193.259 262.162 192.82C261.928 192.381 261.602 192.045 261.182 191.812C260.771 191.569 260.304 191.448 259.782 191.448C259.259 191.448 258.788 191.569 258.368 191.812C257.957 192.045 257.63 192.381 257.388 192.82C257.154 193.259 257.038 193.758 257.038 194.318C257.038 194.878 257.154 195.377 257.388 195.816C257.63 196.255 257.957 196.595 258.368 196.838C258.788 197.071 259.259 197.188 259.782 197.188ZM266.501 192.078C266.734 191.583 267.08 191.21 267.537 190.958C268.004 190.706 268.578 190.58 269.259 190.58V191.546L269.021 191.532C268.246 191.532 267.64 191.77 267.201 192.246C266.762 192.722 266.543 193.389 266.543 194.248V198H265.549V190.636H266.501V192.078Z" fill="black"/>
<path d="M225.335 340.084C224.607 340.084 223.907 339.967 223.235 339.734C222.572 339.501 222.059 339.193 221.695 338.81L222.101 338.012C222.456 338.367 222.927 338.656 223.515 338.88C224.103 339.095 224.71 339.202 225.335 339.202C226.212 339.202 226.87 339.043 227.309 338.726C227.748 338.399 227.967 337.979 227.967 337.466C227.967 337.074 227.846 336.761 227.603 336.528C227.37 336.295 227.08 336.117 226.735 335.996C226.39 335.865 225.909 335.725 225.293 335.576C224.556 335.389 223.968 335.212 223.529 335.044C223.09 334.867 222.712 334.601 222.395 334.246C222.087 333.891 221.933 333.411 221.933 332.804C221.933 332.309 222.064 331.861 222.325 331.46C222.586 331.049 222.988 330.723 223.529 330.48C224.07 330.237 224.742 330.116 225.545 330.116C226.105 330.116 226.651 330.195 227.183 330.354C227.724 330.503 228.191 330.713 228.583 330.984L228.233 331.81C227.822 331.539 227.384 331.339 226.917 331.208C226.45 331.068 225.993 330.998 225.545 330.998C224.686 330.998 224.038 331.166 223.599 331.502C223.17 331.829 222.955 332.253 222.955 332.776C222.955 333.168 223.072 333.485 223.305 333.728C223.548 333.961 223.846 334.143 224.201 334.274C224.565 334.395 225.05 334.531 225.657 334.68C226.376 334.857 226.954 335.035 227.393 335.212C227.841 335.38 228.219 335.641 228.527 335.996C228.835 336.341 228.989 336.813 228.989 337.41C228.989 337.905 228.854 338.357 228.583 338.768C228.322 339.169 227.916 339.491 227.365 339.734C226.814 339.967 226.138 340.084 225.335 340.084ZM237.672 332.636V340H236.72V338.656C236.459 339.104 236.1 339.454 235.642 339.706C235.185 339.949 234.662 340.07 234.074 340.07C233.113 340.07 232.352 339.804 231.792 339.272C231.242 338.731 230.966 337.942 230.966 336.906V332.636H231.96V336.808C231.96 337.583 232.152 338.171 232.534 338.572C232.917 338.973 233.463 339.174 234.172 339.174C234.947 339.174 235.558 338.941 236.006 338.474C236.454 337.998 236.678 337.34 236.678 336.5V332.636H237.672ZM244.25 332.58C244.941 332.58 245.566 332.739 246.126 333.056C246.686 333.364 247.125 333.803 247.442 334.372C247.76 334.941 247.918 335.59 247.918 336.318C247.918 337.046 247.76 337.695 247.442 338.264C247.125 338.833 246.686 339.277 246.126 339.594C245.566 339.911 244.941 340.07 244.25 340.07C243.634 340.07 243.079 339.939 242.584 339.678C242.099 339.417 241.707 339.039 241.408 338.544V340H240.456V329.612H241.45V334.036C241.758 333.56 242.15 333.201 242.626 332.958C243.112 332.706 243.653 332.58 244.25 332.58ZM244.18 339.188C244.694 339.188 245.16 339.071 245.58 338.838C246 338.595 246.327 338.255 246.56 337.816C246.803 337.377 246.924 336.878 246.924 336.318C246.924 335.758 246.803 335.259 246.56 334.82C246.327 334.381 246 334.045 245.58 333.812C245.16 333.569 244.694 333.448 244.18 333.448C243.658 333.448 243.186 333.569 242.766 333.812C242.356 334.045 242.029 334.381 241.786 334.82C241.553 335.259 241.436 335.758 241.436 336.318C241.436 336.878 241.553 337.377 241.786 337.816C242.029 338.255 242.356 338.595 242.766 338.838C243.186 339.071 243.658 339.188 244.18 339.188ZM249.535 335.772H253.203V336.64H249.535V335.772ZM255.637 330.2H259.627C260.663 330.2 261.578 330.41 262.371 330.83C263.164 331.241 263.78 331.819 264.219 332.566C264.658 333.303 264.877 334.148 264.877 335.1C264.877 336.052 264.658 336.901 264.219 337.648C263.78 338.385 263.164 338.964 262.371 339.384C261.578 339.795 260.663 340 259.627 340H255.637V330.2ZM259.571 339.104C260.43 339.104 261.181 338.936 261.825 338.6C262.469 338.255 262.968 337.783 263.323 337.186C263.678 336.579 263.855 335.884 263.855 335.1C263.855 334.316 263.678 333.625 263.323 333.028C262.968 332.421 262.469 331.95 261.825 331.614C261.181 331.269 260.43 331.096 259.571 331.096H256.673V339.104H259.571ZM273.213 337.382H267.753L266.577 340H265.499L269.979 330.2H271.001L275.481 340H274.389L273.213 337.382ZM272.835 336.542L270.483 331.278L268.131 336.542H272.835ZM281.249 340.084C280.278 340.084 279.396 339.869 278.603 339.44C277.819 339.001 277.203 338.404 276.755 337.648C276.316 336.892 276.097 336.043 276.097 335.1C276.097 334.157 276.316 333.308 276.755 332.552C277.203 331.796 277.819 331.203 278.603 330.774C279.396 330.335 280.278 330.116 281.249 330.116C282.22 330.116 283.092 330.331 283.867 330.76C284.651 331.189 285.267 331.787 285.715 332.552C286.163 333.308 286.387 334.157 286.387 335.1C286.387 336.043 286.163 336.897 285.715 337.662C285.267 338.418 284.651 339.011 283.867 339.44C283.092 339.869 282.22 340.084 281.249 340.084ZM281.249 339.16C282.024 339.16 282.724 338.987 283.349 338.642C283.974 338.287 284.464 337.802 284.819 337.186C285.174 336.561 285.351 335.865 285.351 335.1C285.351 334.335 285.174 333.644 284.819 333.028C284.464 332.403 283.974 331.917 283.349 331.572C282.724 331.217 282.024 331.04 281.249 331.04C280.474 331.04 279.77 331.217 279.135 331.572C278.51 331.917 278.015 332.403 277.651 333.028C277.296 333.644 277.119 334.335 277.119 335.1C277.119 335.865 277.296 336.561 277.651 337.186C278.015 337.802 278.51 338.287 279.135 338.642C279.77 338.987 280.474 339.16 281.249 339.16ZM290.473 340.07C289.876 340.07 289.302 339.986 288.751 339.818C288.21 339.641 287.785 339.421 287.477 339.16L287.925 338.376C288.233 338.619 288.621 338.819 289.087 338.978C289.554 339.127 290.039 339.202 290.543 339.202C291.215 339.202 291.71 339.099 292.027 338.894C292.354 338.679 292.517 338.381 292.517 337.998C292.517 337.727 292.429 337.517 292.251 337.368C292.074 337.209 291.85 337.093 291.579 337.018C291.309 336.934 290.949 336.855 290.501 336.78C289.904 336.668 289.423 336.556 289.059 336.444C288.695 336.323 288.383 336.122 288.121 335.842C287.869 335.562 287.743 335.175 287.743 334.68C287.743 334.064 288 333.56 288.513 333.168C289.027 332.776 289.741 332.58 290.655 332.58C291.131 332.58 291.607 332.645 292.083 332.776C292.559 332.897 292.951 333.061 293.259 333.266L292.825 334.064C292.219 333.644 291.495 333.434 290.655 333.434C290.021 333.434 289.54 333.546 289.213 333.77C288.896 333.994 288.737 334.288 288.737 334.652C288.737 334.932 288.826 335.156 289.003 335.324C289.19 335.492 289.419 335.618 289.689 335.702C289.96 335.777 290.333 335.856 290.809 335.94C291.397 336.052 291.869 336.164 292.223 336.276C292.578 336.388 292.881 336.579 293.133 336.85C293.385 337.121 293.511 337.494 293.511 337.97C293.511 338.614 293.241 339.127 292.699 339.51C292.167 339.883 291.425 340.07 290.473 340.07Z" fill="black"/>
<path d="M185.573 37.084C184.845 37.084 184.145 36.9673 183.473 36.734C182.811 36.5007 182.297 36.1927 181.933 35.81L182.339 35.012C182.694 35.3667 183.165 35.656 183.753 35.88C184.341 36.0947 184.948 36.202 185.573 36.202C186.451 36.202 187.109 36.0433 187.547 35.726C187.986 35.3993 188.205 34.9793 188.205 34.466C188.205 34.074 188.084 33.7613 187.841 33.528C187.608 33.2947 187.319 33.1173 186.973 32.996C186.628 32.8653 186.147 32.7253 185.531 32.576C184.794 32.3893 184.206 32.212 183.767 32.044C183.329 31.8667 182.951 31.6007 182.633 31.246C182.325 30.8913 182.171 30.4107 182.171 29.804C182.171 29.3093 182.302 28.8613 182.563 28.46C182.825 28.0493 183.226 27.7227 183.767 27.48C184.309 27.2373 184.981 27.116 185.783 27.116C186.343 27.116 186.889 27.1953 187.421 27.354C187.963 27.5033 188.429 27.7133 188.821 27.984L188.471 28.81C188.061 28.5393 187.622 28.3387 187.155 28.208C186.689 28.068 186.231 27.998 185.783 27.998C184.925 27.998 184.276 28.166 183.837 28.502C183.408 28.8287 183.193 29.2533 183.193 29.776C183.193 30.168 183.31 30.4853 183.543 30.728C183.786 30.9613 184.085 31.1433 184.439 31.274C184.803 31.3953 185.289 31.5307 185.895 31.68C186.614 31.8573 187.193 32.0347 187.631 32.212C188.079 32.38 188.457 32.6413 188.765 32.996C189.073 33.3413 189.227 33.8127 189.227 34.41C189.227 34.9047 189.092 35.3573 188.821 35.768C188.56 36.1693 188.154 36.4913 187.603 36.734C187.053 36.9673 186.376 37.084 185.573 37.084ZM197.687 33.626H191.527C191.583 34.3913 191.877 35.012 192.409 35.488C192.941 35.9547 193.613 36.188 194.425 36.188C194.882 36.188 195.302 36.1087 195.685 35.95C196.067 35.782 196.399 35.5393 196.679 35.222L197.239 35.866C196.912 36.258 196.501 36.5567 196.007 36.762C195.521 36.9673 194.985 37.07 194.397 37.07C193.641 37.07 192.969 36.9113 192.381 36.594C191.802 36.2673 191.349 35.8193 191.023 35.25C190.696 34.6807 190.533 34.0367 190.533 33.318C190.533 32.5993 190.687 31.9553 190.995 31.386C191.312 30.8167 191.741 30.3733 192.283 30.056C192.833 29.7387 193.449 29.58 194.131 29.58C194.812 29.58 195.423 29.7387 195.965 30.056C196.506 30.3733 196.931 30.8167 197.239 31.386C197.547 31.946 197.701 32.59 197.701 33.318L197.687 33.626ZM194.131 30.434C193.421 30.434 192.824 30.6627 192.339 31.12C191.863 31.568 191.592 32.156 191.527 32.884H196.749C196.683 32.156 196.408 31.568 195.923 31.12C195.447 30.6627 194.849 30.434 194.131 30.434ZM200.676 31.078C200.909 30.5833 201.255 30.21 201.712 29.958C202.179 29.706 202.753 29.58 203.434 29.58V30.546L203.196 30.532C202.421 30.532 201.815 30.77 201.376 31.246C200.937 31.722 200.718 32.3893 200.718 33.248V37H199.724V29.636H200.676V31.078ZM211.736 29.636L208.46 37H207.438L204.176 29.636H205.212L207.97 35.908L210.756 29.636H211.736ZM213.136 29.636H214.13V37H213.136V29.636ZM213.64 28.026C213.435 28.026 213.262 27.956 213.122 27.816C212.982 27.676 212.912 27.508 212.912 27.312C212.912 27.1253 212.982 26.962 213.122 26.822C213.262 26.682 213.435 26.612 213.64 26.612C213.845 26.612 214.018 26.682 214.158 26.822C214.298 26.9527 214.368 27.1113 214.368 27.298C214.368 27.5033 214.298 27.676 214.158 27.816C214.018 27.956 213.845 28.026 213.64 28.026ZM219.948 37.07C219.22 37.07 218.566 36.9113 217.988 36.594C217.418 36.2767 216.97 35.8333 216.644 35.264C216.317 34.6853 216.154 34.0367 216.154 33.318C216.154 32.5993 216.317 31.9553 216.644 31.386C216.97 30.8167 217.418 30.3733 217.988 30.056C218.566 29.7387 219.22 29.58 219.948 29.58C220.582 29.58 221.147 29.706 221.642 29.958C222.146 30.2007 222.542 30.56 222.832 31.036L222.09 31.54C221.847 31.176 221.539 30.9053 221.166 30.728C220.792 30.5413 220.386 30.448 219.948 30.448C219.416 30.448 218.935 30.5693 218.506 30.812C218.086 31.0453 217.754 31.3813 217.512 31.82C217.278 32.2587 217.162 32.758 217.162 33.318C217.162 33.8873 217.278 34.3913 217.512 34.83C217.754 35.2593 218.086 35.5953 218.506 35.838C218.935 36.0713 219.416 36.188 219.948 36.188C220.386 36.188 220.792 36.0993 221.166 35.922C221.539 35.7447 221.847 35.474 222.09 35.11L222.832 35.614C222.542 36.09 222.146 36.454 221.642 36.706C221.138 36.9487 220.573 37.07 219.948 37.07ZM231.073 33.626H224.913C224.969 34.3913 225.263 35.012 225.795 35.488C226.327 35.9547 226.999 36.188 227.811 36.188C228.269 36.188 228.689 36.1087 229.071 35.95C229.454 35.782 229.785 35.5393 230.065 35.222L230.625 35.866C230.299 36.258 229.888 36.5567 229.393 36.762C228.908 36.9673 228.371 37.07 227.783 37.07C227.027 37.07 226.355 36.9113 225.767 36.594C225.189 36.2673 224.736 35.8193 224.409 35.25C224.083 34.6807 223.919 34.0367 223.919 33.318C223.919 32.5993 224.073 31.9553 224.381 31.386C224.699 30.8167 225.128 30.3733 225.669 30.056C226.22 29.7387 226.836 29.58 227.517 29.58C228.199 29.58 228.81 29.7387 229.351 30.056C229.893 30.3733 230.317 30.8167 230.625 31.386C230.933 31.946 231.087 32.59 231.087 33.318L231.073 33.626ZM227.517 30.434C226.808 30.434 226.211 30.6627 225.725 31.12C225.249 31.568 224.979 32.156 224.913 32.884H230.135C230.07 32.156 229.795 31.568 229.309 31.12C228.833 30.6627 228.236 30.434 227.517 30.434Z" fill="black"/>
<path d="M323.117 300.084C322.146 300.084 321.269 299.869 320.485 299.44C319.71 299.011 319.099 298.418 318.651 297.662C318.212 296.897 317.993 296.043 317.993 295.1C317.993 294.157 318.212 293.308 318.651 292.552C319.099 291.787 319.715 291.189 320.499 290.76C321.283 290.331 322.16 290.116 323.131 290.116C323.859 290.116 324.531 290.237 325.147 290.48C325.763 290.723 326.285 291.077 326.715 291.544L326.057 292.202C325.291 291.427 324.325 291.04 323.159 291.04C322.384 291.04 321.679 291.217 321.045 291.572C320.41 291.927 319.911 292.412 319.547 293.028C319.192 293.644 319.015 294.335 319.015 295.1C319.015 295.865 319.192 296.556 319.547 297.172C319.911 297.788 320.41 298.273 321.045 298.628C321.679 298.983 322.384 299.16 323.159 299.16C324.335 299.16 325.301 298.768 326.057 297.984L326.715 298.642C326.285 299.109 325.758 299.468 325.133 299.72C324.517 299.963 323.845 300.084 323.117 300.084ZM331.395 300.07C330.686 300.07 330.046 299.911 329.477 299.594C328.908 299.267 328.46 298.819 328.133 298.25C327.806 297.681 327.643 297.037 327.643 296.318C327.643 295.599 327.806 294.955 328.133 294.386C328.46 293.817 328.908 293.373 329.477 293.056C330.046 292.739 330.686 292.58 331.395 292.58C332.104 292.58 332.744 292.739 333.313 293.056C333.882 293.373 334.326 293.817 334.643 294.386C334.97 294.955 335.133 295.599 335.133 296.318C335.133 297.037 334.97 297.681 334.643 298.25C334.326 298.819 333.882 299.267 333.313 299.594C332.744 299.911 332.104 300.07 331.395 300.07ZM331.395 299.188C331.918 299.188 332.384 299.071 332.795 298.838C333.215 298.595 333.542 298.255 333.775 297.816C334.008 297.377 334.125 296.878 334.125 296.318C334.125 295.758 334.008 295.259 333.775 294.82C333.542 294.381 333.215 294.045 332.795 293.812C332.384 293.569 331.918 293.448 331.395 293.448C330.872 293.448 330.401 293.569 329.981 293.812C329.57 294.045 329.244 294.381 329.001 294.82C328.768 295.259 328.651 295.758 328.651 296.318C328.651 296.878 328.768 297.377 329.001 297.816C329.244 298.255 329.57 298.595 329.981 298.838C330.401 299.071 330.872 299.188 331.395 299.188ZM340.914 292.58C341.838 292.58 342.571 292.851 343.112 293.392C343.663 293.924 343.938 294.703 343.938 295.73V300H342.944V295.828C342.944 295.063 342.753 294.479 342.37 294.078C341.988 293.677 341.442 293.476 340.732 293.476C339.939 293.476 339.309 293.714 338.842 294.19C338.385 294.657 338.156 295.305 338.156 296.136V300H337.162V292.636H338.114V293.994C338.385 293.546 338.758 293.201 339.234 292.958C339.72 292.706 340.28 292.58 340.914 292.58ZM350.515 299.552C350.328 299.72 350.095 299.851 349.815 299.944C349.544 300.028 349.26 300.07 348.961 300.07C348.27 300.07 347.738 299.883 347.365 299.51C346.992 299.137 346.805 298.609 346.805 297.928V293.476H345.489V292.636H346.805V291.026H347.799V292.636H350.039V293.476H347.799V297.872C347.799 298.311 347.906 298.647 348.121 298.88C348.345 299.104 348.662 299.216 349.073 299.216C349.278 299.216 349.474 299.183 349.661 299.118C349.857 299.053 350.025 298.959 350.165 298.838L350.515 299.552ZM353.276 294.078C353.51 293.583 353.855 293.21 354.312 292.958C354.779 292.706 355.353 292.58 356.034 292.58V293.546L355.796 293.532C355.022 293.532 354.415 293.77 353.976 294.246C353.538 294.722 353.318 295.389 353.318 296.248V300H352.324V292.636H353.276V294.078ZM357.834 292.636H358.828V300H357.834V292.636ZM358.338 291.026C358.133 291.026 357.96 290.956 357.82 290.816C357.68 290.676 357.61 290.508 357.61 290.312C357.61 290.125 357.68 289.962 357.82 289.822C357.96 289.682 358.133 289.612 358.338 289.612C358.544 289.612 358.716 289.682 358.856 289.822C358.996 289.953 359.066 290.111 359.066 290.298C359.066 290.503 358.996 290.676 358.856 290.816C358.716 290.956 358.544 291.026 358.338 291.026ZM365.388 292.58C366.079 292.58 366.704 292.739 367.264 293.056C367.824 293.364 368.263 293.803 368.58 294.372C368.897 294.941 369.056 295.59 369.056 296.318C369.056 297.046 368.897 297.695 368.58 298.264C368.263 298.833 367.824 299.277 367.264 299.594C366.704 299.911 366.079 300.07 365.388 300.07C364.772 300.07 364.217 299.939 363.722 299.678C363.237 299.417 362.845 299.039 362.546 298.544V300H361.594V289.612H362.588V294.036C362.896 293.56 363.288 293.201 363.764 292.958C364.249 292.706 364.791 292.58 365.388 292.58ZM365.318 299.188C365.831 299.188 366.298 299.071 366.718 298.838C367.138 298.595 367.465 298.255 367.698 297.816C367.941 297.377 368.062 296.878 368.062 296.318C368.062 295.758 367.941 295.259 367.698 294.82C367.465 294.381 367.138 294.045 366.718 293.812C366.298 293.569 365.831 293.448 365.318 293.448C364.795 293.448 364.324 293.569 363.904 293.812C363.493 294.045 363.167 294.381 362.924 294.82C362.691 295.259 362.574 295.758 362.574 296.318C362.574 296.878 362.691 297.377 362.924 297.816C363.167 298.255 363.493 298.595 363.904 298.838C364.324 299.071 364.795 299.188 365.318 299.188ZM377.718 292.636V300H376.766V298.656C376.505 299.104 376.146 299.454 375.688 299.706C375.231 299.949 374.708 300.07 374.12 300.07C373.159 300.07 372.398 299.804 371.838 299.272C371.288 298.731 371.012 297.942 371.012 296.906V292.636H372.006V296.808C372.006 297.583 372.198 298.171 372.58 298.572C372.963 298.973 373.509 299.174 374.218 299.174C374.993 299.174 375.604 298.941 376.052 298.474C376.5 297.998 376.724 297.34 376.724 296.5V292.636H377.718ZM384.38 299.552C384.194 299.72 383.96 299.851 383.68 299.944C383.41 300.028 383.125 300.07 382.826 300.07C382.136 300.07 381.604 299.883 381.23 299.51C380.857 299.137 380.67 298.609 380.67 297.928V293.476H379.354V292.636H380.67V291.026H381.664V292.636H383.904V293.476H381.664V297.872C381.664 298.311 381.772 298.647 381.986 298.88C382.21 299.104 382.528 299.216 382.938 299.216C383.144 299.216 383.34 299.183 383.526 299.118C383.722 299.053 383.89 298.959 384.03 298.838L384.38 299.552ZM388.94 300.07C388.231 300.07 387.591 299.911 387.022 299.594C386.453 299.267 386.005 298.819 385.678 298.25C385.351 297.681 385.188 297.037 385.188 296.318C385.188 295.599 385.351 294.955 385.678 294.386C386.005 293.817 386.453 293.373 387.022 293.056C387.591 292.739 388.231 292.58 388.94 292.58C389.649 292.58 390.289 292.739 390.858 293.056C391.427 293.373 391.871 293.817 392.188 294.386C392.515 294.955 392.678 295.599 392.678 296.318C392.678 297.037 392.515 297.681 392.188 298.25C391.871 298.819 391.427 299.267 390.858 299.594C390.289 299.911 389.649 300.07 388.94 300.07ZM388.94 299.188C389.463 299.188 389.929 299.071 390.34 298.838C390.76 298.595 391.087 298.255 391.32 297.816C391.553 297.377 391.67 296.878 391.67 296.318C391.67 295.758 391.553 295.259 391.32 294.82C391.087 294.381 390.76 294.045 390.34 293.812C389.929 293.569 389.463 293.448 388.94 293.448C388.417 293.448 387.946 293.569 387.526 293.812C387.115 294.045 386.789 294.381 386.546 294.82C386.313 295.259 386.196 295.758 386.196 296.318C386.196 296.878 386.313 297.377 386.546 297.816C386.789 298.255 387.115 298.595 387.526 298.838C387.946 299.071 388.417 299.188 388.94 299.188ZM395.659 294.078C395.893 293.583 396.238 293.21 396.695 292.958C397.162 292.706 397.736 292.58 398.417 292.58V293.546L398.179 293.532C397.405 293.532 396.798 293.77 396.359 294.246C395.921 294.722 395.701 295.389 395.701 296.248V300H394.707V292.636H395.659V294.078ZM402.246 300.07C401.648 300.07 401.074 299.986 400.524 299.818C399.982 299.641 399.558 299.421 399.25 299.16L399.698 298.376C400.006 298.619 400.393 298.819 400.86 298.978C401.326 299.127 401.812 299.202 402.316 299.202C402.988 299.202 403.482 299.099 403.8 298.894C404.126 298.679 404.29 298.381 404.29 297.998C404.29 297.727 404.201 297.517 404.024 297.368C403.846 297.209 403.622 297.093 403.352 297.018C403.081 296.934 402.722 296.855 402.274 296.78C401.676 296.668 401.196 296.556 400.832 296.444C400.468 296.323 400.155 296.122 399.894 295.842C399.642 295.562 399.516 295.175 399.516 294.68C399.516 294.064 399.772 293.56 400.286 293.168C400.799 292.776 401.513 292.58 402.428 292.58C402.904 292.58 403.38 292.645 403.856 292.776C404.332 292.897 404.724 293.061 405.032 293.266L404.598 294.064C403.991 293.644 403.268 293.434 402.428 293.434C401.793 293.434 401.312 293.546 400.986 293.77C400.668 293.994 400.51 294.288 400.51 294.652C400.51 294.932 400.598 295.156 400.776 295.324C400.962 295.492 401.191 295.618 401.462 295.702C401.732 295.777 402.106 295.856 402.582 295.94C403.17 296.052 403.641 296.164 403.996 296.276C404.35 296.388 404.654 296.579 404.906 296.85C405.158 297.121 405.284 297.494 405.284 297.97C405.284 298.614 405.013 299.127 404.472 299.51C403.94 299.883 403.198 300.07 402.246 300.07Z" fill="black"/>
<path d="M326.504 377.1H327.498V380.838C327.041 381.239 326.499 381.547 325.874 381.762C325.249 381.977 324.591 382.084 323.9 382.084C322.92 382.084 322.038 381.869 321.254 381.44C320.47 381.011 319.854 380.418 319.406 379.662C318.958 378.897 318.734 378.043 318.734 377.1C318.734 376.157 318.958 375.308 319.406 374.552C319.854 373.787 320.47 373.189 321.254 372.76C322.038 372.331 322.925 372.116 323.914 372.116C324.661 372.116 325.347 372.237 325.972 372.48C326.597 372.713 327.125 373.063 327.554 373.53L326.91 374.188C326.135 373.423 325.151 373.04 323.956 373.04C323.163 373.04 322.444 373.217 321.8 373.572C321.165 373.917 320.666 374.403 320.302 375.028C319.938 375.644 319.756 376.335 319.756 377.1C319.756 377.865 319.938 378.556 320.302 379.172C320.666 379.788 321.165 380.273 321.8 380.628C322.435 380.983 323.149 381.16 323.942 381.16C324.95 381.16 325.804 380.908 326.504 380.404V377.1ZM333.23 382.07C332.521 382.07 331.881 381.911 331.312 381.594C330.743 381.267 330.295 380.819 329.968 380.25C329.641 379.681 329.478 379.037 329.478 378.318C329.478 377.599 329.641 376.955 329.968 376.386C330.295 375.817 330.743 375.373 331.312 375.056C331.881 374.739 332.521 374.58 333.23 374.58C333.939 374.58 334.579 374.739 335.148 375.056C335.717 375.373 336.161 375.817 336.478 376.386C336.805 376.955 336.968 377.599 336.968 378.318C336.968 379.037 336.805 379.681 336.478 380.25C336.161 380.819 335.717 381.267 335.148 381.594C334.579 381.911 333.939 382.07 333.23 382.07ZM333.23 381.188C333.753 381.188 334.219 381.071 334.63 380.838C335.05 380.595 335.377 380.255 335.61 379.816C335.843 379.377 335.96 378.878 335.96 378.318C335.96 377.758 335.843 377.259 335.61 376.82C335.377 376.381 335.05 376.045 334.63 375.812C334.219 375.569 333.753 375.448 333.23 375.448C332.707 375.448 332.236 375.569 331.816 375.812C331.405 376.045 331.079 376.381 330.836 376.82C330.603 377.259 330.486 377.758 330.486 378.318C330.486 378.878 330.603 379.377 330.836 379.816C331.079 380.255 331.405 380.595 331.816 380.838C332.236 381.071 332.707 381.188 333.23 381.188ZM344.98 374.636L341.704 382H340.682L337.42 374.636H338.456L341.214 380.908L344 374.636H344.98Z" fill="black"/>
<path d="M17.6644 173.2H18.7004V183H17.6644V173.2ZM25.431 175.58C26.355 175.58 27.0876 175.851 27.629 176.392C28.1796 176.924 28.455 177.703 28.455 178.73V183H27.461V178.828C27.461 178.063 27.2696 177.479 26.887 177.078C26.5043 176.677 25.9583 176.476 25.249 176.476C24.4556 176.476 23.8256 176.714 23.359 177.19C22.9016 177.657 22.673 178.305 22.673 179.136V183H21.679V175.636H22.631V176.994C22.9016 176.546 23.275 176.201 23.751 175.958C24.2363 175.706 24.7963 175.58 25.431 175.58ZM37.2049 175.636L33.9289 183H32.9069L29.6449 175.636H30.6809L33.4389 181.908L36.2249 175.636H37.2049ZM44.8117 179.626H38.6517C38.7077 180.391 39.0017 181.012 39.5337 181.488C40.0657 181.955 40.7377 182.188 41.5497 182.188C42.007 182.188 42.427 182.109 42.8097 181.95C43.1923 181.782 43.5237 181.539 43.8037 181.222L44.3637 181.866C44.037 182.258 43.6263 182.557 43.1317 182.762C42.6463 182.967 42.1097 183.07 41.5217 183.07C40.7657 183.07 40.0937 182.911 39.5057 182.594C38.927 182.267 38.4743 181.819 38.1477 181.25C37.821 180.681 37.6577 180.037 37.6577 179.318C37.6577 178.599 37.8117 177.955 38.1197 177.386C38.437 176.817 38.8663 176.373 39.4077 176.056C39.9583 175.739 40.5743 175.58 41.2557 175.58C41.937 175.58 42.5483 175.739 43.0897 176.056C43.631 176.373 44.0557 176.817 44.3637 177.386C44.6717 177.946 44.8257 178.59 44.8257 179.318L44.8117 179.626ZM41.2557 176.434C40.5463 176.434 39.949 176.663 39.4637 177.12C38.9877 177.568 38.717 178.156 38.6517 178.884H43.8737C43.8083 178.156 43.533 177.568 43.0477 177.12C42.5717 176.663 41.9743 176.434 41.2557 176.434ZM48.8229 183.07C48.2256 183.07 47.6516 182.986 47.1009 182.818C46.5596 182.641 46.1349 182.421 45.8269 182.16L46.2749 181.376C46.5829 181.619 46.9702 181.819 47.4369 181.978C47.9036 182.127 48.3889 182.202 48.8929 182.202C49.5649 182.202 50.0596 182.099 50.3769 181.894C50.7036 181.679 50.8669 181.381 50.8669 180.998C50.8669 180.727 50.7782 180.517 50.6009 180.368C50.4236 180.209 50.1996 180.093 49.9289 180.018C49.6582 179.934 49.2989 179.855 48.8509 179.78C48.2536 179.668 47.7729 179.556 47.4089 179.444C47.0449 179.323 46.7322 179.122 46.4709 178.842C46.2189 178.562 46.0929 178.175 46.0929 177.68C46.0929 177.064 46.3496 176.56 46.8629 176.168C47.3762 175.776 48.0902 175.58 49.0049 175.58C49.4809 175.58 49.9569 175.645 50.4329 175.776C50.9089 175.897 51.3009 176.061 51.6089 176.266L51.1749 177.064C50.5682 176.644 49.8449 176.434 49.0049 176.434C48.3702 176.434 47.8896 176.546 47.5629 176.77C47.2456 176.994 47.0869 177.288 47.0869 177.652C47.0869 177.932 47.1756 178.156 47.3529 178.324C47.5396 178.492 47.7682 178.618 48.0389 178.702C48.3096 178.777 48.6829 178.856 49.1589 178.94C49.7469 179.052 50.2182 179.164 50.5729 179.276C50.9276 179.388 51.2309 179.579 51.4829 179.85C51.7349 180.121 51.8609 180.494 51.8609 180.97C51.8609 181.614 51.5902 182.127 51.0489 182.51C50.5169 182.883 49.7749 183.07 48.8229 183.07ZM57.5765 182.552C57.3898 182.72 57.1565 182.851 56.8765 182.944C56.6058 183.028 56.3212 183.07 56.0225 183.07C55.3318 183.07 54.7998 182.883 54.4265 182.51C54.0532 182.137 53.8665 181.609 53.8665 180.928V176.476H52.5505V175.636H53.8665V174.026H54.8605V175.636H57.1005V176.476H54.8605V180.872C54.8605 181.311 54.9678 181.647 55.1825 181.88C55.4065 182.104 55.7238 182.216 56.1345 182.216C56.3398 182.216 56.5358 182.183 56.7225 182.118C56.9185 182.053 57.0865 181.959 57.2265 181.838L57.5765 182.552ZM62.1362 183.07C61.4269 183.07 60.7876 182.911 60.2182 182.594C59.6489 182.267 59.2009 181.819 58.8742 181.25C58.5476 180.681 58.3842 180.037 58.3842 179.318C58.3842 178.599 58.5476 177.955 58.8742 177.386C59.2009 176.817 59.6489 176.373 60.2182 176.056C60.7876 175.739 61.4269 175.58 62.1362 175.58C62.8456 175.58 63.4849 175.739 64.0542 176.056C64.6236 176.373 65.0669 176.817 65.3842 177.386C65.7109 177.955 65.8742 178.599 65.8742 179.318C65.8742 180.037 65.7109 180.681 65.3842 181.25C65.0669 181.819 64.6236 182.267 64.0542 182.594C63.4849 182.911 62.8456 183.07 62.1362 183.07ZM62.1362 182.188C62.6589 182.188 63.1256 182.071 63.5362 181.838C63.9562 181.595 64.2829 181.255 64.5162 180.816C64.7496 180.377 64.8662 179.878 64.8662 179.318C64.8662 178.758 64.7496 178.259 64.5162 177.82C64.2829 177.381 63.9562 177.045 63.5362 176.812C63.1256 176.569 62.6589 176.448 62.1362 176.448C61.6136 176.448 61.1422 176.569 60.7222 176.812C60.3116 177.045 59.9849 177.381 59.7422 177.82C59.5089 178.259 59.3922 178.758 59.3922 179.318C59.3922 179.878 59.5089 180.377 59.7422 180.816C59.9849 181.255 60.3116 181.595 60.7222 181.838C61.1422 182.071 61.6136 182.188 62.1362 182.188ZM68.8556 177.078C69.0889 176.583 69.4342 176.21 69.8916 175.958C70.3582 175.706 70.9322 175.58 71.6136 175.58V176.546L71.3756 176.532C70.6009 176.532 69.9942 176.77 69.5556 177.246C69.1169 177.722 68.8976 178.389 68.8976 179.248V183H67.9036V175.636H68.8556V177.078ZM75.442 183.07C74.8447 183.07 74.2707 182.986 73.72 182.818C73.1787 182.641 72.754 182.421 72.446 182.16L72.894 181.376C73.202 181.619 73.5894 181.819 74.056 181.978C74.5227 182.127 75.008 182.202 75.512 182.202C76.184 182.202 76.6787 182.099 76.996 181.894C77.3227 181.679 77.486 181.381 77.486 180.998C77.486 180.727 77.3974 180.517 77.22 180.368C77.0427 180.209 76.8187 180.093 76.548 180.018C76.2774 179.934 75.918 179.855 75.47 179.78C74.8727 179.668 74.392 179.556 74.028 179.444C73.664 179.323 73.3514 179.122 73.09 178.842C72.838 178.562 72.712 178.175 72.712 177.68C72.712 177.064 72.9687 176.56 73.482 176.168C73.9954 175.776 74.7094 175.58 75.624 175.58C76.1 175.58 76.576 175.645 77.052 175.776C77.528 175.897 77.92 176.061 78.228 176.266L77.794 177.064C77.1874 176.644 76.464 176.434 75.624 176.434C74.9894 176.434 74.5087 176.546 74.182 176.77C73.8647 176.994 73.706 177.288 73.706 177.652C73.706 177.932 73.7947 178.156 73.972 178.324C74.1587 178.492 74.3874 178.618 74.658 178.702C74.9287 178.777 75.302 178.856 75.778 178.94C76.366 179.052 76.8374 179.164 77.192 179.276C77.5467 179.388 77.85 179.579 78.102 179.85C78.354 180.121 78.48 180.494 78.48 180.97C78.48 181.614 78.2094 182.127 77.668 182.51C77.136 182.883 76.394 183.07 75.442 183.07ZM51.4274 208.154L50.0694 206.754C49.2387 207.641 48.1467 208.084 46.7934 208.084C46.1587 208.084 45.5894 207.981 45.0854 207.776C44.5907 207.561 44.2034 207.267 43.9234 206.894C43.6434 206.511 43.5034 206.077 43.5034 205.592C43.5034 205.004 43.69 204.477 44.0634 204.01C44.4367 203.543 45.0714 203.053 45.9674 202.54C45.5007 202.055 45.1787 201.644 45.0014 201.308C44.824 200.963 44.7354 200.599 44.7354 200.216C44.7354 199.591 44.9594 199.087 45.4074 198.704C45.8554 198.321 46.4574 198.13 47.2134 198.13C47.9134 198.13 48.4687 198.303 48.8794 198.648C49.29 198.993 49.4954 199.469 49.4954 200.076C49.4954 200.561 49.332 201 49.0054 201.392C48.6787 201.775 48.114 202.199 47.3114 202.666L49.9994 205.438C50.298 204.906 50.5174 204.276 50.6574 203.548L51.4694 203.8C51.292 204.677 51.0027 205.429 50.6014 206.054L52.0014 207.496L51.4274 208.154ZM47.2134 198.872C46.728 198.872 46.3454 198.993 46.0654 199.236C45.7947 199.479 45.6594 199.801 45.6594 200.202C45.6594 200.491 45.734 200.767 45.8834 201.028C46.0327 201.289 46.3267 201.644 46.7654 202.092C47.4747 201.681 47.9647 201.331 48.2354 201.042C48.506 200.753 48.6414 200.435 48.6414 200.09C48.6414 199.717 48.5154 199.423 48.2634 199.208C48.0114 198.984 47.6614 198.872 47.2134 198.872ZM46.8494 207.258C47.932 207.258 48.8094 206.889 49.4814 206.152L46.5274 203.114C45.7527 203.553 45.216 203.949 44.9174 204.304C44.628 204.659 44.4834 205.055 44.4834 205.494C44.4834 206.026 44.698 206.455 45.1274 206.782C45.566 207.099 46.14 207.258 46.8494 207.258ZM24.3949 223.2C25.6455 223.2 26.6255 223.499 27.3349 224.096C28.0442 224.693 28.3989 225.515 28.3989 226.56C28.3989 227.605 28.0442 228.427 27.3349 229.024C26.6255 229.612 25.6455 229.906 24.3949 229.906H21.7629V233H20.7269V223.2H24.3949ZM24.3669 228.996C25.3375 228.996 26.0795 228.786 26.5929 228.366C27.1062 227.937 27.3629 227.335 27.3629 226.56C27.3629 225.767 27.1062 225.16 26.5929 224.74C26.0795 224.311 25.3375 224.096 24.3669 224.096H21.7629V228.996H24.3669ZM31.1896 227.078C31.4229 226.583 31.7682 226.21 32.2256 225.958C32.6922 225.706 33.2662 225.58 33.9476 225.58V226.546L33.7096 226.532C32.9349 226.532 32.3282 226.77 31.8896 227.246C31.4509 227.722 31.2316 228.389 31.2316 229.248V233H30.2376V225.636H31.1896V227.078ZM38.689 233.07C37.9796 233.07 37.3403 232.911 36.771 232.594C36.2016 232.267 35.7536 231.819 35.427 231.25C35.1003 230.681 34.937 230.037 34.937 229.318C34.937 228.599 35.1003 227.955 35.427 227.386C35.7536 226.817 36.2016 226.373 36.771 226.056C37.3403 225.739 37.9796 225.58 38.689 225.58C39.3983 225.58 40.0376 225.739 40.607 226.056C41.1763 226.373 41.6196 226.817 41.937 227.386C42.2636 227.955 42.427 228.599 42.427 229.318C42.427 230.037 42.2636 230.681 41.937 231.25C41.6196 231.819 41.1763 232.267 40.607 232.594C40.0376 232.911 39.3983 233.07 38.689 233.07ZM38.689 232.188C39.2116 232.188 39.6783 232.071 40.089 231.838C40.509 231.595 40.8356 231.255 41.069 230.816C41.3023 230.377 41.419 229.878 41.419 229.318C41.419 228.758 41.3023 228.259 41.069 227.82C40.8356 227.381 40.509 227.045 40.089 226.812C39.6783 226.569 39.2116 226.448 38.689 226.448C38.1663 226.448 37.695 226.569 37.275 226.812C36.8643 227.045 36.5376 227.381 36.295 227.82C36.0616 228.259 35.945 228.758 35.945 229.318C35.945 229.878 36.0616 230.377 36.295 230.816C36.5376 231.255 36.8643 231.595 37.275 231.838C37.695 232.071 38.1663 232.188 38.689 232.188ZM43.3643 235.786C43.0563 235.786 42.767 235.744 42.4963 235.66C42.2163 235.585 41.9876 235.469 41.8103 235.31L42.1603 234.554C42.4496 234.806 42.8323 234.932 43.3083 234.932C43.7003 234.932 43.999 234.815 44.2043 234.582C44.419 234.349 44.5263 234.003 44.5263 233.546V225.636H45.5203V233.546C45.5203 234.237 45.3336 234.783 44.9603 235.184C44.587 235.585 44.055 235.786 43.3643 235.786ZM45.0303 224.012C44.825 224.012 44.6523 223.942 44.5123 223.802C44.3723 223.662 44.3023 223.494 44.3023 223.298C44.3023 223.111 44.3723 222.948 44.5123 222.808C44.6523 222.668 44.825 222.598 45.0303 222.598C45.2356 222.598 45.4083 222.668 45.5483 222.808C45.6883 222.939 45.7583 223.097 45.7583 223.284C45.7583 223.489 45.6883 223.662 45.5483 223.802C45.4083 223.942 45.2356 224.012 45.0303 224.012ZM54.7101 229.626H48.5501C48.6061 230.391 48.9001 231.012 49.4321 231.488C49.9641 231.955 50.6361 232.188 51.4481 232.188C51.9054 232.188 52.3254 232.109 52.7081 231.95C53.0908 231.782 53.4221 231.539 53.7021 231.222L54.2621 231.866C53.9354 232.258 53.5248 232.557 53.0301 232.762C52.5448 232.967 52.0081 233.07 51.4201 233.07C50.6641 233.07 49.9921 232.911 49.4041 232.594C48.8254 232.267 48.3728 231.819 48.0461 231.25C47.7194 230.681 47.5561 230.037 47.5561 229.318C47.5561 228.599 47.7101 227.955 48.0181 227.386C48.3354 226.817 48.7648 226.373 49.3061 226.056C49.8568 225.739 50.4728 225.58 51.1541 225.58C51.8354 225.58 52.4468 225.739 52.9881 226.056C53.5294 226.373 53.9541 226.817 54.2621 227.386C54.5701 227.946 54.7241 228.59 54.7241 229.318L54.7101 229.626ZM51.1541 226.434C50.4448 226.434 49.8474 226.663 49.3621 227.12C48.8861 227.568 48.6154 228.156 48.5501 228.884H53.7721C53.7068 228.156 53.4314 227.568 52.9461 227.12C52.4701 226.663 51.8728 226.434 51.1541 226.434ZM59.7993 233.07C59.0713 233.07 58.418 232.911 57.8393 232.594C57.27 232.277 56.822 231.833 56.4953 231.264C56.1687 230.685 56.0053 230.037 56.0053 229.318C56.0053 228.599 56.1687 227.955 56.4953 227.386C56.822 226.817 57.27 226.373 57.8393 226.056C58.418 225.739 59.0713 225.58 59.7993 225.58C60.434 225.58 60.9987 225.706 61.4933 225.958C61.9973 226.201 62.394 226.56 62.6833 227.036L61.9413 227.54C61.6987 227.176 61.3907 226.905 61.0173 226.728C60.644 226.541 60.238 226.448 59.7993 226.448C59.2673 226.448 58.7867 226.569 58.3573 226.812C57.9373 227.045 57.606 227.381 57.3633 227.82C57.13 228.259 57.0133 228.758 57.0133 229.318C57.0133 229.887 57.13 230.391 57.3633 230.83C57.606 231.259 57.9373 231.595 58.3573 231.838C58.7867 232.071 59.2673 232.188 59.7993 232.188C60.238 232.188 60.644 232.099 61.0173 231.922C61.3907 231.745 61.6987 231.474 61.9413 231.11L62.6833 231.614C62.394 232.09 61.9973 232.454 61.4933 232.706C60.9893 232.949 60.4247 233.07 59.7993 233.07ZM68.596 232.552C68.4094 232.72 68.176 232.851 67.896 232.944C67.6254 233.028 67.3407 233.07 67.042 233.07C66.3514 233.07 65.8194 232.883 65.446 232.51C65.0727 232.137 64.886 231.609 64.886 230.928V226.476H63.57V225.636H64.886V224.026H65.88V225.636H68.12V226.476H65.88V230.872C65.88 231.311 65.9874 231.647 66.202 231.88C66.426 232.104 66.7434 232.216 67.154 232.216C67.3594 232.216 67.5554 232.183 67.742 232.118C67.938 232.053 68.106 231.959 68.246 231.838L68.596 232.552ZM72.3795 233.07C71.7822 233.07 71.2082 232.986 70.6575 232.818C70.1162 232.641 69.6915 232.421 69.3835 232.16L69.8315 231.376C70.1395 231.619 70.5269 231.819 70.9935 231.978C71.4602 232.127 71.9455 232.202 72.4495 232.202C73.1215 232.202 73.6162 232.099 73.9335 231.894C74.2602 231.679 74.4235 231.381 74.4235 230.998C74.4235 230.727 74.3349 230.517 74.1575 230.368C73.9802 230.209 73.7562 230.093 73.4855 230.018C73.2149 229.934 72.8555 229.855 72.4075 229.78C71.8102 229.668 71.3295 229.556 70.9655 229.444C70.6015 229.323 70.2889 229.122 70.0275 228.842C69.7755 228.562 69.6495 228.175 69.6495 227.68C69.6495 227.064 69.9062 226.56 70.4195 226.168C70.9329 225.776 71.6469 225.58 72.5615 225.58C73.0375 225.58 73.5135 225.645 73.9895 225.776C74.4655 225.897 74.8575 226.061 75.1655 226.266L74.7315 227.064C74.1249 226.644 73.4015 226.434 72.5615 226.434C71.9269 226.434 71.4462 226.546 71.1195 226.77C70.8022 226.994 70.6435 227.288 70.6435 227.652C70.6435 227.932 70.7322 228.156 70.9095 228.324C71.0962 228.492 71.3249 228.618 71.5955 228.702C71.8662 228.777 72.2395 228.856 72.7155 228.94C73.3035 229.052 73.7749 229.164 74.1295 229.276C74.4842 229.388 74.7875 229.579 75.0395 229.85C75.2915 230.121 75.4175 230.494 75.4175 230.97C75.4175 231.614 75.1469 232.127 74.6055 232.51C74.0735 232.883 73.3315 233.07 72.3795 233.07Z" fill="black"/>
<g filter="url(#filter6_d_318_856)">
<circle cx="331.5" cy="376.5" r="26" stroke="url(#paint6_linear_318_856)" shape-rendering="crispEdges"/>
</g>
<g filter="url(#filter7_d_318_856)">
<circle cx="262.5" cy="322.5" r="51" stroke="url(#paint7_linear_318_856)" shape-rendering="crispEdges"/>
</g>
<g filter="url(#filter8_d_318_856)">
<circle cx="206.5" cy="56.5" r="51" stroke="url(#paint8_linear_318_856)" shape-rendering="crispEdges"/>
</g>
<defs>
<filter id="filter0_d_318_856" x="23" y="0" width="502" height="501" filterUnits="userSpaceOnUse" color-interpolation-filters="sRGB">
<feFlood flood-opacity="0" result="BackgroundImageFix"/>
<feColorMatrix in="SourceAlpha" type="matrix" values="0 0 0 0 0 0 0 0 0 0 0 0 0 0 0 0 0 0 127 0" result="hardAlpha"/>
<feOffset dy="18"/>
<feGaussianBlur stdDeviation="30"/>
<feComposite in2="hardAlpha" operator="out"/>
<feColorMatrix type="matrix" values="0 0 0 0 0 0 0 0 0 0 0 0 0 0 0 0 0 0 0.25 0"/>
<feBlend mode="normal" in2="BackgroundImageFix" result="effect1_dropShadow_318_856"/>
<feBlend mode="normal" in="SourceGraphic" in2="effect1_dropShadow_318_856" result="shape"/>
</filter>
<filter id="filter1_d_318_856" x="293" y="1" width="254" height="254" filterUnits="userSpaceOnUse" color-interpolation-filters="sRGB">
<feFlood flood-opacity="0" result="BackgroundImageFix"/>
<feColorMatrix in="SourceAlpha" type="matrix" values="0 0 0 0 0 0 0 0 0 0 0 0 0 0 0 0 0 0 127 0" result="hardAlpha"/>
<feOffset dy="4"/>
<feGaussianBlur stdDeviation="2"/>
<feComposite in2="hardAlpha" operator="out"/>
<feColorMatrix type="matrix" values="0 0 0 0 0 0 0 0 0 0 0 0 0 0 0 0 0 0 0.25 0"/>
<feBlend mode="normal" in2="BackgroundImageFix" result="effect1_dropShadow_318_856"/>
<feBlend mode="normal" in="SourceGraphic" in2="effect1_dropShadow_318_856" result="shape"/>
</filter>
<filter id="filter2_d_318_856" x="0" y="126" width="166" height="165" filterUnits="userSpaceOnUse" color-interpolation-filters="sRGB">
<feFlood flood-opacity="0" result="BackgroundImageFix"/>
<feColorMatrix in="SourceAlpha" type="matrix" values="0 0 0 0 0 0 0 0 0 0 0 0 0 0 0 0 0 0 127 0" result="hardAlpha"/>
<feOffset dy="4"/>
<feGaussianBlur stdDeviation="2"/>
<feComposite in2="hardAlpha" operator="out"/>
<feColorMatrix type="matrix" values="0 0 0 0 0 0 0 0 0 0 0 0 0 0 0 0 0 0 0.25 0"/>
<feBlend mode="normal" in2="BackgroundImageFix" result="effect1_dropShadow_318_856"/>
<feBlend mode="normal" in="SourceGraphic" in2="effect1_dropShadow_318_856" result="shape"/>
</filter>
<filter id="filter3_d_318_856" x="129" y="91" width="211" height="212" filterUnits="userSpaceOnUse" color-interpolation-filters="sRGB">
<feFlood flood-opacity="0" result="BackgroundImageFix"/>
<feColorMatrix in="SourceAlpha" type="matrix" values="0 0 0 0 0 0 0 0 0 0 0 0 0 0 0 0 0 0 127 0" result="hardAlpha"/>
<feOffset dy="4"/>
<feGaussianBlur stdDeviation="2"/>
<feComposite in2="hardAlpha" operator="out"/>
<feColorMatrix type="matrix" values="0 0 0 0 0 0 0 0 0 0 0 0 0 0 0 0 0 0 0.25 0"/>
<feBlend mode="normal" in2="BackgroundImageFix" result="effect1_dropShadow_318_856"/>
<feBlend mode="normal" in="SourceGraphic" in2="effect1_dropShadow_318_856" result="shape"/>
</filter>
<filter id="filter4_d_318_856" x="285" y="216" width="153" height="153" filterUnits="userSpaceOnUse" color-interpolation-filters="sRGB">
<feFlood flood-opacity="0" result="BackgroundImageFix"/>
<feColorMatrix in="SourceAlpha" type="matrix" values="0 0 0 0 0 0 0 0 0 0 0 0 0 0 0 0 0 0 127 0" result="hardAlpha"/>
<feOffset dy="4"/>
<feGaussianBlur stdDeviation="2"/>
<feComposite in2="hardAlpha" operator="out"/>
<feColorMatrix type="matrix" values="0 0 0 0 0 0 0 0 0 0 0 0 0 0 0 0 0 0 0.25 0"/>
<feBlend mode="normal" in2="BackgroundImageFix" result="effect1_dropShadow_318_856"/>
<feBlend mode="normal" in="SourceGraphic" in2="effect1_dropShadow_318_856" result="shape"/>
</filter>
<filter id="filter5_d_318_856" x="407" y="267" width="153" height="153" filterUnits="userSpaceOnUse" color-interpolation-filters="sRGB">
<feFlood flood-opacity="0" result="BackgroundImageFix"/>
<feColorMatrix in="SourceAlpha" type="matrix" values="0 0 0 0 0 0 0 0 0 0 0 0 0 0 0 0 0 0 127 0" result="hardAlpha"/>
<feOffset dy="4"/>
<feGaussianBlur stdDeviation="2"/>
<feComposite in2="hardAlpha" operator="out"/>
<feColorMatrix type="matrix" values="0 0 0 0 0 0 0 0 0 0 0 0 0 0 0 0 0 0 0.25 0"/>
<feBlend mode="normal" in2="BackgroundImageFix" result="effect1_dropShadow_318_856"/>
<feBlend mode="normal" in="SourceGraphic" in2="effect1_dropShadow_318_856" result="shape"/>
</filter>
<filter id="filter6_d_318_856" x="301" y="350" width="61" height="61" filterUnits="userSpaceOnUse" color-interpolation-filters="sRGB">
<feFlood flood-opacity="0" result="BackgroundImageFix"/>
<feColorMatrix in="SourceAlpha" type="matrix" values="0 0 0 0 0 0 0 0 0 0 0 0 0 0 0 0 0 0 127 0" result="hardAlpha"/>
<feOffset dy="4"/>
<feGaussianBlur stdDeviation="2"/>
<feComposite in2="hardAlpha" operator="out"/>
<feColorMatrix type="matrix" values="0 0 0 0 0 0 0 0 0 0 0 0 0 0 0 0 0 0 0.25 0"/>
<feBlend mode="normal" in2="BackgroundImageFix" result="effect1_dropShadow_318_856"/>
<feBlend mode="normal" in="SourceGraphic" in2="effect1_dropShadow_318_856" result="shape"/>
</filter>
<filter id="filter7_d_318_856" x="207" y="271" width="111" height="111" filterUnits="userSpaceOnUse" color-interpolation-filters="sRGB">
<feFlood flood-opacity="0" result="BackgroundImageFix"/>
<feColorMatrix in="SourceAlpha" type="matrix" values="0 0 0 0 0 0 0 0 0 0 0 0 0 0 0 0 0 0 127 0" result="hardAlpha"/>
<feOffset dy="4"/>
<feGaussianBlur stdDeviation="2"/>
<feComposite in2="hardAlpha" operator="out"/>
<feColorMatrix type="matrix" values="0 0 0 0 0 0 0 0 0 0 0 0 0 0 0 0 0 0 0.25 0"/>
<feBlend mode="normal" in2="BackgroundImageFix" result="effect1_dropShadow_318_856"/>
<feBlend mode="normal" in="SourceGraphic" in2="effect1_dropShadow_318_856" result="shape"/>
</filter>
<filter id="filter8_d_318_856" x="151" y="5" width="111" height="111" filterUnits="userSpaceOnUse" color-interpolation-filters="sRGB">
<feFlood flood-opacity="0" result="BackgroundImageFix"/>
<feColorMatrix in="SourceAlpha" type="matrix" values="0 0 0 0 0 0 0 0 0 0 0 0 0 0 0 0 0 0 127 0" result="hardAlpha"/>
<feOffset dy="4"/>
<feGaussianBlur stdDeviation="2"/>
<feComposite in2="hardAlpha" operator="out"/>
<feColorMatrix type="matrix" values="0 0 0 0 0 0 0 0 0 0 0 0 0 0 0 0 0 0 0.25 0"/>
<feBlend mode="normal" in2="BackgroundImageFix" result="effect1_dropShadow_318_856"/>
<feBlend mode="normal" in="SourceGraphic" in2="effect1_dropShadow_318_856" result="shape"/>
</filter>
<linearGradient id="paint0_linear_318_856" x1="109.882" y1="-30.7364" x2="563.185" y2="114.843" gradientUnits="userSpaceOnUse">
<stop stop-color="#775FAF"/>
<stop offset="1" stop-color="#FFD390"/>
</linearGradient>
<linearGradient id="paint1_linear_318_856" x1="314.311" y1="-45.9637" x2="606.372" y2="47.5865" gradientUnits="userSpaceOnUse">
<stop stop-color="#FF96D5"/>
<stop offset="1" stop-color="#FFD390"/>
</linearGradient>
<linearGradient id="paint2_linear_318_856" x1="15.1185" y1="96.0272" x2="202.48" y2="156.423" gradientUnits="userSpaceOnUse">
<stop stop-color="#FF96D5"/>
<stop offset="1" stop-color="#FFD390"/>
</linearGradient>
<linearGradient id="paint3_linear_318_856" x1="147.285" y1="52.0545" x2="388.514" y2="128.944" gradientUnits="userSpaceOnUse">
<stop stop-color="#FF96D5"/>
<stop offset="1" stop-color="#FFD390"/>
</linearGradient>
<linearGradient id="paint4_linear_318_856" x1="299.204" y1="188.318" x2="471.353" y2="243.46" gradientUnits="userSpaceOnUse">
<stop stop-color="#FF96D5"/>
<stop offset="1" stop-color="#FFD390"/>
</linearGradient>
<linearGradient id="paint5_linear_318_856" x1="421.204" y1="239.318" x2="593.353" y2="294.46" gradientUnits="userSpaceOnUse">
<stop stop-color="#FF96D5"/>
<stop offset="1" stop-color="#FFD390"/>
</linearGradient>
<linearGradient id="paint6_linear_318_856" x1="308.73" y1="339.882" x2="371.653" y2="360.037" gradientUnits="userSpaceOnUse">
<stop stop-color="#FF96D5"/>
<stop offset="1" stop-color="#FFD390"/>
</linearGradient>
<linearGradient id="paint7_linear_318_856" x1="218.248" y1="251.336" x2="340.534" y2="290.506" gradientUnits="userSpaceOnUse">
<stop stop-color="#FF96D5"/>
<stop offset="1" stop-color="#FFD390"/>
</linearGradient>
<linearGradient id="paint8_linear_318_856" x1="162.248" y1="-14.6637" x2="284.534" y2="24.5057" gradientUnits="userSpaceOnUse">
<stop stop-color="#FF96D5"/>
<stop offset="1" stop-color="#FFD390"/>
</linearGradient>
</defs>
</svg>
