<svg width="50" height="50" viewBox="0 0 50 50" fill="none" xmlns="http://www.w3.org/2000/svg">
<circle cx="25" cy="25" r="25" fill="url(#paint0_linear_72_648)"/>
<path d="M20.7573 19.3431C20.3668 18.9526 19.7337 18.9526 19.3431 19.3431C18.9526 19.7337 18.9526 20.3668 19.3431 20.7574L23.5857 24.9999L19.3431 29.2426C18.9525 29.6331 18.9525 30.2663 19.3431 30.6568C19.7336 31.0473 20.3668 31.0473 20.7573 30.6568L24.9999 26.4141L29.2426 30.6569C29.6332 31.0474 30.2663 31.0474 30.6568 30.6569C31.0474 30.2663 31.0474 29.6332 30.6568 29.2426L26.4141 24.9999L30.6568 20.7573C31.0473 20.3668 31.0473 19.7336 30.6568 19.3431C30.2663 18.9526 29.6331 18.9526 29.2426 19.3431L24.9999 23.5857L20.7573 19.3431Z" fill="#121127"/>
<defs>
<linearGradient id="paint0_linear_72_648" x1="6.5625" y1="11.875" x2="38.125" y2="44.0625" gradientUnits="userSpaceOnUse">
<stop stop-color="#FF96D5"/>
<stop offset="1" stop-color="#FFD390"/>
</linearGradient>
</defs>
</svg>
