<svg width="48" height="46" viewBox="0 0 48 46" fill="none" xmlns="http://www.w3.org/2000/svg">
<path d="M22.7298 11.7675H11.9922V22.3753H22.7298V11.7675Z" fill="#F2CF63"/>
<path d="M11.9658 10.6256H22.7032V0.597351H11.9658V10.6256Z" fill="#6D94CE"/>
<path d="M0 10.6256H10.7376V0.597351H0V10.6256Z" fill="#FE1D5B"/>
<path d="M25.0962 10.6079C25.0962 4.75325 29.9104 0 35.8337 0V10.6079H25.0962Z" fill="#1A84DD"/>
<path d="M37.0635 22.4058H47.801V11.7979H37.0635V22.4058Z" fill="#6D94CE"/>
<path d="M25.0962 22.4042L35.8337 11.7675H25.0962V22.4042Z" fill="#FE1D5B"/>
<path d="M47.8253 10.6079C47.8253 4.75325 43.0107 0 37.0874 0V10.6079H47.8253Z" fill="#F2CF63"/>
<path d="M25.2988 34.2032C25.2988 28.3484 30.113 23.5953 36.0363 23.5953V34.2032H25.2988Z" fill="#1A84DD"/>
<path d="M25.2988 35.3628L36.0363 46V35.3628H25.2988Z" fill="#6D94CE"/>
<path d="M48.0001 46C48.0001 40.1456 43.1855 35.3922 37.2622 35.3922V46H48.0001Z" fill="#FE1D5B"/>
<path d="M22.7298 35.3628C22.7298 41.2176 17.9152 45.9707 11.9922 45.9707V35.3628H22.7298Z" fill="#F2CF63"/>
<path d="M0.000976562 35.3628C0.000976562 41.2176 4.81537 45.9707 10.7385 45.9707V35.3628H0.000976562Z" fill="#1A84DD"/>
<path d="M5.36976 34.2032C8.33486 34.2032 10.7385 31.8286 10.7385 28.8994C10.7385 25.9699 8.33486 23.5953 5.36976 23.5953C2.40466 23.5953 0.000976562 25.9699 0.000976562 28.8994C0.000976562 31.8286 2.40466 34.2032 5.36976 34.2032Z" fill="#6D94CE"/>
<path d="M42.6311 34.2032C45.5961 34.2032 48.0001 31.8286 48.0001 28.8994C48.0001 25.9699 45.5961 23.5953 42.6311 23.5953C39.6658 23.5953 37.2622 25.9699 37.2622 28.8994C37.2622 31.8286 39.6658 34.2032 42.6311 34.2032Z" fill="#F2CF63"/>
<path d="M10.7382 11.7675H7.96631V22.3753H10.7382V11.7675Z" fill="#1A84DD"/>
<path d="M6.74016 11.7675H3.96826V22.3753H6.74016V11.7675Z" fill="#1A84DD"/>
<path d="M2.77389 11.7675H0.00195312V22.3753H2.77389V11.7675Z" fill="#1A84DD"/>
<path d="M22.8463 23.5953H20.0742V34.2032H22.8463V23.5953Z" fill="#FE1D5B"/>
<path d="M18.8491 23.5953H16.0771V34.2032H18.8491V23.5953Z" fill="#FE1D5B"/>
<path d="M14.8808 23.5953H12.1089V34.2032H14.8808V23.5953Z" fill="#FE1D5B"/>
</svg>
