<svg width="60" height="60" viewBox="0 0 60 60" fill="none" xmlns="http://www.w3.org/2000/svg">
<rect width="60" height="60" rx="30" fill="#FFD66B" fill-opacity="0.2"/>
<g clip-path="url(#clip0_164_904)">
<path d="M42.8615 42.0893L40.8308 31.2587C40.7631 31.0556 40.6277 30.9202 40.4923 30.7849L34.5355 27.468L40.4246 24.4896C40.56 24.4219 40.6954 24.2865 40.7631 24.0834L42.7938 17.9912C42.9292 17.6528 42.7261 17.2466 42.3876 17.1113C42.0492 16.9759 41.643 17.179 41.5077 17.5174L39.5447 23.3389L35.6186 25.3019L37.9877 22.1881C38.0555 22.1204 38.0555 22.0528 38.1231 21.9173L39.477 15.8251C39.5447 15.4867 39.3416 15.0805 38.9354 15.0128C38.597 14.9451 38.1908 15.1482 38.1231 15.5544L36.7693 21.5112L34.0616 25.3019C34.0616 24.7604 33.9262 24.2189 33.7231 23.6773C33.5878 23.3389 33.1816 23.2035 32.8432 23.3389C32.5047 23.4743 32.3694 23.8804 32.5047 24.2189C32.6401 24.5573 32.7078 24.8958 32.7078 25.3019C32.7078 25.9111 32.5047 26.4527 32.1663 26.9265C32.0309 27.1296 31.9632 27.3326 32.0309 27.468C32.0986 27.6034 32.1663 27.8065 32.3694 27.9418C33.8586 28.7541 34.8063 30.3787 34.8063 32.071C34.8063 34.711 32.7078 36.8094 30.0678 36.8094C28.3756 36.8094 26.8186 35.9294 25.9387 34.4402C25.4649 33.6956 25.2618 32.8833 25.2618 32.0711C25.2618 30.3788 26.2095 28.8218 27.6987 27.9419C27.9018 27.8742 27.9695 27.6711 28.0371 27.4681C28.1048 27.265 28.0371 27.0619 27.9018 26.9265C27.4956 26.4527 27.2925 25.9111 27.2925 25.302C27.2925 23.8128 28.5109 22.5943 30.0001 22.5943C30.2032 22.5943 30.3386 22.5943 30.5417 22.6621C30.7447 22.7298 30.9478 22.6621 31.0832 22.5267C31.2185 22.3913 31.2863 22.2559 31.354 22.1205L31.9632 20.9021C32.0986 20.5637 31.9632 20.1575 31.6924 20.0222C31.354 19.8868 30.9478 20.0222 30.8125 20.2929L30.2709 21.2406C30.2032 21.2406 30.0678 21.2406 30.0001 21.2406C29.9324 21.2406 29.8648 21.2406 29.7293 21.2406L29.2555 20.2252C29.1202 19.8868 28.714 19.7514 28.3756 19.9544C28.0371 20.0898 27.9017 20.496 28.1048 20.8344L28.4432 21.5113C27.0217 22.1205 26.0063 23.542 26.0063 25.2343L23.231 21.579L21.8772 15.6222C21.8094 15.2837 21.4033 15.0807 21.0648 15.1484C20.6587 15.2161 20.4556 15.6222 20.5233 15.9607L21.8772 22.0529C21.8772 22.1206 21.9449 22.256 22.0125 22.3237L24.3817 25.4375L20.4556 23.4744L18.425 17.6527C18.3573 17.3143 17.9512 17.1112 17.6127 17.2466C17.2742 17.3143 17.0712 17.7204 17.2065 18.0589L19.2372 24.1511C19.305 24.3542 19.4403 24.4895 19.5757 24.5573L25.4648 27.5357L19.508 30.8525C19.3049 30.9202 19.2372 31.1233 19.1695 31.3264L17.1389 42.157C17.0712 42.4954 17.3419 42.9016 17.6804 42.9693C17.7481 42.9693 17.7481 42.9693 17.8158 42.9693C18.1542 42.9693 18.425 42.7662 18.4926 42.4278L20.4557 31.9356L23.9757 29.9726L22.0126 33.1541C21.9449 33.2218 21.9449 33.3572 21.9449 33.4249L20.5911 44.2554C20.5234 44.5938 20.7942 44.9323 21.2003 45H21.268C21.6065 45 21.8773 44.7292 21.9449 44.3907L23.2988 33.6955L24.0434 32.5448C24.1111 33.4924 24.3818 34.3724 24.8557 35.1847C25.9387 37.0801 27.9695 38.2308 30.1356 38.2308C33.3171 38.2308 35.9571 35.7262 36.2278 32.5448L36.9724 33.6956L38.3262 44.3908C38.394 44.7293 38.6647 45 39.0031 45H39.0709C39.4093 44.9323 39.6801 44.5939 39.6801 44.2554L38.3262 33.4248C38.3262 33.3571 38.2585 33.2218 38.2585 33.154L36.2955 29.9726L39.8154 31.9356L41.5077 42.36C41.5754 42.6985 41.8461 42.9015 42.1846 42.9015C42.2523 42.9015 42.2523 42.9015 42.3199 42.9015C42.6584 42.8339 42.9292 42.4954 42.8615 42.0893Z" fill="black"/>
<path d="M30.0001 29.3633C28.5109 29.3633 27.2925 30.5817 27.2925 32.0709C27.2925 33.5601 28.5109 34.7785 30.0001 34.7785C31.4893 34.7785 32.7077 33.5601 32.7077 32.0709C32.7077 30.5818 31.4893 29.3633 30.0001 29.3633ZM30.0001 33.4248C29.2555 33.4248 28.6463 32.8156 28.6463 32.071C28.6463 31.3264 29.2555 30.7171 30.0001 30.7171C30.7447 30.7171 31.3539 31.3264 31.3539 32.071C31.3539 32.8156 30.7447 33.4248 30.0001 33.4248Z" fill="black"/>
</g>
<defs>
<clipPath id="clip0_164_904">
<rect width="30" height="30" fill="white" transform="translate(15 15)"/>
</clipPath>
</defs>
</svg>
