<svg width="60" height="60" viewBox="0 0 60 60" fill="none" xmlns="http://www.w3.org/2000/svg">
<rect width="60" height="60" rx="30" fill="#FF99D3" fill-opacity="0.2"/>
<path d="M29.9344 44.8688C38.1824 44.8688 44.8688 38.1824 44.8688 29.9344C44.8688 21.6864 38.1824 15 29.9344 15C21.6864 15 15 21.6864 15 29.9344C15 38.1824 21.6864 44.8688 29.9344 44.8688Z" stroke="black"/>
<path d="M25.6631 29.3265L31.8005 22.2001L36.3602 26.1844L40.7386 23.9688L44.8577 29.3265" stroke="black"/>
<path d="M23.6863 24.4483C24.9487 24.4483 25.9721 23.4249 25.9721 22.1625C25.9721 20.9 24.9487 19.8766 23.6863 19.8766C22.4238 19.8766 21.4004 20.9 21.4004 22.1625C21.4004 23.4249 22.4238 24.4483 23.6863 24.4483Z" stroke="black"/>
<path d="M15.001 32.0057L22.6254 27.9723L34.5668 33.2011L45.0001 30.2803" stroke="black"/>
<path d="M44.4933 33.1787C41.3792 36.6981 37.6594 38.207 33.334 37.7054C28.8728 36.7486 24.7875 33.4376 20.8594 33.4376C18.2407 33.4376 16.5782 34.0211 15.8721 35.1881" stroke="black"/>
</svg>
