<svg width="72" height="73" viewBox="0 0 72 73" fill="none" xmlns="http://www.w3.org/2000/svg">
<path d="M35.9281 72.1331C55.7707 72.1331 71.8563 56.0475 71.8563 36.2049C71.8563 16.3624 55.7707 0.276779 35.9281 0.276779C16.0856 0.276779 0 16.3624 0 36.2049C0 56.0475 16.0856 72.1331 35.9281 72.1331Z" fill="url(#paint0_linear_66_622)"/>
<path d="M35.9542 52.3447C37.9952 53.2817 41.832 53.1253 46.1838 53.8288C50.5356 54.5323 53.7432 59.9054 54.6118 56.7261C55.8335 52.2544 52.8119 43.8838 50.1871 37.0379C50.0948 36.7971 52.8692 36.6535 54.6118 33.3291C55.6436 31.3607 55.6223 26.4363 56.3098 24.7213C58.4476 19.3885 55.9417 20.7163 55.7025 20.1701C55.555 19.8333 56.5132 14.7296 54.9943 17.2213C54.674 17.7468 51.7658 25.5076 51.0869 26.9516C49.5641 30.1909 48.2104 30.4931 48.1189 30.2483C47.4875 29.4613 47.0616 28.3624 46.8412 26.9516C45.7924 20.237 41.3439 14.648 34.5626 14.648C27.7813 14.648 22.284 20.1565 22.284 26.9516C21.9017 28.0708 21.7106 29.1696 21.7106 30.2483C21.7106 30.6921 19.1124 32.7933 17.7819 34.2362C15.6604 36.5368 14.968 38.9716 14.9525 39.7285C14.9438 40.1874 15.2871 44.3838 17.1406 43.4003C17.2675 43.333 17.4613 42.8615 17.7255 42.224C18.0923 41.3387 18.5911 40.0873 19.2378 39.2003C20.1678 37.9249 21.5652 37.581 21.7106 37.5834C21.6809 41.7679 21.6809 44.0803 21.7106 44.5206C21.9662 48.3116 22.7837 49.5281 24.7777 52.3447C26.0781 54.1817 27.997 54.9354 29.945 53.8288C30.7468 53.3733 33.0332 51.0037 35.9542 52.3447Z" fill="url(#paint1_linear_66_622)"/>
<path d="M39.6378 30.5342C42.3503 30.5342 44.5492 28.307 44.5492 25.5595C44.5492 22.8121 42.3503 20.5849 39.6378 20.5849C36.9252 20.5849 34.7263 22.8121 34.7263 25.5595C34.7263 28.307 36.9252 30.5342 39.6378 30.5342Z" fill="white"/>
<path d="M39.5706 29.0424C41.2631 28.4925 42.2505 26.8632 41.7761 25.4032C41.3018 23.9432 39.5452 23.2055 37.8528 23.7554C36.1604 24.3053 35.1729 25.9346 35.6473 27.3946C36.1217 28.8545 37.8782 29.5923 39.5706 29.0424Z" fill="#160B0D"/>
<path d="M40.4717 26.2761C40.8446 26.2761 41.147 25.9736 41.147 25.6005C41.147 25.2274 40.8446 24.9249 40.4717 24.9249C40.0987 24.9249 39.7963 25.2274 39.7963 25.6005C39.7963 25.9736 40.0987 26.2761 40.4717 26.2761Z" fill="white"/>
<path d="M27.1955 30.5342C28.0318 30.5342 28.7098 29.8835 28.7098 29.0807C28.7098 28.278 28.0318 27.6272 27.1955 27.6272C26.3591 27.6272 25.6811 28.278 25.6811 29.0807C25.6811 29.8835 26.3591 30.5342 27.1955 30.5342Z" fill="white"/>
<path d="M32.7362 42.0429C34.967 44.7015 38.1864 45.6727 39.9269 44.2123C41.6674 42.7518 41.27 39.4127 39.0392 36.7541C36.8084 34.0956 33.589 33.1243 31.8485 34.5848C30.108 36.0452 30.5054 39.3844 32.7362 42.0429Z" fill="white"/>
<path d="M27.8298 28.9783C27.9994 28.9783 28.1368 28.8409 28.1368 28.6713C28.1368 28.5017 27.9994 28.3642 27.8298 28.3642C27.6603 28.3642 27.5229 28.5017 27.5229 28.6713C27.5229 28.8409 27.6603 28.9783 27.8298 28.9783Z" fill="black"/>
<defs>
<linearGradient id="paint0_linear_66_622" x1="39.6401" y1="-8.71534" x2="39.6401" y2="63.8668" gradientUnits="userSpaceOnUse">
<stop stop-color="#FF96D5"/>
<stop offset="1" stop-color="#FFD390"/>
</linearGradient>
<linearGradient id="paint1_linear_66_622" x1="36.0596" y1="14.648" x2="36.0596" y2="57.7239" gradientUnits="userSpaceOnUse">
<stop stop-color="#0C0C02"/>
<stop offset="1" stop-color="#43003E"/>
</linearGradient>
</defs>
</svg>
