<svg width="140" height="140" viewBox="0 0 140 140" fill="none" xmlns="http://www.w3.org/2000/svg">
<rect width="140" height="140" rx="70" fill="#FFD66B"/>
<path d="M50.6375 56.7954C49.524 53.6136 49.3648 50.909 50.0011 48.0454C50.3193 47.25 49.842 46.4546 48.8875 46.1363C48.0921 45.9771 47.2967 46.4544 46.9784 47.409C46.183 50.7499 46.342 54.0909 47.6148 57.7499C47.933 58.3863 48.5694 58.8634 49.2057 58.8634C49.3648 58.8634 49.5238 58.8634 49.683 58.8634C50.4784 58.5454 50.9557 57.75 50.6375 56.7954Z" fill="black"/>
<path d="M92.797 47.4091C92.6379 46.6137 91.6834 45.9773 90.8879 46.2956C90.0924 46.4547 89.456 47.4091 89.7742 48.2047C90.4106 50.9093 90.2514 53.6138 89.1377 56.9547C88.8196 57.5911 89.2969 58.5456 90.0923 58.8639C90.2514 58.8639 90.4104 58.8639 90.5696 58.8639C91.206 58.8639 91.8423 58.3866 92.1605 57.7503C93.4334 53.9319 93.5924 50.5909 92.797 47.4091Z" fill="black"/>
<path d="M85.16 57.5909C83.41 56.4773 82.6146 54.409 83.0918 52.5C84.2054 47.8864 87.3873 43.75 92.001 39.1364C95.8191 46.2956 96.4556 52.341 94.0691 59.9773C93.751 60.7727 94.2283 61.7273 95.0237 62.0454C95.8191 62.3636 96.7737 61.8863 97.0918 61.0909C100.115 51.8636 99.001 44.7044 93.751 35.9544C93.2736 35.3181 92.7963 35 92.319 35C91.8417 35 91.3644 35.1591 91.0463 35.4773C85.319 41.2046 81.3417 46.1364 79.9098 51.8637C79.1144 55.0456 80.5463 58.3864 83.4098 60.2956C88.978 63.9547 94.7053 72.3864 95.3417 82.7274C85.4781 83.3638 76.2508 90.2047 76.2508 97.0456C76.2508 99.2729 74.1827 101.182 71.4781 101.659V96.091L74.1827 93.3864C74.8191 92.75 74.8191 91.7956 74.3418 91.1591C73.3873 90.0456 72.1146 89.25 70.6827 89.091C68.7736 88.7729 66.8646 89.5683 65.5918 91.1591C65.1146 91.7956 65.1146 92.75 65.751 93.3864L68.4555 96.091V101.659C65.751 101.182 63.6828 99.2727 63.6828 97.0456C63.6828 90.2047 54.4555 83.5229 44.592 82.7274C45.0693 72.2274 50.7965 63.9547 56.5238 60.2956C59.3874 58.3864 60.8193 55.0456 60.0238 51.8637C58.592 46.1364 54.6147 41.2046 48.8874 35.4773C48.41 35.1591 47.9327 35 47.4554 35C46.9781 35 46.5008 35.3181 46.3418 35.7954C40.9327 44.5454 39.9783 51.8636 42.8418 60.9319C43.16 61.7273 43.9554 62.2046 44.91 61.8864C45.7054 61.5683 46.1827 60.7729 45.8646 59.8183C43.4781 52.5 44.1146 46.2954 47.9327 39.1364C52.5463 43.9091 55.7281 48.0456 56.8418 52.5C57.3191 54.4091 56.3646 56.4773 54.7737 57.5909C48.4101 61.7273 41.251 71.1136 41.251 84.3181C41.251 85.2727 41.8874 85.909 42.8418 85.909C51.2737 85.909 60.3418 91.6363 60.3418 97.0454C60.3418 101.5 64.6373 105 69.8873 105C75.1373 105 79.4327 101.5 79.4327 97.0454C79.4327 91.6363 88.5008 85.909 96.9327 85.909C97.8873 85.909 98.5236 85.2726 98.5236 84.3181C98.5236 71.1136 91.3646 61.7273 85.16 57.5909Z" fill="black"/>
<path d="M85.1602 68.5681C84.8421 68.409 84.3648 68.409 83.8875 68.409L80.5466 69.0454C77.2058 69.8409 74.8193 72.7046 74.6602 76.0454C73.7056 78.4319 73.2283 81.2954 73.0693 84.3181C73.0693 85.2727 73.7058 85.909 74.6602 85.909C75.4556 85.909 76.2511 85.2726 76.2511 84.3181C76.4102 81.9317 76.7283 79.7046 77.5238 77.6363L79.9102 77.159C83.4102 76.5226 85.7966 73.3409 85.7966 69.8409C85.7965 69.3636 85.6375 68.8864 85.1602 68.5681ZM79.1148 74.1364L78.3193 74.2956C78.9558 73.182 80.0693 72.5456 81.1829 72.2274L81.9783 72.0683C81.3419 73.1819 80.3875 73.9773 79.1148 74.1364Z" fill="black"/>
<path d="M66.7058 76.2046C66.5466 72.8637 64.1603 70 60.8193 69.3637L57.4785 68.4091C57.0012 68.4091 56.5239 68.4091 56.2058 68.7273C55.7285 69.0454 55.5693 69.5227 55.5693 70C55.5693 73.5 58.1148 76.5227 61.4558 77.3181L63.8422 77.7954C64.4786 79.7046 64.9558 82.0909 65.1149 84.4773C65.1149 85.2727 65.9103 86.0681 66.7058 86.0681C67.6603 86.0681 68.2966 85.2727 68.2966 84.4773C68.1376 81.4546 67.6603 78.5909 66.7058 76.2046ZM62.2512 74.1364C60.9785 73.8183 60.0239 73.0229 59.3876 72.0683L60.183 72.2274C61.4558 72.5456 62.4103 73.3411 63.0466 74.2956L62.2512 74.1364Z" fill="black"/>
<path d="M77.0463 54.25C75.2963 53.2954 73.2281 52.6591 71.0008 52.5C67.9781 52.3409 64.9554 52.9773 62.569 54.25C61.7736 54.7273 61.6144 55.6819 62.0917 56.4773C62.569 57.2727 63.5236 57.4319 64.319 57.1137C66.069 56.1591 68.4554 55.6819 70.8417 55.841C72.5917 56.0001 74.1826 56.4774 75.4553 57.1137C75.6144 57.2729 75.9326 57.2729 76.2507 57.2729C76.728 57.2729 77.3643 56.9547 77.6826 56.4774C78.16 55.6819 77.8417 54.7273 77.0463 54.25Z" fill="black"/>
</svg>
