<svg width="60" height="60" viewBox="0 0 60 60" fill="none" xmlns="http://www.w3.org/2000/svg">
<rect width="60" height="60" rx="30" fill="#FFD66B" fill-opacity="0.2"/>
<path d="M21.7019 24.3409C21.2246 22.9772 21.1564 21.8181 21.4291 20.5909C21.5655 20.25 21.3609 19.9091 20.9519 19.7727C20.611 19.7045 20.2701 19.909 20.1337 20.3181C19.7928 21.7499 19.8609 23.1818 20.4064 24.7499C20.5428 25.0227 20.8155 25.2272 21.0882 25.2272C21.1564 25.2272 21.2246 25.2272 21.2928 25.2272C21.6337 25.0909 21.8382 24.75 21.7019 24.3409Z" fill="black"/>
<path d="M39.7701 20.3182C39.7019 19.9773 39.2929 19.7045 38.9519 19.8409C38.611 19.9091 38.3383 20.3182 38.4746 20.6591C38.7474 21.8182 38.6792 22.9773 38.2019 24.4091C38.0655 24.6819 38.2701 25.0909 38.611 25.2273C38.6792 25.2273 38.7473 25.2273 38.8155 25.2273C39.0883 25.2273 39.361 25.0228 39.4973 24.7501C40.0429 23.1136 40.111 21.6818 39.7701 20.3182Z" fill="black"/>
<path d="M36.4973 24.6818C35.7473 24.2046 35.4064 23.3181 35.611 22.5C36.0882 20.5228 37.4519 18.75 39.4292 16.7728C41.0655 19.841 41.3383 22.4319 40.3155 25.7046C40.1792 26.0454 40.3838 26.4546 40.7246 26.5909C41.0655 26.7272 41.4746 26.5227 41.611 26.1818C42.9064 22.2272 42.4292 19.159 40.1792 15.409C39.9746 15.1363 39.77 15 39.5655 15C39.3609 15 39.1564 15.0682 39.02 15.2046C36.5655 17.6591 34.8609 19.7728 34.2473 22.2273C33.9064 23.591 34.52 25.0228 35.7473 25.841C38.1336 27.4092 40.5882 31.0228 40.8609 35.4546C36.6337 35.7274 32.6791 38.6592 32.6791 41.591C32.6791 42.5455 31.7928 43.3637 30.6337 43.5682V41.1819L31.7928 40.0228C32.0655 39.75 32.0655 39.341 31.861 39.0682C31.4519 38.591 30.9064 38.25 30.2928 38.1819C29.4746 38.0455 28.6564 38.3864 28.111 39.0682C27.9064 39.341 27.9064 39.75 28.1792 40.0228L29.3383 41.1819V43.5682C28.1792 43.3637 27.2929 42.5455 27.2929 41.591C27.2929 38.6592 23.3383 35.7955 19.1111 35.4546C19.3156 30.9546 21.7702 27.4092 24.2247 25.841C25.452 25.0228 26.0656 23.591 25.7247 22.2273C25.1111 19.7728 23.4065 17.6591 20.952 15.2046C20.7473 15.0682 20.5428 15 20.3382 15C20.1337 15 19.9291 15.1363 19.861 15.3409C17.5428 19.0909 17.1338 22.2272 18.361 26.1137C18.4973 26.4546 18.8382 26.6591 19.2473 26.5228C19.5882 26.3864 19.7928 26.0455 19.6564 25.6364C18.6337 22.5 18.9064 19.8409 20.5428 16.7728C22.52 18.8182 23.8837 20.591 24.361 22.5C24.5655 23.3182 24.1564 24.2046 23.4746 24.6818C20.7474 26.4546 17.6792 30.4772 17.6792 36.1363C17.6792 36.5454 17.952 36.8181 18.361 36.8181C21.9746 36.8181 25.861 39.2727 25.861 41.5909C25.861 43.5 27.7019 45 29.9519 45C32.2019 45 34.0428 43.5 34.0428 41.5909C34.0428 39.2727 37.9291 36.8181 41.5428 36.8181C41.9519 36.8181 42.2246 36.5454 42.2246 36.1363C42.2246 30.4772 39.1564 26.4546 36.4973 24.6818Z" fill="black"/>
<path d="M36.4972 29.3863C36.3609 29.3181 36.1563 29.3181 35.9518 29.3181L34.52 29.5909C33.0882 29.9318 32.0654 31.1591 31.9972 32.5909C31.5881 33.6136 31.3836 34.8409 31.3154 36.1363C31.3154 36.5454 31.5882 36.8181 31.9972 36.8181C32.3381 36.8181 32.679 36.5454 32.679 36.1363C32.7472 35.1136 32.8836 34.1591 33.2245 33.2727L34.2472 33.0681C35.7472 32.7954 36.77 31.4318 36.77 29.9318C36.7699 29.7272 36.7018 29.5227 36.4972 29.3863ZM33.9063 31.7727L33.5654 31.8409C33.8382 31.3637 34.3154 31.0909 34.7927 30.9546L35.1336 30.8864C34.8608 31.3636 34.4518 31.7045 33.9063 31.7727Z" fill="black"/>
<path d="M28.5882 32.6591C28.52 31.2273 27.4973 30 26.0654 29.7273L24.6336 29.3182C24.4291 29.3182 24.2245 29.3182 24.0882 29.4546C23.8836 29.5909 23.8154 29.7955 23.8154 30C23.8154 31.5 24.9063 32.7955 26.3382 33.1364L27.3609 33.3409C27.6337 34.1591 27.8382 35.1818 27.9064 36.2046C27.9064 36.5455 28.2473 36.8864 28.5882 36.8864C28.9973 36.8864 29.27 36.5455 29.27 36.2046C29.2018 34.9091 28.9973 33.6818 28.5882 32.6591ZM26.6791 31.7728C26.1336 31.6364 25.7245 31.2955 25.4518 30.8864L25.7927 30.9546C26.3382 31.091 26.7473 31.4319 27.02 31.841L26.6791 31.7728Z" fill="black"/>
<path d="M33.0198 23.25C32.2698 22.8409 31.3834 22.5683 30.4289 22.5C29.1334 22.4318 27.838 22.7046 26.8152 23.25C26.4743 23.4546 26.4061 23.8637 26.6107 24.2046C26.8152 24.5455 27.2243 24.6137 27.5652 24.4774C28.3152 24.0683 29.338 23.8637 30.3607 23.9319C31.1107 24.0001 31.7925 24.2047 32.3379 24.4774C32.4061 24.5456 32.5425 24.5456 32.6788 24.5456C32.8834 24.5456 33.1561 24.4092 33.2925 24.2047C33.4971 23.8637 33.3607 23.4546 33.0198 23.25Z" fill="black"/>
</svg>
