<svg width="24" height="24" viewBox="0 0 24 24" fill="none" xmlns="http://www.w3.org/2000/svg">
<path fill-rule="evenodd" clip-rule="evenodd" d="M2.85506 3.57286L2.86067 3.56474C2.92921 3.46568 2.99798 3.37601 3.06803 3.29614C3.20709 3.1376 3.35122 3.01765 3.50868 2.93953C3.65075 2.86905 3.80367 2.83262 3.9735 2.83262H11.7369V0H8.31571C7.82113 0 7.21545 0.0834711 6.58871 0.243402C4.78182 0.704472 2.79953 1.80101 2.79736 3.36505V3.37101C2.79748 3.43046 2.80044 3.49059 2.8064 3.55139L2.80685 3.55603C2.80919 3.57922 2.81194 3.60252 2.81514 3.62591L2.81583 3.6309L2.81863 3.62669C2.82682 3.61439 2.835 3.60224 2.84319 3.5902C2.84715 3.58439 2.8511 3.57861 2.85506 3.57286ZM11.7369 2.83262C12.9672 2.83262 14.1854 3.06974 15.3221 3.53044C16.4587 3.99116 17.4914 4.6664 18.3614 5.51768C19.2313 6.36896 19.9214 7.37954 20.3922 8.49178C20.863 9.60402 21.1053 10.7961 21.1053 12C21.1053 13.2039 20.863 14.396 20.3922 15.5082C19.9214 16.6205 19.2313 17.631 18.3614 18.4823C17.4914 19.3336 16.4587 20.0088 15.3221 20.4696C14.1854 20.9303 12.9672 21.1674 11.7369 21.1674V24C13.3473 24 14.942 23.6896 16.4298 23.0866C17.9177 22.4835 19.2695 21.5996 20.4083 20.4853C21.547 19.371 22.4503 18.0481 23.0666 16.5922C23.6829 15.1363 24.0001 13.5759 24.0001 12C24.0001 10.4241 23.6829 8.86373 23.0666 7.40781C22.4503 5.9519 21.547 4.62901 20.4083 3.51472C19.2695 2.40042 17.9177 1.5165 16.4298 0.913447C14.942 0.310388 13.3473 0 11.7369 0V2.83262ZM11.3159 8.39485C11.7997 8.39485 12.2788 8.48812 12.7258 8.66925C13.1728 8.85044 13.5789 9.11598 13.921 9.4508C14.2631 9.78556 14.5345 10.183 14.7197 10.6204C14.9048 11.0578 15.0001 11.5265 15.0001 12C15.0001 12.4735 14.9048 12.9422 14.7197 13.3796C14.5345 13.817 14.2631 14.2144 13.921 14.5492C13.5789 14.884 13.1728 15.1496 12.7258 15.3307C12.2788 15.5119 11.7997 15.6052 11.3159 15.6052H3.57903V18.4378H11.3159C12.1798 18.4378 13.0353 18.2713 13.8335 17.9477C14.6317 17.6242 15.357 17.15 15.9679 16.5522C16.5788 15.9544 17.0634 15.2447 17.394 14.4636C17.7247 13.6826 17.8948 12.8454 17.8948 12C17.8948 11.1546 17.7247 10.3174 17.394 9.53639C17.0634 8.75531 16.5788 8.04561 15.9679 7.44783C15.357 6.84999 14.6317 6.37581 13.8335 6.05227C13.0353 5.72874 12.1798 5.56223 11.3159 5.56223H3.57903V8.39485H11.3159ZM2.87941 21.1757C3.42547 22.9551 6.56576 24 8.31571 24H11.7369V21.1674H3.9735C3.5798 21.1674 3.27698 20.9716 2.98951 20.6097C2.9312 20.5362 2.87351 20.4559 2.81583 20.3691C2.81581 20.3693 2.81579 20.3694 2.81578 20.3695C2.77636 20.6526 2.80144 20.9217 2.87941 21.1757Z" fill="#121127"/>
<path fill-rule="evenodd" clip-rule="evenodd" d="M2.81579 3.63603C2.82903 3.90089 2.97443 4.5923 3.18264 4.85466L9.63084 11.6211C9.72942 11.7246 9.7761 11.8572 9.772 11.9882C9.77511 12.1179 9.72837 12.249 9.63074 12.3514L3.21507 19.0837L3.22511 19.0927C3.02691 19.3051 2.83015 20.0767 2.81579 20.3639C2.66006 23.4798 8.10526 23.9948 8.10526 23.9948C7.10511 23.9864 6.32805 23.9918 5.70379 23.9961C4.42263 24.005 3.78448 24.0094 3.18021 23.8808C2.23977 23.6581 1.40813 23.1215 0.828542 22.3634C0.248952 21.6053 -0.0423011 20.6731 0.00496735 19.7274C0.0516383 18.7936 0.42551 17.9044 1.06308 17.209L1.05263 17.1995L6.02074 11.9862L1.09153 6.81373L1.08748 6.81734C0.435052 6.11814 0.0522305 5.21825 0.00496735 4.27256C-0.0423011 3.3269 0.248952 2.39471 0.828542 1.63658C1.40813 0.878451 2.23977 0.34185 3.18021 0.119222C3.78453 -0.00946264 4.42274 -0.0050317 5.70411 0.00386447C6.32837 0.00819852 7.10526 0.0135924 8.10526 0.00517014C8.10526 0.00517014 2.66006 0.520151 2.81579 3.63603Z" fill="#121127"/>
</svg>
