<svg width="48" height="48" viewBox="0 0 48 48" fill="none" xmlns="http://www.w3.org/2000/svg">
<path fill-rule="evenodd" clip-rule="evenodd" d="M5.71012 7.14573L5.72134 7.12947C5.85841 6.93137 5.99595 6.75202 6.13607 6.59227C6.41418 6.2752 6.70245 6.0353 7.01736 5.87906C7.3015 5.73809 7.60734 5.66524 7.947 5.66524H23.4737V0H16.6314C15.6423 0 14.4309 0.166942 13.1774 0.486804C9.56363 1.40894 5.59906 3.60203 5.59473 6.7301V6.74201C5.59495 6.86092 5.60089 6.98119 5.61279 7.10278L5.61371 7.11206C5.61837 7.15845 5.62389 7.20504 5.63029 7.25182L5.63167 7.2618L5.63727 7.25338C5.65364 7.22879 5.67 7.20447 5.68638 7.18041C5.6943 7.16879 5.7022 7.15722 5.71012 7.14573ZM23.4738 5.66524C25.9344 5.66524 28.3709 6.13948 30.6442 7.06088C32.9174 7.98232 34.9829 9.33281 36.7228 11.0354C38.4627 12.7379 39.8428 14.7591 40.7845 16.9836C41.726 19.208 42.2107 21.5923 42.2107 24C42.2107 26.4077 41.726 28.792 40.7845 31.0164C39.8428 33.2409 38.4627 35.2621 36.7228 36.9646C34.9829 38.6672 32.9174 40.0177 30.6442 40.9392C28.3709 41.8605 25.9344 42.3348 23.4738 42.3348V48C26.6947 48 29.8839 47.3792 32.8596 46.1731C35.8353 44.967 38.5391 43.1992 40.8166 40.9706C43.094 38.742 44.9007 36.0962 46.1332 33.1844C47.3657 30.2726 48.0002 27.1517 48.0002 24C48.0002 20.8483 47.3657 17.7275 46.1332 14.8156C44.9007 11.9038 43.094 9.25803 40.8166 7.02944C38.5391 4.80083 35.8353 3.033 32.8596 1.82689C29.8839 0.620776 26.6947 0 23.4738 0V5.66524ZM22.6317 16.7897C23.5994 16.7897 24.5575 16.9762 25.4515 17.3385C26.3455 17.7009 27.1577 18.232 27.8419 18.9016C28.5263 19.5711 29.069 20.3659 29.4393 21.2407C29.8095 22.1155 30.0002 23.0531 30.0002 24C30.0002 24.9469 29.8095 25.8845 29.4393 26.7593C29.069 27.6341 28.5263 28.4289 27.8419 29.0984C27.1577 29.768 26.3455 30.2991 25.4515 30.6615C24.5575 31.0238 23.5994 31.2103 22.6317 31.2103H7.15806V36.8755H22.6317C24.3596 36.8755 26.0707 36.5425 27.667 35.8955C29.2634 35.2484 30.7139 34.3 31.9357 33.1043C33.1576 31.9088 34.1268 30.4894 34.788 28.9272C35.4493 27.3651 35.7896 25.6908 35.7896 24C35.7896 22.3092 35.4493 20.6348 34.788 19.0728C34.1268 17.5106 33.1576 16.0912 31.9357 14.8957C30.7139 13.7 29.2634 12.7516 27.667 12.1045C26.0707 11.4575 24.3596 11.1245 22.6317 11.1245H7.15806V16.7897H22.6317ZM5.75882 42.3514C6.85094 45.9101 13.1315 48 16.6314 48H23.4737V42.3348H7.947C7.15959 42.3348 6.55395 41.9432 5.97902 41.2193C5.86239 41.0724 5.74702 40.9119 5.63167 40.7382C5.63162 40.7385 5.63158 40.7387 5.63155 40.739C5.55272 41.3052 5.60288 41.8433 5.75882 42.3514Z" fill="url(#paint0_linear_161_636)"/>
<path fill-rule="evenodd" clip-rule="evenodd" d="M5.71012 7.14573L5.72134 7.12947C5.85841 6.93137 5.99595 6.75202 6.13607 6.59227C6.41418 6.2752 6.70245 6.0353 7.01736 5.87906C7.3015 5.73809 7.60734 5.66524 7.947 5.66524H23.4737V0H16.6314C15.6423 0 14.4309 0.166942 13.1774 0.486804C9.56363 1.40894 5.59906 3.60203 5.59473 6.7301V6.74201C5.59495 6.86092 5.60089 6.98119 5.61279 7.10278L5.61371 7.11206C5.61837 7.15845 5.62389 7.20504 5.63029 7.25182L5.63167 7.2618L5.63727 7.25338C5.65364 7.22879 5.67 7.20447 5.68638 7.18041C5.6943 7.16879 5.7022 7.15722 5.71012 7.14573ZM23.4738 5.66524C25.9344 5.66524 28.3709 6.13948 30.6442 7.06088C32.9174 7.98232 34.9829 9.33281 36.7228 11.0354C38.4627 12.7379 39.8428 14.7591 40.7845 16.9836C41.726 19.208 42.2107 21.5923 42.2107 24C42.2107 26.4077 41.726 28.792 40.7845 31.0164C39.8428 33.2409 38.4627 35.2621 36.7228 36.9646C34.9829 38.6672 32.9174 40.0177 30.6442 40.9392C28.3709 41.8605 25.9344 42.3348 23.4738 42.3348V48C26.6947 48 29.8839 47.3792 32.8596 46.1731C35.8353 44.967 38.5391 43.1992 40.8166 40.9706C43.094 38.742 44.9007 36.0962 46.1332 33.1844C47.3657 30.2726 48.0002 27.1517 48.0002 24C48.0002 20.8483 47.3657 17.7275 46.1332 14.8156C44.9007 11.9038 43.094 9.25803 40.8166 7.02944C38.5391 4.80083 35.8353 3.033 32.8596 1.82689C29.8839 0.620776 26.6947 0 23.4738 0V5.66524ZM22.6317 16.7897C23.5994 16.7897 24.5575 16.9762 25.4515 17.3385C26.3455 17.7009 27.1577 18.232 27.8419 18.9016C28.5263 19.5711 29.069 20.3659 29.4393 21.2407C29.8095 22.1155 30.0002 23.0531 30.0002 24C30.0002 24.9469 29.8095 25.8845 29.4393 26.7593C29.069 27.6341 28.5263 28.4289 27.8419 29.0984C27.1577 29.768 26.3455 30.2991 25.4515 30.6615C24.5575 31.0238 23.5994 31.2103 22.6317 31.2103H7.15806V36.8755H22.6317C24.3596 36.8755 26.0707 36.5425 27.667 35.8955C29.2634 35.2484 30.7139 34.3 31.9357 33.1043C33.1576 31.9088 34.1268 30.4894 34.788 28.9272C35.4493 27.3651 35.7896 25.6908 35.7896 24C35.7896 22.3092 35.4493 20.6348 34.788 19.0728C34.1268 17.5106 33.1576 16.0912 31.9357 14.8957C30.7139 13.7 29.2634 12.7516 27.667 12.1045C26.0707 11.4575 24.3596 11.1245 22.6317 11.1245H7.15806V16.7897H22.6317ZM5.75882 42.3514C6.85094 45.9101 13.1315 48 16.6314 48H23.4737V42.3348H7.947C7.15959 42.3348 6.55395 41.9432 5.97902 41.2193C5.86239 41.0724 5.74702 40.9119 5.63167 40.7382C5.63162 40.7385 5.63158 40.7387 5.63155 40.739C5.55272 41.3052 5.60288 41.8433 5.75882 42.3514Z" fill="url(#paint1_linear_161_636)"/>
<path fill-rule="evenodd" clip-rule="evenodd" d="M5.63158 7.27206C5.65805 7.80178 5.94885 9.1846 6.36528 9.70931L19.2617 23.2423C19.4588 23.4491 19.5522 23.7144 19.544 23.9764C19.5502 24.2359 19.4567 24.4979 19.2615 24.7028L6.43014 38.1675L6.45022 38.1854C6.05381 38.6102 5.6603 40.1533 5.63158 40.7279C5.32012 46.9596 16.2105 47.9897 16.2105 47.9897C14.2102 47.9728 12.6561 47.9836 11.4076 47.9922C8.84525 48.0101 7.56896 48.0188 6.36041 47.7615C4.47955 47.3162 2.81626 46.243 1.65708 44.7268C0.497903 43.2106 -0.0846021 41.3462 0.00993471 39.4548C0.103277 37.5872 0.851021 35.8088 2.12616 34.418L2.10526 34.399L12.0415 23.9724L2.18305 13.6275L2.17496 13.6347C0.870103 12.2363 0.104461 10.4365 0.00993471 8.54513C-0.0846021 6.6538 0.497903 4.78942 1.65708 3.27317C2.81626 1.7569 4.47955 0.6837 6.36041 0.238443C7.56906 -0.0189253 8.84548 -0.0100634 11.4082 0.00772893C12.6567 0.016397 14.2105 0.0271848 16.2105 0.0103403C16.2105 0.0103403 5.32012 1.0403 5.63158 7.27206Z" fill="#FA4990"/>
<path fill-rule="evenodd" clip-rule="evenodd" d="M5.63158 7.27206C5.65805 7.80178 5.94885 9.1846 6.36528 9.70931L19.2617 23.2423C19.4588 23.4491 19.5522 23.7144 19.544 23.9764C19.5502 24.2359 19.4567 24.4979 19.2615 24.7028L6.43014 38.1675L6.45022 38.1854C6.05381 38.6102 5.6603 40.1533 5.63158 40.7279C5.32012 46.9596 16.2105 47.9897 16.2105 47.9897C14.2102 47.9728 12.6561 47.9836 11.4076 47.9922C8.84525 48.0101 7.56896 48.0188 6.36041 47.7615C4.47955 47.3162 2.81626 46.243 1.65708 44.7268C0.497903 43.2106 -0.0846021 41.3462 0.00993471 39.4548C0.103277 37.5872 0.851021 35.8088 2.12616 34.418L2.10526 34.399L12.0415 23.9724L2.18305 13.6275L2.17496 13.6347C0.870103 12.2363 0.104461 10.4365 0.00993471 8.54513C-0.0846021 6.6538 0.497903 4.78942 1.65708 3.27317C2.81626 1.7569 4.47955 0.6837 6.36041 0.238443C7.56906 -0.0189253 8.84548 -0.0100634 11.4082 0.00772893C12.6567 0.016397 14.2105 0.0271848 16.2105 0.0103403C16.2105 0.0103403 5.32012 1.0403 5.63158 7.27206Z" fill="url(#paint2_linear_161_636)"/>
<defs>
<linearGradient id="paint0_linear_161_636" x1="48.0002" y1="24" x2="3.57911" y2="24" gradientUnits="userSpaceOnUse">
<stop stop-color="#8570E4"/>
<stop offset="1" stop-color="#FA4990"/>
</linearGradient>
<linearGradient id="paint1_linear_161_636" x1="48.0002" y1="24" x2="5.57911" y2="24" gradientUnits="userSpaceOnUse">
<stop offset="0.546875" stop-opacity="0"/>
<stop offset="0.958044" stop-opacity="0.5"/>
</linearGradient>
<linearGradient id="paint2_linear_161_636" x1="9.77225" y1="-2.96284e-09" x2="9.77225" y2="48" gradientUnits="userSpaceOnUse">
<stop stop-opacity="0.2"/>
<stop offset="0.499239" stop-opacity="0"/>
<stop offset="1" stop-opacity="0.2"/>
</linearGradient>
</defs>
</svg>
