<svg width="20" height="20" viewBox="0 0 20 20" fill="none" xmlns="http://www.w3.org/2000/svg">
<path fill-rule="evenodd" clip-rule="evenodd" d="M2.37913 2.97739L2.38381 2.97061C2.44092 2.88807 2.49823 2.81334 2.55661 2.74678C2.67249 2.61467 2.7926 2.51471 2.92382 2.44961C3.04221 2.39087 3.16964 2.36052 3.31117 2.36052H9.78064V0H6.92968C6.51753 0 6.01279 0.0695592 5.49051 0.202835C3.98477 0.58706 2.33286 1.50085 2.33106 2.80421V2.80917C2.33115 2.85872 2.33362 2.90883 2.33858 2.95949L2.33896 2.96336C2.34091 2.98269 2.34321 3.0021 2.34587 3.02159L2.34645 3.02575L2.34878 3.02224C2.3556 3.012 2.36242 3.00186 2.36924 2.99184C2.37254 2.987 2.37584 2.98218 2.37913 2.97739ZM9.78069 2.36052C10.8059 2.36052 11.8211 2.55812 12.7683 2.94203C13.7155 3.32597 14.5761 3.88867 15.3011 4.59807C16.026 5.30747 16.6011 6.14961 16.9934 7.07648C17.3858 8.00335 17.5877 8.99678 17.5877 10C17.5877 11.0032 17.3858 11.9967 16.9934 12.9235C16.6011 13.8504 16.026 14.6925 15.3011 15.4019C14.5761 16.1113 13.7155 16.674 12.7683 17.058C11.8211 17.4419 10.8059 17.6395 9.78069 17.6395V20C11.1227 20 12.4516 19.7413 13.6914 19.2388C14.9313 18.7363 16.0579 17.9997 17.0068 17.0711C17.9558 16.1425 18.7085 15.0401 19.2221 13.8268C19.7356 12.6136 20 11.3132 20 10C20 8.68678 19.7356 7.38644 19.2221 6.17318C18.7085 4.95991 17.9558 3.85751 17.0068 2.92893C16.0579 2.00035 14.9313 1.26375 13.6914 0.761206C12.4516 0.258657 11.1227 0 9.78069 0V2.36052ZM9.42981 6.99571C9.83301 6.99571 10.2322 7.07343 10.6047 7.22438C10.9772 7.37536 11.3156 7.59665 11.6007 7.87567C11.8859 8.15464 12.112 8.48579 12.2663 8.8503C12.4206 9.21481 12.5 9.60545 12.5 10C12.5 10.3945 12.4206 10.7852 12.2663 11.1497C12.112 11.5142 11.8859 11.8454 11.6007 12.1243C11.3156 12.4033 10.9772 12.6246 10.6047 12.7756C10.2322 12.9266 9.83301 13.0043 9.42981 13.0043H2.98244V15.3648H9.42981C10.1498 15.3648 10.8627 15.2261 11.5278 14.9564C12.193 14.6868 12.7974 14.2917 13.3065 13.7935C13.8156 13.2953 14.2194 12.7039 14.4949 12.053C14.7705 11.4021 14.9123 10.7045 14.9123 10C14.9123 9.29549 14.7705 8.59785 14.4949 7.947C14.2194 7.29609 13.8156 6.70468 13.3065 6.20652C12.7974 5.70833 12.193 5.31318 11.5278 5.04356C10.8627 4.77395 10.1498 4.63519 9.42981 4.63519H2.98244V6.99571H9.42981ZM2.39943 17.6464C2.85448 19.1292 5.47139 20 6.92968 20H9.78064V17.6395H3.31117C2.98308 17.6395 2.73073 17.4764 2.49118 17.1747C2.44258 17.1135 2.39451 17.0466 2.34645 16.9742C2.34643 16.9744 2.34641 16.9745 2.3464 16.9746C2.31355 17.2105 2.33445 17.4347 2.39943 17.6464Z" fill="#7A7A86"/>
<path fill-rule="evenodd" clip-rule="evenodd" d="M2.34649 3.03002C2.35752 3.25074 2.47869 3.82692 2.6522 4.04555L8.0257 9.68429C8.10785 9.77047 8.14676 9.88098 8.14333 9.99017C8.14592 10.0983 8.10697 10.2075 8.02561 10.2928L2.67922 15.9031L2.68759 15.9106C2.52242 16.0876 2.35846 16.7305 2.34649 16.9699C2.21672 19.5665 6.75439 19.9957 6.75439 19.9957C5.92092 19.9887 5.27338 19.9932 4.75316 19.9968C3.68552 20.0042 3.15373 20.0078 2.65017 19.9006C1.86648 19.7151 1.17344 19.2679 0.690452 18.6362C0.20746 18.0044 -0.0352509 17.2276 0.00413946 16.4395C0.0430319 15.6613 0.354592 14.9203 0.885899 14.3409L0.877193 14.3329L5.01728 9.98849L0.909605 5.67811L0.906233 5.68111C0.362543 5.09845 0.0435254 4.34854 0.00413946 3.56047C-0.0352509 2.77241 0.20746 1.99559 0.690452 1.36382C1.17344 0.732043 1.86648 0.284875 2.65017 0.0993514C3.15378 -0.00788553 3.68562 -0.00419308 4.75342 0.00322039C5.27364 0.0068321 5.92105 0.011327 6.75439 0.00430845C6.75439 0.00430845 2.21672 0.433459 2.34649 3.03002Z" fill="#7A7A86"/>
</svg>
