<svg width="18" height="20" viewBox="0 0 18 20" fill="none" xmlns="http://www.w3.org/2000/svg">
<path fill-rule="evenodd" clip-rule="evenodd" d="M0.37915 2.97739L0.383826 2.97061C0.44094 2.88807 0.498247 2.81334 0.556628 2.74678C0.67251 2.61467 0.792619 2.51471 0.923834 2.44961C1.04222 2.39087 1.16966 2.36052 1.31119 2.36052H7.78066V0H4.92969C4.51754 0 4.01281 0.0695592 3.49053 0.202835C1.98478 0.58706 0.332874 1.50085 0.331071 2.80421V2.80917C0.331163 2.85872 0.333637 2.90883 0.338598 2.95949L0.338979 2.96336C0.340922 2.98269 0.34322 3.0021 0.345887 3.02159L0.346462 3.02575L0.348795 3.02224C0.355615 3.012 0.362435 3.00186 0.36926 2.99184C0.372558 2.987 0.375852 2.98218 0.37915 2.97739ZM7.7807 2.36052C8.80592 2.36052 9.82114 2.55812 10.7683 2.94203C11.7155 3.32597 12.5761 3.88867 13.3011 4.59807C14.026 5.30747 14.6011 6.14961 14.9935 7.07648C15.3858 8.00335 15.5877 8.99678 15.5877 10C15.5877 11.0032 15.3858 11.9967 14.9935 12.9235C14.6011 13.8504 14.026 14.6925 13.3011 15.4019C12.5761 16.1113 11.7155 16.674 10.7683 17.058C9.82114 17.4419 8.80592 17.6395 7.7807 17.6395V20C9.12272 20 10.4516 19.7413 11.6914 19.2388C12.9313 18.7363 14.0579 17.9997 15.0068 17.0711C15.9558 16.1425 16.7085 15.0401 17.2221 13.8268C17.7357 12.6136 18 11.3132 18 10C18 8.68678 17.7357 7.38644 17.2221 6.17318C16.7085 4.95991 15.9558 3.85751 15.0068 2.92893C14.0579 2.00035 12.9313 1.26375 11.6914 0.761206C10.4516 0.258657 9.12272 0 7.7807 0V2.36052ZM7.42982 6.99571C7.83303 6.99571 8.23224 7.07343 8.60474 7.22438C8.97723 7.37536 9.31566 7.59665 9.60074 7.87567C9.88588 8.15464 10.112 8.48579 10.2663 8.8503C10.4206 9.21481 10.5 9.60545 10.5 10C10.5 10.3945 10.4206 10.7852 10.2663 11.1497C10.112 11.5142 9.88588 11.8454 9.60074 12.1243C9.31566 12.4033 8.97723 12.6246 8.60474 12.7756C8.23224 12.9266 7.83303 13.0043 7.42982 13.0043H0.982457V15.3648H7.42982C8.14978 15.3648 8.86272 15.2261 9.52785 14.9564C10.193 14.6868 10.7974 14.2917 11.3065 13.7935C11.8156 13.2953 12.2194 12.7039 12.495 12.053C12.7705 11.4021 12.9123 10.7045 12.9123 10C12.9123 9.29549 12.7705 8.59785 12.495 7.947C12.2194 7.29609 11.8156 6.70468 11.3065 6.20652C10.7974 5.70833 10.193 5.31318 9.52785 5.04356C8.86272 4.77395 8.14978 4.63519 7.42982 4.63519H0.982457V6.99571H7.42982ZM0.399444 17.6464C0.854492 19.1292 3.4714 20 4.92969 20H7.78066V17.6395H1.31119C0.983097 17.6395 0.730747 17.4764 0.491194 17.1747C0.442597 17.1135 0.394527 17.0466 0.346462 16.9742C0.346444 16.9744 0.346427 16.9745 0.346413 16.9746C0.313567 17.2105 0.334466 17.4347 0.399444 17.6464Z" fill="#7A7A86"/>
</svg>
