<svg width="60" height="60" viewBox="0 0 60 60" fill="none" xmlns="http://www.w3.org/2000/svg">
<rect width="60" height="60" rx="30" fill="#5B93FF" fill-opacity="0.2"/>
<path d="M40.6398 20.8925C38.0923 18.8425 34.0623 18.495 33.8898 18.4825C33.6223 18.46 33.3673 18.61 33.2573 18.8575C33.2473 18.8725 33.1598 19.075 33.0623 19.39C34.7473 19.675 36.8173 20.2475 38.6898 21.41C38.9898 21.595 39.0823 21.99 38.8973 22.29C38.7748 22.4875 38.5673 22.595 38.3523 22.595C38.2373 22.595 38.1198 22.5625 38.0148 22.4975C34.7948 20.5 30.7748 20.4 29.9998 20.4C29.2248 20.4 25.2023 20.5 21.9848 22.4975C21.6848 22.685 21.2898 22.5925 21.1048 22.2925C20.9173 21.99 21.0098 21.5975 21.3098 21.41C23.1823 20.25 25.2523 19.675 26.9373 19.3925C26.8398 19.075 26.7523 18.875 26.7448 18.8575C26.6323 18.61 26.3798 18.455 26.1098 18.4825C25.9373 18.495 21.9073 18.8425 19.3248 20.92C17.9773 22.1675 15.2798 29.4575 15.2798 35.76C15.2798 35.8725 15.3098 35.98 15.3648 36.0775C17.2248 39.3475 22.3023 40.2025 23.4598 40.24C23.4648 40.24 23.4723 40.24 23.4798 40.24C23.6848 40.24 23.8773 40.1425 23.9973 39.9775L25.1673 38.3675C22.0098 37.5525 20.3973 36.1675 20.3048 36.085C20.0398 35.8525 20.0148 35.4475 20.2498 35.1825C20.4823 34.9175 20.8873 34.8925 21.1523 35.125C21.1898 35.16 24.1598 37.68 29.9998 37.68C35.8498 37.68 38.8198 35.15 38.8498 35.125C39.1148 34.895 39.5173 34.9175 39.7523 35.185C39.9848 35.45 39.9598 35.8525 39.6948 36.085C39.6023 36.1675 37.9898 37.5525 34.8323 38.3675L36.0023 39.9775C36.1223 40.1425 36.3148 40.24 36.5198 40.24C36.5273 40.24 36.5348 40.24 36.5398 40.24C37.6973 40.2025 42.7748 39.3475 44.6348 36.0775C44.6898 35.98 44.7198 35.8725 44.7198 35.76C44.7198 29.4575 42.0223 22.1675 40.6398 20.8925ZM25.8398 33.2C24.6023 33.2 23.5998 32.055 23.5998 30.64C23.5998 29.225 24.6023 28.08 25.8398 28.08C27.0773 28.08 28.0798 29.225 28.0798 30.64C28.0798 32.055 27.0773 33.2 25.8398 33.2ZM34.1598 33.2C32.9223 33.2 31.9198 32.055 31.9198 30.64C31.9198 29.225 32.9223 28.08 34.1598 28.08C35.3973 28.08 36.3998 29.225 36.3998 30.64C36.3998 32.055 35.3973 33.2 34.1598 33.2Z" fill="#5B93FF"/>
</svg>
