<svg width="24" height="19" viewBox="0 0 24 19" fill="none" xmlns="http://www.w3.org/2000/svg">
<path d="M20.6739 2.56724C18.5971 0.896043 15.3118 0.612755 15.1712 0.602564C14.9531 0.584222 14.7452 0.706505 14.6556 0.908271C14.6474 0.920499 14.5761 1.08558 14.4966 1.34237C15.8702 1.57471 17.5577 2.04142 19.0842 2.98911C19.3288 3.13993 19.4042 3.46194 19.2534 3.7065C19.1535 3.86751 18.9844 3.95515 18.8091 3.95515C18.7154 3.95515 18.6196 3.92865 18.534 3.87566C15.909 2.24727 12.6318 2.16574 12 2.16574C11.3682 2.16574 8.08899 2.24727 5.46603 3.87566C5.22147 4.02851 4.89946 3.95311 4.74864 3.70854C4.59579 3.46194 4.6712 3.14197 4.91576 2.98911C6.44226 2.04346 8.12976 1.57471 9.5034 1.34441C9.42391 1.08558 9.35258 0.922538 9.34647 0.908271C9.25475 0.706505 9.04891 0.580146 8.8288 0.602564C8.68818 0.612755 5.40285 0.896043 3.29755 2.58966C2.19905 3.60664 0 9.54957 0 14.6875C0 14.7792 0.0244565 14.8668 0.0692937 14.9463C1.5856 17.6121 5.72486 18.3091 6.66848 18.3397C6.67255 18.3397 6.67867 18.3397 6.68478 18.3397C6.8519 18.3397 7.00883 18.2602 7.10666 18.1257L8.06046 16.8132C5.48641 16.1488 4.17188 15.0197 4.09647 14.9524C3.88043 14.7629 3.86005 14.4327 4.05163 14.2167C4.24117 14.0007 4.57133 13.9803 4.78736 14.1698C4.81793 14.1983 7.23913 16.2527 12 16.2527C16.769 16.2527 19.1902 14.1902 19.2147 14.1698C19.4307 13.9823 19.7588 14.0007 19.9504 14.2187C20.1399 14.4348 20.1196 14.7629 19.9035 14.9524C19.8281 15.0197 18.5136 16.1488 15.9395 16.8132L16.8933 18.1257C16.9912 18.2602 17.1481 18.3397 17.3152 18.3397C17.3213 18.3397 17.3274 18.3397 17.3315 18.3397C18.2751 18.3091 22.4144 17.6121 23.9307 14.9463C23.9755 14.8668 24 14.7792 24 14.6875C24 9.54957 21.801 3.60664 20.6739 2.56724ZM8.6087 12.6005C7.59986 12.6005 6.78261 11.6671 6.78261 10.5136C6.78261 9.36004 7.59986 8.42661 8.6087 8.42661C9.61753 8.42661 10.4348 9.36004 10.4348 10.5136C10.4348 11.6671 9.61753 12.6005 8.6087 12.6005ZM15.3913 12.6005C14.3825 12.6005 13.5652 11.6671 13.5652 10.5136C13.5652 9.36004 14.3825 8.42661 15.3913 8.42661C16.4001 8.42661 17.2174 9.36004 17.2174 10.5136C17.2174 11.6671 16.4001 12.6005 15.3913 12.6005Z" fill="#121127"/>
</svg>
