<svg width="20" height="15" viewBox="0 0 20 15" fill="none" xmlns="http://www.w3.org/2000/svg">
<path d="M17.2283 1.63937C15.4976 0.246704 12.7598 0.0106303 12.6427 0.00213817C12.4609 -0.013147 12.2877 0.0887553 12.213 0.256894C12.2062 0.267084 12.1467 0.404652 12.0805 0.618646C13.2252 0.812261 14.6315 1.20119 15.9035 1.99093C16.1073 2.11661 16.1702 2.38495 16.0445 2.58875C15.9613 2.72293 15.8203 2.79596 15.6743 2.79596C15.5961 2.79596 15.5163 2.77388 15.445 2.72972C13.2575 1.37272 10.5265 1.30479 10 1.30479C9.47351 1.30479 6.74083 1.37272 4.55503 2.72972C4.35122 2.8571 4.08288 2.79426 3.9572 2.59045C3.82982 2.38495 3.89266 2.11831 4.09647 1.99093C5.36855 1.20289 6.7748 0.812261 7.9195 0.620345C7.85326 0.404652 7.79382 0.268783 7.78872 0.256894C7.7123 0.0887553 7.54076 -0.0165436 7.35734 0.00213817C7.24015 0.0106303 4.50238 0.246703 2.74796 1.65805C1.83254 2.50553 0 7.45798 0 11.7396C0 11.816 0.0203804 11.889 0.0577448 11.9553C1.32133 14.1767 4.77072 14.7576 5.55707 14.783C5.56046 14.783 5.56556 14.783 5.57065 14.783C5.70992 14.783 5.84069 14.7168 5.92221 14.6047L6.71705 13.511C4.57201 12.9573 3.47656 12.0164 3.41372 11.9604C3.2337 11.8024 3.21671 11.5273 3.37636 11.3472C3.53431 11.1672 3.80944 11.1502 3.98947 11.3082C4.01495 11.332 6.03261 13.0439 10 13.0439C13.9742 13.0439 15.9918 11.3252 16.0122 11.3082C16.1923 11.1519 16.4657 11.1672 16.6253 11.3489C16.7833 11.529 16.7663 11.8024 16.5863 11.9604C16.5234 12.0164 15.428 12.9573 13.2829 13.511L14.0778 14.6047C14.1593 14.7168 14.2901 14.783 14.4293 14.783C14.4344 14.783 14.4395 14.783 14.4429 14.783C15.2293 14.7576 18.6787 14.1767 19.9423 11.9553C19.9796 11.889 20 11.816 20 11.7396C20 7.45798 18.1675 2.50553 17.2283 1.63937ZM7.17391 10.0004C6.33322 10.0004 5.65217 9.22258 5.65217 8.26131C5.65217 7.30003 6.33322 6.52218 7.17391 6.52218C8.01461 6.52218 8.69565 7.30003 8.69565 8.26131C8.69565 9.22258 8.01461 10.0004 7.17391 10.0004ZM12.8261 10.0004C11.9854 10.0004 11.3043 9.22258 11.3043 8.26131C11.3043 7.30003 11.9854 6.52218 12.8261 6.52218C13.6668 6.52218 14.3478 7.30003 14.3478 8.26131C14.3478 9.22258 13.6668 10.0004 12.8261 10.0004Z" fill="#7A7A86"/>
</svg>
