<svg width="22" height="24" viewBox="0 0 22 24" fill="none" xmlns="http://www.w3.org/2000/svg">
<path fill-rule="evenodd" clip-rule="evenodd" d="M0.85506 3.57286L0.86067 3.56474C0.929207 3.46568 0.997975 3.37601 1.06803 3.29614C1.20709 3.1376 1.35122 3.01765 1.50868 2.93953C1.65075 2.86905 1.80367 2.83262 1.9735 2.83262H9.73687V0H6.31571C5.82113 0 5.21545 0.0834711 4.58871 0.243402C2.78182 0.704472 0.799528 1.80101 0.797365 3.36505V3.37101C0.797475 3.43046 0.800444 3.49059 0.806396 3.55139L0.806854 3.55603C0.809186 3.57922 0.811944 3.60252 0.815144 3.62591L0.815833 3.6309L0.818633 3.62669C0.826818 3.61439 0.835002 3.60224 0.843191 3.5902C0.847149 3.58439 0.851102 3.57861 0.85506 3.57286ZM9.73692 2.83262C10.9672 2.83262 12.1854 3.06974 13.3221 3.53044C14.4587 3.99116 15.4914 4.6664 16.3614 5.51768C17.2313 6.36896 17.9214 7.37954 18.3922 8.49178C18.863 9.60402 19.1053 10.7961 19.1053 12C19.1053 13.2039 18.863 14.396 18.3922 15.5082C17.9214 16.6205 17.2313 17.631 16.3614 18.4823C15.4914 19.3336 14.4587 20.0088 13.3221 20.4696C12.1854 20.9303 10.9672 21.1674 9.73692 21.1674V24C11.3473 24 12.942 23.6896 14.4298 23.0866C15.9177 22.4835 17.2695 21.5996 18.4083 20.4853C19.547 19.371 20.4503 18.0481 21.0666 16.5922C21.6829 15.1363 22.0001 13.5759 22.0001 12C22.0001 10.4241 21.6829 8.86373 21.0666 7.40781C20.4503 5.9519 19.547 4.62901 18.4083 3.51472C17.2695 2.40042 15.9177 1.5165 14.4298 0.913447C12.942 0.310388 11.3473 0 9.73692 0V2.83262ZM9.31587 8.39485C9.79971 8.39485 10.2788 8.48812 10.7258 8.66925C11.1728 8.85044 11.5789 9.11598 11.921 9.4508C12.2631 9.78556 12.5345 10.183 12.7197 10.6204C12.9048 11.0578 13.0001 11.5265 13.0001 12C13.0001 12.4735 12.9048 12.9422 12.7197 13.3796C12.5345 13.817 12.2631 14.2144 11.921 14.5492C11.5789 14.884 11.1728 15.1496 10.7258 15.3307C10.2788 15.5119 9.79971 15.6052 9.31587 15.6052H1.57903V18.4378H9.31587C10.1798 18.4378 11.0353 18.2713 11.8335 17.9477C12.6317 17.6242 13.357 17.15 13.9679 16.5522C14.5788 15.9544 15.0634 15.2447 15.394 14.4636C15.7247 13.6826 15.8948 12.8454 15.8948 12C15.8948 11.1546 15.7247 10.3174 15.394 9.53639C15.0634 8.75531 14.5788 8.04561 13.9679 7.44783C13.357 6.84999 12.6317 6.37581 11.8335 6.05227C11.0353 5.72874 10.1798 5.56223 9.31587 5.56223H1.57903V8.39485H9.31587ZM0.879412 21.1757C1.42547 22.9551 4.56576 24 6.31571 24H9.73687V21.1674H1.9735C1.5798 21.1674 1.27698 20.9716 0.989512 20.6097C0.931196 20.5362 0.873512 20.4559 0.815833 20.3691C0.815812 20.3693 0.815791 20.3694 0.815775 20.3695C0.77636 20.6526 0.801438 20.9217 0.879412 21.1757Z" fill="#121127"/>
</svg>
