<svg width="60" height="60" viewBox="0 0 60 60" fill="none" xmlns="http://www.w3.org/2000/svg">
<rect width="60" height="60" rx="30" fill="#FFD66B" fill-opacity="0.2"/>
<path d="M37.0931 35.1728C36.5862 35.2851 36.0726 35.2889 35.5776 35.1863C35.524 35.0067 35.477 34.8274 35.4365 34.6483C35.9842 34.8561 36.5368 35.0359 37.0931 35.1728Z" stroke="black"/>
<path d="M38.7697 38.176C38.1563 38.3873 37.5232 38.5 36.8917 38.4963C36.8277 38.3415 36.7626 38.1871 36.6973 38.0323C36.6111 37.8277 36.5246 37.6226 36.4402 37.4155C37.0719 37.393 37.7021 37.2873 38.3136 37.0805C38.4765 37.4352 38.6247 37.7961 38.7697 38.176Z" stroke="black"/>
<path d="M39.1019 43.6063C39.0485 43.8283 38.9849 44.0498 38.9164 44.269H32.346C32.6145 44.0023 32.8776 43.7296 33.1309 43.4554C35.0738 44.0284 37.1579 44.1236 39.1019 43.6063Z" stroke="black"/>
<path d="M25.8117 44.2688C28.2948 42.596 30.2927 40.3129 31.6455 37.6457C32.2144 38.118 32.804 38.5368 33.3836 38.9395C32.888 40.7368 31.461 42.3583 29.0947 44.2688H25.8117Z" stroke="black"/>
<path d="M30.8645 19.4748C31.9848 18.7404 32.9706 17.8087 33.7743 16.7279C33.5777 17.697 33.0323 18.735 32.0189 19.8483C31.6475 19.6814 31.2608 19.5559 30.8645 19.4748Z" stroke="black"/>
<path d="M39.3422 40.2244C39.3869 40.5678 39.4144 40.9036 39.4251 41.2502C37.8697 41.8471 36.1544 41.9348 34.5315 41.5433C34.7322 41.1983 34.9234 40.8273 35.0873 40.447C36.4983 40.8425 37.9759 40.7547 39.3422 40.2244Z" stroke="black"/>
<path d="M42.3929 44.269H41.1573C41.4107 43.1823 41.5826 41.9456 41.4687 40.5443C41.3937 39.6207 41.1953 38.6338 40.8214 37.5774C41.2238 38.2843 41.5829 39.0495 41.8647 39.8354C42.413 41.3649 42.6514 42.9248 42.3929 44.269Z" stroke="black"/>
<path d="M38.1829 27.2808C39.4269 28.3027 40.8714 29.0328 42.4204 29.4545C40.5529 29.7022 38.6024 29.557 36.6716 29.0743L35.5838 28.8024L36.1084 29.7933C36.4515 30.4413 37.0639 31.0346 37.7587 31.5606C38.4612 32.0926 39.2889 32.586 40.1095 33.0231C40.7055 33.3406 41.3114 33.6349 41.8712 33.8953C39.1415 33.7077 36.4754 33.0324 33.961 31.8985L33.4918 31.6869L33.2939 32.162C32.9135 33.0748 32.9638 34.0356 33.1525 34.9277C33.2832 35.5455 33.4903 36.1688 33.6885 36.7445C32.3414 35.8117 31.154 34.9554 30.576 33.5894L30.2606 32.8437L29.7351 33.4597C27.8916 35.6211 25.667 37.4009 23.1234 38.7363L23.0201 38.7906L22.9514 38.8849C22.1949 39.9252 21.6032 41.0335 21.1773 42.2087C21.0329 41.5121 21.0143 40.805 21.1204 40.0982L21.1928 39.6151L20.7116 39.5314C20.1418 39.4323 19.7026 39.0751 19.3934 38.5392C19.1986 38.2014 19.0615 37.8007 18.9856 37.3751C19.4168 37.5184 19.8774 37.5991 20.3659 37.5991H20.8659V37.0991C20.8659 36.7502 20.8856 36.4226 20.925 36.1043C21.4108 36.353 21.9403 36.4941 22.5108 36.4941H23.1341L22.9989 35.8857C22.9396 35.6185 22.8943 35.3504 22.856 35.0784C23.2486 35.2313 23.6632 35.3444 24.086 35.3867L24.6358 35.4417V34.8892C24.6358 34.4788 24.6631 34.0764 24.7336 33.679C25.5542 34.027 26.2996 33.9998 26.9905 33.6873C27.787 33.327 28.4536 32.6079 29.064 31.9011L29.3949 31.5179L29.0077 31.1918C28.6083 30.8556 27.9838 30.6181 27.3368 30.4643C26.6732 30.3065 25.9174 30.2207 25.2022 30.2294C24.4959 30.2379 23.7835 30.3388 23.2325 30.5888C22.8847 30.7466 22.5625 30.9866 22.3748 31.3229C22.0986 31.1535 21.8345 30.9303 21.5363 30.6747L21.1847 30.3734L20.8573 30.7008C20.4942 31.0639 20.18 31.5178 19.9756 32.0147C19.8297 31.8046 19.7043 31.5683 19.5879 31.3062L19.1807 30.3902L18.6939 31.2665C18.486 31.6407 18.2973 32.0502 18.164 32.4932C17.9811 32.2885 17.819 32.0676 17.67 31.8293L17.2373 31.137L16.8173 31.837C16.5582 32.2688 16.3525 32.7263 16.1998 33.1936C15.7728 32.627 15.5361 31.9225 15.5361 31.1843V31.1687L15.5351 31.1531C15.4718 30.1399 15.4719 28.4702 15.7255 26.7903C15.8939 25.6747 16.1686 24.5938 16.5856 23.7019C16.6858 24.3408 16.8567 24.9467 17.0862 25.4889C17.4931 26.4498 18.1105 27.2682 18.9074 27.6667L18.9444 27.6852L18.9839 27.6973C19.1686 27.7542 19.3472 27.7239 19.4674 27.6921C19.5983 27.6574 19.7331 27.6006 19.8637 27.5357C20.1258 27.4054 20.4342 27.2106 20.7668 26.9809C21.4346 26.5198 22.2659 25.8718 23.1356 25.1923L23.2186 25.1274C24.0692 24.4627 24.9585 23.7677 25.7944 23.1644C26.6623 22.538 27.4428 22.0325 28.0428 21.762C28.6258 21.5096 29.2466 21.5835 29.9443 21.785C30.1783 21.8526 30.3999 21.9277 30.6282 22.005C30.7476 22.0454 30.8688 22.0865 30.9947 22.1275C31.3428 22.2408 31.7139 22.3486 32.0781 22.3869L32.179 22.3975L32.2761 22.368C36.2035 21.1727 39.8863 19.3377 43.1542 16.9473C41.8688 19.6706 40.0269 22.0819 37.6679 23.9691L36.3279 25.0411L38.034 24.8567C39.867 24.6585 41.6591 24.2754 43.4093 23.7646C42.0114 25.0109 40.2107 25.7808 38.3384 26.4214L37.4899 26.7116L38.1829 27.2808ZM29.0291 25.6229L29.0372 25.6114L29.0446 25.5995C29.2145 25.3278 29.2224 25.0327 29.1635 24.7794C29.1066 24.535 28.9833 24.3046 28.8483 24.1044C28.5775 23.7029 28.183 23.3125 27.8501 23.0129L27.4341 22.6385L27.1088 23.094C26.171 24.4069 24.9237 25.5893 23.4998 26.3942L22.2685 27.0901L23.6636 27.3227C24.3491 27.4369 25.4521 27.3209 26.4583 27.0526C26.9701 26.9161 27.481 26.7341 27.9234 26.5062C28.3578 26.2824 28.7676 25.9933 29.0291 25.6229Z" stroke="black"/>
</svg>
