<svg width="24" height="24" viewBox="0 0 24 24" fill="none" xmlns="http://www.w3.org/2000/svg">
<path d="M24 12.0006C23.9996 9.70745 23.3422 7.46239 22.1056 5.53123C20.8689 3.60007 19.1048 2.06369 17.0221 1.10397C14.9394 0.144252 12.6254 -0.198614 10.3538 0.115962C8.08235 0.430539 5.94855 1.38939 4.20505 2.87899C2.46156 4.36859 1.18139 6.32657 0.516104 8.52112C-0.149185 10.7157 -0.171736 13.0549 0.451122 15.2619C1.07398 17.4688 2.31616 19.4511 4.03061 20.9741C5.74506 22.497 7.85999 23.4968 10.125 23.8551V15.4694H7.0785V12.0006H10.125V9.35688C10.125 6.34938 11.9167 4.68813 14.6572 4.68813C15.5573 4.70061 16.4551 4.77882 17.3438 4.92213V7.87563H15.8303C15.5723 7.84137 15.31 7.8656 15.0628 7.9465C14.8155 8.02741 14.5896 8.16292 14.4018 8.343C14.214 8.52307 14.0691 8.7431 13.978 8.98677C13.8868 9.23044 13.8516 9.49151 13.875 9.75063V12.0006H17.2035L16.671 15.4694H13.875V23.8551C16.6978 23.4086 19.2686 21.9692 21.1248 19.796C22.9809 17.6229 24.0005 14.8586 24 12.0006V12.0006Z" fill="#121127"/>
</svg>
