<svg width="20" height="20" viewBox="0 0 20 20" fill="none" xmlns="http://www.w3.org/2000/svg">
<path d="M10.0848 0C4.61161 0 0 4.39732 0 9.82589C0 10 0.00446429 20 0.00446429 20L10.0848 19.9911C15.5625 19.9911 20 15.4241 20 9.99554C20 4.56696 15.5625 0 10.0848 0ZM10 15.7143C9.13393 15.7143 8.30804 15.5223 7.57143 15.1741L3.95089 16.0714L4.97321 12.7232C4.53571 11.9152 4.28571 10.9866 4.28571 10C4.28571 6.84375 6.84375 4.28571 10 4.28571C13.1562 4.28571 15.7143 6.84375 15.7143 10C15.7143 13.1562 13.1562 15.7143 10 15.7143Z" fill="#7A7A86"/>
</svg>
