<svg width="122" height="118" viewBox="0 0 122 118" fill="none" xmlns="http://www.w3.org/2000/svg">
<g filter="url(#filter0_d_508_1817)">
<path d="M3.63438 42.76V97.64C3.63438 106.12 10.5144 112.84 18.9944 112.84H75.4744C76.2744 113 76.9144 113 77.7144 113H78.5144C85.3944 113 91.1544 108.36 93.0744 101.96C93.8744 99.24 95.4744 96.68 97.5544 94.76L102.994 89.32C104.434 88.36 105.874 87.72 107.314 87.24C113.714 85.32 118.354 79.56 118.354 72.52V67.08C118.354 61.8 114.514 57.96 109.714 57.96H46.9944C42.1944 57.96 38.3544 61.8 38.3544 66.6C38.3544 71.4 42.1944 75.4 46.9944 75.4H86.6744C85.0744 78.76 82.0344 81.32 78.3544 82.28C78.1944 82.28 78.0344 82.28 77.8744 82.28H34.1944V42.76C34.1944 42.44 34.1944 42.28 34.1944 41.96V41.64C35.1544 37 39.9544 31.56 44.9144 31.56H102.994C111.474 31.56 118.354 24.68 118.354 16.2C118.354 7.88 111.474 0.999992 102.994 0.999992H44.1144C37.2344 0.999992 31.3144 5.64 29.5544 12.04C29.0744 13.64 28.2744 15.24 27.1544 16.68L21.8744 21.96C19.9544 24.04 17.3944 25.64 14.6744 26.44C8.27438 28.36 3.63438 34.28 3.63438 41.16V41.96C3.63438 42.28 3.63438 42.44 3.63438 42.76Z" fill="black"/>
</g>
<defs>
<filter id="filter0_d_508_1817" x="0.634277" y="-7.62939e-06" width="120.72" height="118" filterUnits="userSpaceOnUse" color-interpolation-filters="sRGB">
<feFlood flood-opacity="0" result="BackgroundImageFix"/>
<feColorMatrix in="SourceAlpha" type="matrix" values="0 0 0 0 0 0 0 0 0 0 0 0 0 0 0 0 0 0 127 0" result="hardAlpha"/>
<feOffset dy="2"/>
<feGaussianBlur stdDeviation="1.5"/>
<feComposite in2="hardAlpha" operator="out"/>
<feColorMatrix type="matrix" values="0 0 0 0 0 0 0 0 0 0 0 0 0 0 0 0 0 0 0.25 0"/>
<feBlend mode="normal" in2="BackgroundImageFix" result="effect1_dropShadow_508_1817"/>
<feBlend mode="normal" in="SourceGraphic" in2="effect1_dropShadow_508_1817" result="shape"/>
</filter>
</defs>
</svg>
