<svg width="60" height="60" viewBox="0 0 60 60" fill="none" xmlns="http://www.w3.org/2000/svg">
<rect width="60" height="60" rx="30" fill="#FF99D3" fill-opacity="0.2"/>
<g clip-path="url(#clip0_164_807)">
<path d="M43.3319 40H42.6653V39.3333C42.6653 38.4653 42.1066 37.732 41.3319 37.456V27.8773C42.1066 27.6013 42.6653 26.868 42.6653 26V25.3333H43.3319C43.6999 25.3333 43.9986 25.0346 43.9986 24.6666V22.6666H44.6653C44.9613 22.6666 45.2226 22.4706 45.3053 22.1866C45.388 21.9026 45.2733 21.5973 45.024 21.4373L30.3572 12.104C30.1386 11.9653 29.8599 11.9653 29.6412 12.104L14.9746 21.4373C14.7239 21.5973 14.6106 21.9013 14.6932 22.1866C14.7759 22.472 15.0372 22.6666 15.3332 22.6666H15.9999V24.6666C15.9999 25.0346 16.2986 25.3333 16.6666 25.3333H17.3332V26C17.3332 26.868 17.8919 27.6013 18.6666 27.8773V37.456C17.8919 37.732 17.3332 38.4653 17.3332 39.3333V40H16.6666C15.5639 40 14.6666 40.8973 14.6666 42V43.3333C14.6666 43.7013 14.9652 44 15.3332 44H44.6666C45.0346 44 45.3333 43.7013 45.3333 43.3333V42C45.3319 40.8973 44.4346 40 43.3319 40ZM25.6292 18.7787L29.6293 16.112C29.8533 15.9627 30.1453 15.9627 30.3693 16.112L34.3693 18.7787C34.6133 18.9414 34.7226 19.2454 34.6373 19.5267C34.5519 19.808 34.2919 20 33.9986 20H25.9986C25.7052 20 25.4452 19.808 25.3599 19.5267C25.2746 19.2453 25.3852 18.9413 25.6292 18.7787ZM27.9986 37.456C27.2239 37.732 26.6652 38.4653 26.6652 39.3333V40H23.9986V39.3333C23.9986 38.4653 23.4399 37.732 22.6652 37.456V27.8773C23.4399 27.6013 23.9986 26.868 23.9986 26V25.3333H26.6652V26C26.6652 26.868 27.2239 27.6013 27.9986 27.8773V37.456ZM37.3319 37.456C36.5573 37.732 35.9986 38.4653 35.9986 39.3333V40H33.3319V39.3333C33.3319 38.4653 32.7733 37.732 31.9986 37.456V27.8773C32.7733 27.6013 33.3319 26.868 33.3319 26V25.3333H35.9986V26C35.9986 26.868 36.5573 27.6013 37.3319 27.8773V37.456Z" fill="#FF98D3"/>
</g>
<defs>
<clipPath id="clip0_164_807">
<rect width="32" height="32" fill="white" transform="translate(14 12)"/>
</clipPath>
</defs>
</svg>
