<svg width="60" height="60" viewBox="0 0 60 60" fill="none" xmlns="http://www.w3.org/2000/svg">
<rect width="60" height="60" rx="30" fill="#FF99D3" fill-opacity="0.2"/>
<path d="M43.0643 33.9198V26.0802C44.167 25.8552 44.9998 24.8782 44.9998 23.7097C44.9998 22.3756 43.9145 21.2903 42.5804 21.2903C42.141 21.2903 41.7346 21.4171 41.3789 21.6223L32.4027 17.583C32.4066 17.5278 32.4192 17.4756 32.4192 17.4194C32.4192 16.0853 31.3339 15 29.9998 15C28.6657 15 27.5804 16.0853 27.5804 17.4194C27.5804 17.4755 27.593 17.5278 27.5969 17.583L18.6207 21.6223C18.2651 21.4171 17.8587 21.2903 17.4193 21.2903C16.0853 21.2904 15 22.3757 15 23.7097C15 24.8777 15.8327 25.8551 16.9355 26.0802V33.9198C15.8327 34.1449 15 35.1223 15 36.2903C15 37.6244 16.0853 38.7097 17.4194 38.7097C17.8588 38.7097 18.2652 38.5829 18.6209 38.3777L27.5976 42.417C27.5932 42.4722 27.5806 42.5244 27.5806 42.5806C27.5806 43.9147 28.6659 45 30 45C31.3341 45 32.4194 43.9147 32.4194 42.5806C32.4194 42.5245 32.4068 42.4722 32.4029 42.417L41.3797 38.3777C41.7348 38.5829 42.1412 38.7097 42.5806 38.7097C43.9147 38.7097 45 37.6244 45 36.2903C44.9998 35.1223 44.1671 34.1449 43.0643 33.9198ZM42.5804 22.2581C43.3808 22.2582 44.032 22.9094 44.032 23.7097C44.032 24.51 43.3807 25.1613 42.5804 25.1613C41.7801 25.1613 41.1288 24.51 41.1288 23.7097C41.1288 22.9094 41.7801 22.2581 42.5804 22.2581ZM42.0966 26.0802V33.9198C41.9534 33.9489 41.816 33.9944 41.6834 34.048L39.1073 30L41.6834 25.952C41.8165 26.0052 41.9534 26.0506 42.0966 26.0802ZM38.5339 29.0986L35.4125 24.1937H40.21V24.1936C40.3067 24.6678 40.5429 25.0921 40.8734 25.4217L38.5339 29.0986ZM37.9601 30L34.2653 35.8064H25.7351L22.0403 30L25.7351 24.1936H34.2653L37.9601 30ZM32.139 18.5255L40.5966 22.3316C40.4118 22.5968 40.2768 22.8982 40.21 23.2258H34.7965L31.9808 18.8013C32.0413 18.7147 32.0902 18.6203 32.139 18.5255ZM29.9999 15.9679C30.8002 15.9679 31.4515 16.6192 31.4515 17.4195C31.4515 18.2198 30.8002 18.8711 29.9999 18.8711C29.1996 18.8711 28.5483 18.2198 28.5483 17.4195C28.5483 16.6192 29.1996 15.9679 29.9999 15.9679ZM28.7385 19.474C29.1067 19.7009 29.5363 19.8388 29.9999 19.8388C30.4635 19.8388 30.8931 19.7009 31.2613 19.474L33.6492 23.2259H26.3505L28.7385 19.474ZM27.8612 18.5256C27.91 18.6199 27.9585 18.7142 28.019 18.8014L25.2033 23.2259H19.7898C19.723 22.8983 19.588 22.5969 19.4032 22.3317L27.8612 18.5256ZM19.7898 24.1936H24.5878L21.4664 29.0985L19.1269 25.4216C19.4569 25.0921 19.6931 24.6678 19.7898 24.1936ZM20.8925 30L18.3164 34.048C18.1838 33.9943 18.0464 33.9489 17.9032 33.9198V26.0802C18.0464 26.0511 18.1838 26.0057 18.3164 25.952L20.8925 30ZM15.9678 23.7097C15.9678 22.9094 16.6191 22.2581 17.4194 22.2581C18.2197 22.2581 18.871 22.9094 18.871 23.7097C18.871 24.51 18.2197 25.1613 17.4194 25.1613C16.6191 25.1613 15.9678 24.51 15.9678 23.7097ZM17.4194 37.7419C16.6191 37.7419 15.9678 37.0906 15.9678 36.2903C15.9678 35.49 16.6191 34.8387 17.4194 34.8387C18.2197 34.8387 18.871 35.49 18.871 36.2903C18.871 37.0906 18.2197 37.7419 17.4194 37.7419ZM21.4659 30.9014L24.5873 35.8063H19.7898V35.8064C19.6931 35.3322 19.4569 34.9079 19.1264 34.5783L21.4659 30.9014ZM27.8608 41.4745L19.4032 37.6684C19.588 37.4032 19.723 37.1018 19.7898 36.7742H25.2033L28.019 41.1987C27.9585 41.2853 27.9096 41.3797 27.8608 41.4745ZM29.9999 44.0321C29.1996 44.0321 28.5483 43.3808 28.5483 42.5805C28.5483 41.7802 29.1996 41.1289 29.9999 41.1289C30.8002 41.1289 31.4515 41.7802 31.4515 42.5805C31.4515 43.3809 30.8002 44.0321 29.9999 44.0321ZM31.2613 40.5261C30.8931 40.2992 30.4635 40.1613 29.9999 40.1613C29.5363 40.1613 29.1067 40.2992 28.7385 40.5261L26.3506 36.7742H33.6488L31.2613 40.5261ZM32.1386 41.4745C32.0898 41.3801 32.0414 41.2858 31.9808 41.1987L34.7965 36.7742H40.21C40.2768 37.1018 40.4118 37.4032 40.5966 37.6684L32.1386 41.4745ZM40.21 35.8064H35.412L38.5334 30.9014L40.8729 34.5783C40.5429 34.9079 40.3067 35.3322 40.21 35.8064ZM42.5805 37.7419C41.7802 37.7419 41.1289 37.0906 41.1289 36.2903C41.1289 35.49 41.7802 34.8387 42.5805 34.8387C43.3808 34.8387 44.0321 35.49 44.0321 36.2903C44.032 37.0906 43.3808 37.7419 42.5805 37.7419Z" fill="black"/>
<path d="M29.9998 24.6775C27.0651 24.6775 24.6772 27.0654 24.6772 30C24.6772 32.9347 27.0651 35.3226 29.9998 35.3226C32.9345 35.3226 35.3223 32.9347 35.3223 30C35.3223 27.0654 32.9345 24.6775 29.9998 24.6775ZM28.6048 25.8784C28.2496 26.3207 27.8775 26.8946 27.5901 27.5807H26.3815C26.9099 26.7924 27.6903 26.1891 28.6048 25.8784ZM25.8989 28.5484H27.274C27.2002 28.8548 27.1459 29.1765 27.1193 29.5162H25.6735C25.7107 29.1803 25.7896 28.8571 25.8989 28.5484ZM25.8986 31.4517C25.7897 31.143 25.7108 30.8197 25.6736 30.4839H27.1194C27.146 30.8236 27.2002 31.1454 27.2737 31.4517H25.8986ZM26.3815 32.4194H27.5902C27.8776 33.1055 28.2496 33.6794 28.6049 34.1216C27.6903 33.811 26.9099 33.2076 26.3815 32.4194ZM29.5159 33.6968C29.2338 33.3697 28.9222 32.9405 28.658 32.4194H29.5159V33.6968ZM29.5159 31.4517H28.2719C28.1839 31.1493 28.12 30.826 28.0881 30.4839H29.5159V31.4517ZM29.5159 29.5162H28.0881C28.1205 29.174 28.1853 28.8513 28.2739 28.5484H29.5159V29.5162ZM29.5159 27.5808H28.6619C28.925 27.063 29.2353 26.6347 29.5159 26.3082V27.5808ZM33.6182 27.5808H32.4095C32.1221 26.8947 31.7501 26.3208 31.3948 25.8785C32.3093 26.1891 33.0898 26.7924 33.6182 27.5808ZM31.9116 29.5162H30.4838V28.5484H31.7277C31.8153 28.8508 31.8796 29.174 31.9116 29.5162ZM30.4837 26.3034C30.7658 26.6305 31.0774 27.0597 31.3416 27.5808H30.4837V26.3034ZM30.4837 30.4839H31.9115C31.8791 30.826 31.8143 31.1488 31.7257 31.4517H30.4837V30.4839ZM30.4837 33.692V32.4194H31.3377C31.0746 32.9371 30.7643 33.3654 30.4837 33.692ZM31.3948 34.1216C31.75 33.6794 32.1221 33.1055 32.4095 32.4194H33.6182C33.0898 33.2076 32.3093 33.811 31.3948 34.1216ZM34.1007 31.4517H32.7255C32.7994 31.1453 32.8537 30.8236 32.8803 30.4839H34.3261C34.2889 30.8197 34.21 31.143 34.1007 31.4517ZM34.3265 29.5162H32.8803C32.8537 29.1765 32.7995 28.8547 32.726 28.5484H34.1011C34.2109 28.8571 34.2893 29.1803 34.3265 29.5162Z" fill="black"/>
<path d="M30.4839 21.2904H29.5161V22.2582H30.4839V21.2904Z" fill="black"/>
<path d="M30.4839 37.7419H29.5161V38.7097H30.4839V37.7419Z" fill="black"/>
<path d="M38.7095 33.871H37.7417V34.8387H38.7095V33.871Z" fill="black"/>
<path d="M22.2583 33.871H21.2905V34.8387H22.2583V33.871Z" fill="black"/>
<path d="M38.7095 25.1614H37.7417V26.1291H38.7095V25.1614Z" fill="black"/>
<path d="M22.2583 25.1614H21.2905V26.1291H22.2583V25.1614Z" fill="black"/>
</svg>
