<svg width="200" height="40" viewBox="0 0 200 40" fill="none" xmlns="http://www.w3.org/2000/svg">
<path fill-rule="evenodd" clip-rule="evenodd" d="M5.64454 0.572391H17.9102C21.4023 0.676871 24.2428 1.57567 26.4318 3.2688C28.7968 5.09542 30.3121 7.56568 30.9777 10.6796L36.547 0.572391H48.3625L50.7755 11.2095C53.1153 4.89335 57.6033 1.22128 64.2397 0.193318C70.1584 -0.354361 74.7396 1.50039 77.9831 5.75758C80.3022 2.08794 84.1475 0.168747 89.5189 0C94.6936 0 99.3092 1.71696 103.366 5.15089L102.504 6.74445C103.513 6.08653 104.697 5.59492 106.055 5.26962C107.266 5.01563 108.55 4.98749 109.907 5.18518H123.295L123.201 5.75758H144.975L144.71 7.23035C146.032 6.3562 147.524 5.80157 149.186 5.56645C150.602 5.39362 151.944 5.49424 153.213 5.86832L153.235 5.75758H176.078C176.847 5.4393 178.917 5.32707 182.288 5.42088L182.112 6.88537C183.352 6.2063 184.852 5.77443 186.611 5.58976C190.492 5.25903 193.901 6.26795 196.566 8.75155C200.018 12.1475 200.868 17.0306 199.114 23.4007H198.253L199.555 24.8001C197.154 27.3476 195.284 28.945 193.946 29.5923C191.956 30.6273 189.799 31.1448 187.476 31.1448C184.21 31.0706 181.498 30.2452 179.341 28.6685C176.443 26.4339 174.994 23.3541 174.994 19.429L172.728 30.9091H150.205C149.488 31.0887 148.71 31.1785 147.873 31.1785C146.993 31.156 146.15 31.025 145.343 30.7852C144.519 30.5307 143.746 30.1552 143.025 29.6589C142.103 29.0145 141.397 28.3562 140.907 27.6839L140.315 30.9091H128.191C126.868 31.2233 125.563 31.2648 124.278 31.0335C122.373 30.6663 120.771 29.7638 119.47 28.3263L117.538 40H104.188L105.612 31.0853C104.044 31.1883 102.563 30.9416 101.17 30.3452C99.6917 29.6551 98.5088 28.7223 97.6211 27.5468C95.2005 30.0116 91.7996 31.2895 87.4186 31.3805C82.8058 31.3805 78.7414 30.0033 75.2254 27.249C72.3459 29.8477 68.8731 31.2473 64.8068 31.4478C60.9466 31.645 57.5276 30.4785 54.5496 27.9481L55.2253 30.9091H40.71L40.1377 27.5758H36.3545L34.6866 30.9091H19.8166L20.4058 29.8517C19.5647 30.1559 18.6894 30.3931 17.7799 30.563C16.8703 30.733 15.8595 30.8484 14.7474 30.9091H0L5.64454 0.572391Z" fill="url(#paint0_linear_142_727)"/>
<path d="M17.6225 3.93939C19.8551 3.93939 21.7824 4.37711 23.4042 5.25253C25.026 6.1055 26.2371 7.34007 27.0375 8.95623C27.859 10.5499 28.217 12.413 28.1117 14.5455C27.9853 17.1268 27.3008 19.4052 26.0581 21.3805C24.8365 23.3333 23.183 24.8485 21.0978 25.9259C19.0126 27.0034 16.643 27.5421 13.9891 27.5421H3.84741L8.239 3.93939H17.6225ZM20.5607 14.6465C20.5607 13.2323 20.2027 12.11 19.4865 11.2795C18.7915 10.4265 17.8226 10 16.5799 10H14.4315L12.3146 21.4815H15.3161C16.306 21.4815 17.2012 21.2009 18.0016 20.6397C18.802 20.0561 19.4233 19.248 19.8657 18.2155C20.329 17.1605 20.5607 15.9708 20.5607 14.6465ZM43.3467 27.5421L42.7781 24.2088H34.4688L32.7943 27.5421H25.3381L38.3549 3.93939H45.8743L51.2137 27.5421H43.3467ZM37.2491 18.6195H41.8618L40.6928 11.7508L37.2491 18.6195ZM66.4515 3.43435C68.6209 3.43435 70.5376 3.91695 72.2016 4.88216C73.8866 5.82492 75.1925 7.13805 76.1193 8.82155C77.046 10.5051 77.5094 12.4242 77.5094 14.5791C77.5094 17.1156 76.9196 19.4164 75.7401 21.4815C74.5606 23.5241 72.9493 25.1403 70.9062 26.33C68.8631 27.4972 66.5989 28.0808 64.1135 28.0808C61.944 28.0808 60.0168 27.5982 58.3318 26.633C56.6678 25.6678 55.3724 24.3322 54.4457 22.6263C53.5189 20.9203 53.0555 18.9899 53.0555 16.835C53.0555 14.2985 53.6453 12.009 54.8248 9.96633C56.0043 7.92368 57.6156 6.32997 59.6587 5.18519C61.7018 4.01796 63.966 3.43435 66.4515 3.43435ZM65.9143 9.93266C65.0086 9.93266 64.1451 10.2132 63.3236 10.7744C62.5232 11.3356 61.8703 12.11 61.3648 13.0976C60.8593 14.0629 60.6065 15.1291 60.6065 16.2963C60.6065 17.284 60.7961 18.1818 61.1752 18.9899C61.5544 19.798 62.0599 20.4377 62.6917 20.9091C63.3447 21.358 64.0503 21.5825 64.8086 21.5825C65.7143 21.5825 66.5568 21.3019 67.3361 20.7407C68.1365 20.1571 68.7684 19.3715 69.2317 18.3838C69.7162 17.3962 69.9584 16.3075 69.9584 15.1178C69.9584 13.6139 69.5687 12.3794 68.7894 11.4141C68.0312 10.4265 67.0728 9.93266 65.9143 9.93266ZM89.7566 3.367C91.4837 3.367 93.1793 3.62514 94.8432 4.14142C96.5072 4.65769 97.9395 5.34232 99.14 6.19529L95.8858 12.1549C94.7695 11.4141 93.4952 10.7632 92.0629 10.202C90.6517 9.64086 89.4828 9.36027 88.556 9.36027C88.1137 9.36027 87.7556 9.45006 87.4818 9.62963C87.229 9.80921 87.1027 10.0898 87.1027 10.4714C87.1027 10.9652 87.3659 11.358 87.8925 11.6498C88.4401 11.9416 89.2932 12.2559 90.4516 12.5926C91.8839 13.0415 93.0634 13.4905 93.9902 13.9394C94.938 14.3883 95.7595 15.073 96.4545 15.9933C97.1496 16.9136 97.4971 18.1257 97.4971 19.6296C97.4971 21.4703 97.0338 23.0303 96.107 24.3098C95.2013 25.5668 93.9797 26.4983 92.4421 27.1044C90.9256 27.7104 89.2511 28.0135 87.4186 28.0135C85.4598 28.0135 83.5115 27.6768 81.5737 27.0034C79.657 26.3075 78.0246 25.3648 76.6766 24.1751L79.9624 18.2828C80.9734 19.3154 82.2793 20.202 83.8801 20.9428C85.5019 21.6611 86.8815 22.0202 88.0189 22.0202C88.6087 22.0202 89.072 21.908 89.409 21.6835C89.746 21.4366 89.9145 21.0774 89.9145 20.6061C89.9145 20.0898 89.6407 19.697 89.0931 19.4276C88.5455 19.1358 87.6714 18.8216 86.4708 18.4849C85.0596 18.0808 83.8801 17.6655 82.9322 17.2391C82.0055 16.8126 81.1945 16.1616 80.4995 15.2862C79.8255 14.3883 79.4885 13.2211 79.4885 11.7845C79.4885 10.101 79.9203 8.61953 80.7838 7.34007C81.6474 6.06061 82.848 5.08418 84.3856 4.41078C85.9442 3.71493 87.7345 3.367 89.7566 3.367ZM98.647 18.1818C98.9629 16.3187 99.5948 14.6465 100.543 13.165C101.511 11.6835 102.67 10.5275 104.018 9.69697C105.366 8.844 106.735 8.41751 108.125 8.41751C109.073 8.41751 109.884 8.56342 110.558 8.85522C111.232 9.12458 111.8 9.58474 112.264 10.2357L112.548 8.55219H119.53L114.886 36.633H107.904L109.736 25.4545C108.957 26.2402 108.188 26.8238 107.43 27.2054C106.672 27.5645 105.84 27.7441 104.934 27.7441C103.713 27.7441 102.607 27.4411 101.617 26.835C100.648 26.2065 99.8791 25.3311 99.3104 24.2088C98.7417 23.064 98.4574 21.7396 98.4574 20.2357C98.4574 19.5623 98.5206 18.8777 98.647 18.1818ZM110.968 18.0471C111.011 17.8451 111.032 17.5758 111.032 17.2391C111.032 16.431 110.811 15.8361 110.368 15.4545C109.947 15.073 109.462 14.8822 108.915 14.8822C108.283 14.8822 107.641 15.1627 106.988 15.7239C106.356 16.2626 105.945 17.0819 105.755 18.1818C105.713 18.541 105.692 18.7879 105.692 18.9226C105.692 19.7531 105.903 20.3479 106.324 20.7071C106.766 21.0662 107.272 21.2458 107.841 21.2458C108.494 21.2458 109.125 20.9877 109.736 20.4714C110.368 19.9551 110.779 19.147 110.968 18.0471ZM125.935 27.8115C124.818 27.8115 123.839 27.5533 122.996 27.037C122.154 26.5208 121.49 25.8025 121.006 24.8822C120.543 23.9618 120.311 22.9181 120.311 21.7508C120.311 21.257 120.364 20.6959 120.469 20.0673L122.522 9.12458H129.631L127.799 18.9226C127.757 19.2368 127.735 19.4725 127.735 19.6296C127.735 20.2132 127.872 20.6734 128.146 21.0101C128.441 21.3244 128.841 21.4815 129.347 21.4815C130.021 21.4815 130.642 21.1672 131.211 20.5387C131.801 19.8878 132.18 19.0797 132.348 18.1145L134.023 9.12458H141.131L137.719 27.5421H130.611L131.021 25.2525C129.61 26.9585 127.915 27.8115 125.935 27.8115ZM148.004 27.8115C146.761 27.8115 145.656 27.4748 144.687 26.8014C143.718 26.128 142.96 25.1852 142.412 23.9731C141.885 22.7609 141.622 21.3805 141.622 19.8317C141.622 17.8115 142.012 15.9708 142.791 14.3098C143.592 12.6263 144.666 11.3019 146.014 10.3367C147.383 9.34905 148.889 8.85522 150.532 8.85522C151.627 8.85522 152.585 9.09091 153.407 9.56229C154.249 10.0112 154.913 10.6734 155.397 11.5488L155.84 9.12458H162.948L159.504 27.5421H152.396L152.743 25.7239C151.311 27.1156 149.731 27.8115 148.004 27.8115ZM150.911 22.1549C151.48 22.1549 152.006 21.9641 152.491 21.5825C152.996 21.1785 153.386 20.651 153.66 20C153.954 19.3266 154.102 18.6083 154.102 17.8451C154.102 16.9921 153.902 16.3187 153.502 15.8249C153.101 15.3086 152.564 15.0505 151.89 15.0505C151.027 15.0505 150.29 15.477 149.679 16.33C149.089 17.1605 148.794 18.1594 148.794 19.3266C148.794 20.2245 148.973 20.9203 149.331 21.4141C149.71 21.908 150.237 22.1549 150.911 22.1549ZM173.135 11.5152C174.652 9.69697 176.505 8.78788 178.696 8.78788L177.874 15.5892C177.453 15.5219 177.063 15.4882 176.705 15.4882C175.421 15.4882 174.315 15.8249 173.388 16.4983C172.482 17.1493 171.935 18.0022 171.745 19.0572H171.714L170.134 27.5421H163.025L166.469 9.12458H173.578L173.135 11.5152ZM187.916 8.88889C189.727 8.88889 191.307 9.24804 192.655 9.96633C194.003 10.6622 195.035 11.6611 195.751 12.963C196.489 14.2424 196.857 15.7239 196.857 17.4074C196.857 18.2379 196.762 19.1134 196.573 20.0337H185.136C185.367 21.5152 186.273 22.2559 187.853 22.2559C189.053 22.2559 190.212 21.7957 191.328 20.8754L194.993 24.7138C192.95 26.7565 190.486 27.7778 187.6 27.7778C185.683 27.7778 184.009 27.4411 182.577 26.7677C181.165 26.0943 180.07 25.1291 179.291 23.8721C178.533 22.615 178.153 21.156 178.153 19.495C178.153 17.4748 178.564 15.6566 179.386 14.0404C180.228 12.4242 181.387 11.1672 182.861 10.2694C184.356 9.34905 186.041 8.88889 187.916 8.88889ZM189.97 16.532C190.075 16.2402 190.128 15.982 190.128 15.7576C190.128 15.2638 189.97 14.8485 189.654 14.5118C189.338 14.1751 188.927 14.0067 188.422 14.0067C187.874 14.0067 187.347 14.2424 186.842 14.7138C186.357 15.1627 185.957 15.7688 185.641 16.532H189.97Z" fill="black"/>
<defs>
<linearGradient id="paint0_linear_142_727" x1="110.332" y1="-5.00561" x2="110.332" y2="35.3984" gradientUnits="userSpaceOnUse">
<stop stop-color="#FF96D5"/>
<stop offset="1" stop-color="#FFD390"/>
</linearGradient>
</defs>
</svg>
