<svg width="140" height="140" viewBox="0 0 140 140" fill="none" xmlns="http://www.w3.org/2000/svg">
<rect width="140" height="140" rx="70" fill="#FFD66B"/>
<path d="M96.879 60.8086C96.2993 60.2594 95.3841 60.2846 94.8349 60.8644C94.7863 60.9157 94.7366 60.9669 94.6862 61.0174C94.1215 61.582 94.1215 62.4976 94.6862 63.0624C94.9686 63.3448 95.3386 63.486 95.7087 63.486C96.0788 63.486 96.4489 63.3448 96.7312 63.0624C96.8005 62.9931 96.8684 62.9234 96.9351 62.8527C97.484 62.2727 97.459 61.3576 96.879 60.8086Z" fill="black"/>
<path d="M61.9303 67.3885C61.1317 67.3885 60.4844 68.036 60.4844 68.8344V69.5318C60.4844 70.3302 61.1317 70.9777 61.9303 70.9777C62.7289 70.9777 63.3762 70.3302 63.3762 69.5318V68.8344C63.3762 68.0358 62.7289 67.3885 61.9303 67.3885Z" fill="black"/>
<path d="M67.9515 85.2855L67.4797 84.5522C67.0476 83.8806 66.1527 83.6867 65.4812 84.1187C64.8095 84.5507 64.6155 85.4456 65.0475 86.117L65.5193 86.8502C65.7958 87.2798 66.2613 87.514 66.7367 87.514C67.0046 87.514 67.2757 87.4395 67.5177 87.2837C68.1896 86.8518 68.3836 85.957 67.9515 85.2855Z" fill="black"/>
<path d="M76.443 52.1117C76.4412 52.1109 76.4393 52.1096 76.4375 52.1087C76.439 52.1093 76.4408 52.1106 76.443 52.1117C76.4428 52.1115 76.443 52.1117 76.443 52.1117Z" fill="black"/>
<path d="M100.226 35.6606C100.069 35.6046 96.3304 34.3075 91.4165 35.508C87.1579 36.5489 81.1831 39.7299 76.4119 48.8814C75.4758 48.5346 74.548 48.395 73.6853 48.3584L74.6068 47.4369C75.1715 46.8722 75.1715 45.9566 74.6068 45.3918C74.0422 44.8273 73.1266 44.8273 72.5618 45.3918L71.4477 46.506V44.8075C71.4477 44.0091 70.8003 43.3616 70.0017 43.3616C69.2032 43.3616 68.5558 44.0091 68.5558 44.8075V46.5061L67.4417 45.392C66.877 44.8275 65.9614 44.8275 65.3966 45.392C64.832 45.9566 64.832 46.8722 65.3966 47.437L66.3181 48.3585C65.4554 48.3951 64.5277 48.5345 63.5915 48.8813C58.8203 39.7299 52.8456 36.5489 48.587 35.5082C43.673 34.3071 39.9343 35.6046 39.7776 35.6606C39.1415 35.887 38.7427 36.5233 38.8227 37.1938C38.9028 37.8644 39.432 38.3898 40.1034 38.4601C40.1263 38.4628 42.429 38.7507 45.5257 40.7139C48.2884 42.4652 52.2443 45.9343 55.6848 52.578C54.4533 51.7282 53.0154 51.0945 51.4656 50.746C49.2368 50.2438 46.9746 50.397 45.0954 51.1771C43.1203 51.9971 41.685 53.445 41.0535 55.2543C41.0527 55.257 41.0517 55.2598 41.0509 55.2624C41.0486 55.2691 41.0465 55.2758 41.0443 55.2826C40.9175 55.652 40.8234 56.0395 40.7653 56.4372C40.4603 58.5453 41.1906 60.7278 42.822 62.5824C44.3691 64.3413 46.5667 65.6128 49.0096 66.1624C49.8732 66.3568 50.7375 66.4526 51.5816 66.4526C52.8386 66.4526 54.0496 66.24 55.141 65.825C55.1583 66.0048 55.1757 66.1845 55.1965 66.3654C55.1968 66.3676 55.1969 66.3698 55.1972 66.3718C55.1974 66.3746 55.1977 66.3772 55.198 66.3799C55.5097 69.0748 56.2205 71.8331 57.1991 74.1463C57.6228 75.1489 58.0424 76.0692 58.4126 76.8813C59.8349 80.0009 60.4949 81.5674 59.961 83.0711C58.65 86.7652 60.3706 89.2079 62.038 90.7954C62.1552 92.9297 63.0172 99.5383 69.0678 104.658C69.3373 104.886 69.6696 105 70.0017 105C70.3338 105 70.6662 104.886 70.9357 104.658C76.9861 99.5381 77.8483 92.9298 77.9655 90.7955C79.6322 89.2088 81.3535 86.7659 80.0423 83.0709C79.5086 81.5676 80.1685 80.001 81.5907 76.8813C81.9609 76.0692 82.3805 75.1488 82.8042 74.1461C83.7815 71.8318 84.4923 69.0739 84.8049 66.3811C84.8053 66.3781 84.8055 66.3751 84.8059 66.372C84.8062 66.3697 84.8063 66.3675 84.8066 66.3651C84.8275 66.1845 84.8449 66.0048 84.8622 65.8252C85.9531 66.2402 87.1637 66.4526 88.421 66.4526C89.2647 66.4526 90.1298 66.3569 90.9932 66.1624C91.737 65.995 92.4669 65.758 93.1631 65.4579C93.8964 65.1418 94.2347 64.2911 93.9186 63.5576C93.6025 62.8245 92.7516 62.4864 92.0183 62.8021C91.4864 63.0314 90.9277 63.2128 90.358 63.3411C88.9256 63.6639 87.5156 63.6295 86.3102 63.2656C87.9702 60.7451 91.0959 56.8201 94.01 56.2242C94.8561 56.0508 95.6036 56.1781 96.3313 56.6222C96.3474 56.6981 96.3643 56.7738 96.3757 56.8512C96.442 57.3103 96.4193 57.7871 96.3083 58.2685C96.1285 59.0467 96.6139 59.8232 97.3919 60.0027C97.5014 60.028 97.6108 60.0401 97.7185 60.0401C98.3766 60.0401 98.9718 59.5879 99.1262 58.9192C99.3183 58.0872 99.3559 57.2523 99.2376 56.4349C99.1798 56.0391 99.0855 55.6517 98.9586 55.2815C98.9565 55.2754 98.9546 55.2691 98.9527 55.2629C98.9517 55.2599 98.9508 55.2568 98.9497 55.2536C98.3185 53.4447 96.8831 51.997 94.9079 51.1769C93.0285 50.3968 90.7664 50.2437 88.5383 50.7457C86.988 51.0944 85.55 51.7282 84.3185 52.5779C87.759 45.9341 91.7151 42.4651 94.4776 40.7137C97.5744 38.7506 99.8771 38.4627 99.8913 38.4608C100.563 38.3905 101.096 37.8647 101.176 37.1942C101.257 36.5237 100.862 35.8872 100.226 35.6606ZM49.6449 63.3409C45.993 62.5194 43.2376 59.5475 43.6274 56.8534C43.639 56.775 43.6558 56.6986 43.6722 56.6222C44.3991 56.1785 45.1459 56.051 45.9912 56.2238C48.8976 56.8164 52.028 60.7441 53.6916 63.2657C52.4859 63.6294 51.0765 63.6633 49.6449 63.3409ZM55.2069 60.3826C54.8484 59.8877 54.4456 59.3579 54.0044 58.819C51.6645 55.9603 49.3663 54.1902 47.1628 53.5416C48.2638 53.2825 49.5303 53.2742 50.8307 53.5673C53.0253 54.0609 54.9594 55.3354 56.0322 56.957C55.6489 58.0122 55.3733 59.1568 55.2069 60.3826ZM46.8058 38.0924C47.1611 38.1519 47.5262 38.226 47.9004 38.3176C53.0434 39.5745 57.5178 43.6004 60.909 49.9958L58.1194 50.9918C54.46 44.0215 50.2206 40.1898 46.8058 38.0924ZM70.0017 101.602C67.1319 98.8057 65.8783 95.6806 65.3317 93.4047C65.9996 93.9022 66.6188 94.3849 67.1178 94.8775C67.3885 95.1448 67.7534 95.2945 68.1336 95.2945H71.87C72.2503 95.2945 72.6152 95.1447 72.8858 94.8775C73.3847 94.3851 74.0039 93.9022 74.6719 93.4047C74.1252 95.6806 72.8716 98.8056 70.0017 101.602ZM73.6825 69.2541C73.8993 69.3701 74.1325 69.425 74.3625 69.425C74.879 69.425 75.3789 69.1475 75.6392 68.6601C76.6575 66.7538 78.1312 65.5764 79.5816 65.5104C80.4504 65.4691 81.2304 65.8474 81.8608 66.6043C81.5508 68.8516 80.947 71.1102 80.1401 73.0206C79.7321 73.986 79.3392 74.848 78.9591 75.6816C77.4548 78.9814 76.3679 81.3658 77.3167 84.0383C77.9983 85.9584 77.5124 87.365 75.5846 89.0535C74.9575 89.6018 74.2318 90.1359 73.5298 90.6524C72.7701 91.2114 71.9893 91.786 71.2988 92.4026H68.7041C68.0137 91.7859 67.2329 91.2114 66.4732 90.6524C65.7712 90.136 65.0454 89.6017 64.4192 89.0543C62.4906 87.365 62.0048 85.9586 62.6861 84.0385C63.6349 81.3658 62.548 78.9814 61.0437 75.6816C60.6637 74.848 60.2707 73.9858 59.8626 73.0201C59.0548 71.1108 58.4509 68.8527 58.1418 66.6044C58.7721 65.8471 59.5514 65.4673 60.4215 65.5104C61.8719 65.5764 63.3456 66.7541 64.3639 68.6601C64.6243 69.1475 65.1239 69.425 65.6405 69.425C65.8704 69.425 66.1038 69.3701 66.3206 69.2541C67.0251 68.8779 67.291 68.0019 66.9148 67.2974C65.4113 64.4825 63.0331 62.7343 60.5534 62.6212C59.6226 62.5794 58.7267 62.7737 57.9098 63.174C57.9232 60.9563 58.2774 59.012 58.9657 57.3935C58.971 57.381 58.9762 57.3682 58.9811 57.3555C59.0357 57.228 59.086 57.1165 59.1345 57.0151C59.14 57.0035 59.1441 56.9917 59.1493 56.98C59.1613 56.953 59.1729 56.9261 59.1835 56.8985C59.1904 56.8802 59.1966 56.8613 59.2027 56.8426C59.2112 56.8167 59.2196 56.7906 59.2265 56.7642C59.2321 56.743 59.2371 56.7216 59.2418 56.7C59.247 56.6762 59.2521 56.6521 59.2562 56.6279C59.2603 56.6036 59.2635 56.5791 59.2662 56.5545C59.2686 56.5328 59.271 56.5113 59.2723 56.4894C59.2743 56.4622 59.2749 56.4347 59.2752 56.4072C59.2753 56.3876 59.2756 56.368 59.2751 56.3482C59.2743 56.3188 59.2719 56.2894 59.2693 56.2599C59.2682 56.2472 59.2684 56.2347 59.2669 56.222L58.9781 53.7556L63.4242 52.1682C63.4466 52.1601 63.4688 52.1497 63.4911 52.1404C63.5069 52.1337 63.5229 52.1278 63.5385 52.1207C63.5466 52.1172 63.5552 52.114 63.563 52.1103H63.5631C63.5642 52.1098 63.5654 52.109 63.5665 52.1084C63.6099 52.0875 63.652 52.0648 63.6923 52.0401C63.6959 52.0379 63.6993 52.0353 63.7027 52.0329C63.7043 52.032 63.7058 52.0313 63.7075 52.0303C65.2892 51.0363 67.0239 51.1996 68.5555 51.3472V53.1106C68.5555 53.909 69.2029 54.5565 70.0015 54.5565C70.8 54.5565 71.4474 53.909 71.4474 53.1106V51.3472C72.9795 51.1996 74.7139 51.0361 76.2954 52.0303C76.2971 52.0313 76.2986 52.032 76.3002 52.0329C76.3038 52.0351 76.3071 52.0377 76.3106 52.0401C76.3511 52.0648 76.393 52.0875 76.4364 52.1084C76.4375 52.109 76.4387 52.1098 76.4399 52.1103C76.4479 52.114 76.4566 52.1172 76.4646 52.1208C76.4803 52.1281 76.4963 52.134 76.512 52.1405C76.5145 52.1415 76.5169 52.1426 76.5194 52.1435C76.5389 52.1515 76.5583 52.1608 76.5779 52.1679C76.5782 52.1679 76.5783 52.168 76.5786 52.1682L80.9299 53.7216L80.5366 55.6727C80.4663 56.021 80.5284 56.365 80.687 56.6538C80.81 56.8875 80.9254 57.1306 81.0312 57.3807C81.0345 57.3888 81.0381 57.3967 81.0415 57.4049C81.7264 59.0205 82.0792 60.9598 82.0927 63.1737C81.2758 62.7734 80.3799 62.5791 79.4491 62.6212C76.9695 62.7343 74.5914 64.4825 73.0877 67.2974C72.712 68.0019 72.9781 68.878 73.6825 69.2541ZM89.1735 53.5672C90.4737 53.2742 91.74 53.2827 92.8407 53.5415C90.6372 54.1904 88.339 55.9602 85.999 58.8188C85.5578 59.3578 85.1552 59.8876 84.7967 60.3825C84.6303 59.156 84.3549 58.0112 83.9718 56.9571C85.0439 55.3354 86.9777 54.0609 89.1735 53.5672ZM81.8841 50.9916L79.0928 49.9952C82.4762 43.5858 86.7966 39.6719 91.9519 38.3553C92.3774 38.2467 92.7922 38.1607 93.1949 38.0941C89.7809 40.1916 85.5425 44.0231 81.8841 50.9916Z" fill="black"/>
<path d="M78.0739 67.3885C77.2753 67.3885 76.6279 68.036 76.6279 68.8344V69.5318C76.6279 70.3302 77.2753 70.9777 78.0739 70.9777C78.8724 70.9777 79.5198 70.3302 79.5198 69.5318V68.8344C79.5199 68.0358 78.8726 67.3885 78.0739 67.3885Z" fill="black"/>
<path d="M74.5228 84.1187C73.8509 83.6866 72.9565 83.8806 72.5242 84.5523L72.0524 85.2855C71.6203 85.9572 71.8144 86.8517 72.4861 87.2838C72.7282 87.4395 72.9992 87.514 73.2671 87.514C73.7425 87.514 74.208 87.2799 74.4845 86.8502L74.9563 86.117C75.3885 85.4454 75.1943 84.5509 74.5228 84.1187Z" fill="black"/>
</svg>
