<svg width="60" height="60" viewBox="0 0 60 60" fill="none" xmlns="http://www.w3.org/2000/svg">
<rect width="60" height="60" rx="30" fill="#FFD66B" fill-opacity="0.2"/>
<path d="M41.5197 26.0608C41.2713 25.8255 40.8791 25.8363 40.6437 26.0847C40.6228 26.1067 40.6016 26.1287 40.5799 26.1503C40.3379 26.3923 40.3379 26.7847 40.5799 27.0268C40.701 27.1478 40.8595 27.2083 41.0182 27.2083C41.1768 27.2083 41.3354 27.1478 41.4564 27.0268C41.4861 26.9971 41.5151 26.9672 41.5437 26.9369C41.779 26.6883 41.7683 26.2961 41.5197 26.0608Z" fill="black"/>
<path d="M26.5416 28.8807C26.1993 28.8807 25.9219 29.1582 25.9219 29.5004V29.7993C25.9219 30.1415 26.1993 30.419 26.5416 30.419C26.8838 30.419 27.1612 30.1415 27.1612 29.7993V29.5004C27.1612 29.1582 26.8838 28.8807 26.5416 28.8807Z" fill="black"/>
<path d="M29.122 36.5509L28.9198 36.2367C28.7346 35.9488 28.3511 35.8658 28.0633 36.0509C27.7754 36.2361 27.6923 36.6196 27.8774 36.9073L28.0796 37.2215C28.1981 37.4056 28.3976 37.506 28.6014 37.506C28.7162 37.506 28.8324 37.4741 28.9361 37.4073C29.224 37.2222 29.3072 36.8388 29.122 36.5509Z" fill="black"/>
<path d="M32.7611 22.3336C32.7604 22.3332 32.7595 22.3327 32.7588 22.3323C32.7594 22.3326 32.7602 22.3331 32.7611 22.3336C32.761 22.3335 32.7611 22.3336 32.7611 22.3336Z" fill="black"/>
<path d="M42.9543 15.2831C42.8872 15.2591 41.2848 14.7032 39.1788 15.2177C37.3537 15.6638 34.7931 17.0271 32.7483 20.9492C32.3471 20.8005 31.9495 20.7407 31.5798 20.725L31.9747 20.3301C32.2167 20.0881 32.2167 19.6957 31.9747 19.4536C31.7327 19.2117 31.3403 19.2117 31.0983 19.4536L30.6208 19.9311V19.2032C30.6208 18.861 30.3433 18.5835 30.0011 18.5835C29.6588 18.5835 29.3814 18.861 29.3814 19.2032V19.9312L28.9039 19.4537C28.6619 19.2118 28.2695 19.2118 28.0275 19.4537C27.7855 19.6957 27.7855 20.0881 28.0275 20.3301L28.4224 20.7251C28.0527 20.7408 27.6551 20.8005 27.2539 20.9491C25.2091 17.0271 22.6485 15.6638 20.8233 15.2178C18.7174 14.703 17.1151 15.2591 17.0479 15.2831C16.7753 15.3801 16.6044 15.6528 16.6386 15.9402C16.673 16.2276 16.8998 16.4528 17.1875 16.4829C17.1973 16.4841 18.1842 16.6074 19.5114 17.4488C20.6954 18.1994 22.3908 19.6861 23.8653 22.5334C23.3375 22.1692 22.7212 21.8976 22.057 21.7483C21.1018 21.5331 20.1323 21.5987 19.327 21.933C18.4805 22.2845 17.8654 22.905 17.5947 23.6804C17.5944 23.6816 17.5939 23.6827 17.5936 23.6839C17.5926 23.6867 17.5917 23.6896 17.5908 23.6925C17.5364 23.8509 17.4961 24.0169 17.4712 24.1874C17.3405 25.0908 17.6535 26.0262 18.3526 26.821C19.0157 27.5748 19.9575 28.1198 21.0044 28.3553C21.3746 28.4386 21.745 28.4797 22.1068 28.4797C22.6455 28.4797 23.1644 28.3886 23.6322 28.2107C23.6396 28.2877 23.6471 28.3648 23.656 28.4423C23.6561 28.4432 23.6562 28.4442 23.6563 28.4451C23.6564 28.4462 23.6565 28.4474 23.6566 28.4485C23.7902 29.6035 24.0949 30.7856 24.5143 31.777C24.6958 32.2067 24.8757 32.6011 25.0343 32.9491C25.6439 34.2861 25.9267 34.9575 25.6979 35.6019C25.1361 37.1851 25.8735 38.232 26.5881 38.9123C26.6383 39.827 27.0077 42.6592 29.6008 44.8533C29.7163 44.9511 29.8588 44.9999 30.0011 44.9999C30.1434 44.9999 30.2859 44.9511 30.4013 44.8533C32.9944 42.6592 33.3639 39.8271 33.4141 38.9124C34.1284 38.2323 34.8661 37.1854 34.3042 35.6018C34.0755 34.9575 34.3583 34.2862 34.9678 32.9491C35.1265 32.6011 35.3063 32.2066 35.4879 31.7769C35.9067 30.7851 36.2113 29.6031 36.3453 28.4491C36.3455 28.4478 36.3456 28.4465 36.3457 28.4451C36.3458 28.4441 36.3459 28.4432 36.346 28.4422C36.355 28.3648 36.3624 28.2877 36.3699 28.2108C36.8374 28.3886 37.3562 28.4797 37.8951 28.4797C38.2566 28.4797 38.6274 28.4387 38.9974 28.3553C39.3162 28.2836 39.629 28.182 39.9274 28.0534C40.2417 27.9179 40.3866 27.5533 40.2512 27.239C40.1157 26.9248 39.751 26.7799 39.4368 26.9152C39.2088 27.0134 38.9694 27.0912 38.7252 27.1462C38.1113 27.2845 37.5071 27.2698 36.9904 27.1138C37.7019 26.0336 39.0414 24.3515 40.2904 24.0961C40.6529 24.0218 40.9733 24.0763 41.2852 24.2666C41.2921 24.2992 41.2994 24.3316 41.3042 24.3648C41.3326 24.5615 41.3229 24.7659 41.2753 24.9722C41.1983 25.3057 41.4063 25.6385 41.7397 25.7154C41.7867 25.7263 41.8335 25.7315 41.8797 25.7315C42.1617 25.7315 42.4169 25.5376 42.483 25.2511C42.5653 24.8945 42.5814 24.5367 42.5308 24.1864C42.506 24.0167 42.4655 23.8507 42.4112 23.6921C42.4103 23.6894 42.4095 23.6867 42.4086 23.6841C42.4082 23.6828 42.4078 23.6815 42.4074 23.6801C42.1368 22.9049 41.5217 22.2844 40.6752 21.933C39.8697 21.5986 38.9002 21.533 37.9453 21.7482C37.2809 21.8976 36.6647 22.1692 36.1368 22.5334C37.6114 19.686 39.3068 18.1993 40.4908 17.4487C41.818 16.6074 42.8048 16.484 42.8109 16.4832C43.0988 16.4531 43.3273 16.2277 43.3617 15.9404C43.3961 15.653 43.2269 15.3802 42.9543 15.2831ZM21.2767 27.1461C19.7116 26.794 18.5307 25.5204 18.6978 24.3657C18.7028 24.3321 18.71 24.2994 18.717 24.2666C19.0286 24.0765 19.3486 24.0218 19.7109 24.0959C20.9565 24.3499 22.2981 26.0332 23.011 27.1139C22.4943 27.2697 21.8903 27.2843 21.2767 27.1461ZM23.6604 25.8783C23.5068 25.6661 23.3342 25.4391 23.1451 25.2081C22.1423 23.983 21.1573 23.2244 20.213 22.9464C20.6848 22.8354 21.2276 22.8318 21.7849 22.9574C22.7255 23.1689 23.5544 23.7152 24.0142 24.4101C23.8499 24.8624 23.7317 25.3529 23.6604 25.8783ZM20.06 16.3253C20.2123 16.3508 20.3687 16.3826 20.5291 16.4218C22.7333 16.9605 24.6508 18.6859 26.1042 21.4268L24.9087 21.8536C23.3403 18.8664 21.5235 17.2242 20.06 16.3253ZM30.0011 43.5438C28.7712 42.3453 28.2339 41.006 27.9996 40.0306C28.2859 40.2438 28.5512 40.4507 28.7651 40.6618C28.8811 40.7763 29.0375 40.8405 29.2005 40.8405H30.8018C30.9648 40.8405 31.1212 40.7763 31.2371 40.6618C31.4509 40.4507 31.7163 40.2438 32.0026 40.0306C31.7683 41.006 31.231 42.3452 30.0011 43.5438ZM31.5785 29.6803C31.6715 29.73 31.7714 29.7536 31.87 29.7536C32.0914 29.7536 32.3056 29.6346 32.4171 29.4257C32.8535 28.6088 33.4851 28.1042 34.1067 28.0759C34.4791 28.0582 34.8134 28.2203 35.0836 28.5447C34.9507 29.5078 34.6919 30.4758 34.3461 31.2945C34.1713 31.7083 34.0029 32.0777 33.84 32.4349C33.1953 33.8492 32.7294 34.871 33.1361 36.0164C33.4282 36.8393 33.2199 37.4421 32.3938 38.1658C32.125 38.4008 31.814 38.6296 31.5131 38.851C31.1876 39.0906 30.8529 39.3369 30.557 39.6011H29.445C29.1491 39.3368 28.8145 39.0906 28.4888 38.851C28.188 38.6297 27.877 38.4007 27.6086 38.1661C26.782 37.4421 26.5738 36.8394 26.8658 36.0165C27.2724 34.871 26.8066 33.8492 26.1619 32.4349C25.9991 32.0777 25.8306 31.7082 25.6557 31.2943C25.3096 30.476 25.0507 29.5083 24.9183 28.5447C25.1884 28.2202 25.5224 28.0574 25.8953 28.0759C26.5169 28.1042 27.1485 28.6089 27.5849 29.4257C27.6965 29.6346 27.9106 29.7536 28.132 29.7536C28.2305 29.7536 28.3305 29.73 28.4235 29.6803C28.7254 29.5191 28.8394 29.1437 28.6781 28.8417C28.0338 27.6354 27.0145 26.8861 25.9518 26.8377C25.5529 26.8197 25.1689 26.903 24.8188 27.0746C24.8246 26.1241 24.9764 25.2909 25.2714 24.5972C25.2736 24.5918 25.2759 24.5864 25.278 24.5809C25.3014 24.5263 25.3229 24.4785 25.3437 24.435C25.3461 24.4301 25.3478 24.425 25.35 24.42C25.3552 24.4084 25.3602 24.3969 25.3647 24.3851C25.3677 24.3772 25.3703 24.3691 25.373 24.3611C25.3766 24.35 25.3802 24.3388 25.3831 24.3275C25.3856 24.3184 25.3877 24.3092 25.3897 24.3C25.3919 24.2898 25.3941 24.2795 25.3959 24.2691C25.3976 24.2587 25.399 24.2482 25.4001 24.2376C25.4012 24.2283 25.4022 24.2191 25.4028 24.2097C25.4036 24.1981 25.4039 24.1863 25.404 24.1745C25.4041 24.1661 25.4042 24.1577 25.404 24.1492C25.4036 24.1366 25.4026 24.124 25.4015 24.1114C25.401 24.1059 25.4011 24.1006 25.4004 24.0951L25.2767 23.0381L27.1821 22.3578C27.1918 22.3543 27.2013 22.3499 27.2108 22.3459C27.2176 22.343 27.2245 22.3405 27.2311 22.3374C27.2346 22.3359 27.2383 22.3346 27.2416 22.333H27.2417C27.2422 22.3328 27.2427 22.3324 27.2431 22.3322C27.2617 22.3232 27.2798 22.3135 27.2971 22.3029C27.2986 22.3019 27.3 22.3008 27.3015 22.2998C27.3022 22.2994 27.3029 22.2991 27.3036 22.2987C27.9814 21.8727 28.7249 21.9427 29.3813 22.0059V22.7617C29.3813 23.1038 29.6587 23.3813 30.001 23.3813C30.3432 23.3813 30.6207 23.1038 30.6207 22.7617V22.0059C31.2773 21.9427 32.0206 21.8726 32.6984 22.2987C32.6991 22.2991 32.6997 22.2994 32.7004 22.2998C32.702 22.3008 32.7034 22.3019 32.7049 22.3029C32.7222 22.3135 32.7402 22.3232 32.7588 22.3322C32.7593 22.3324 32.7598 22.3328 32.7603 22.333C32.7637 22.3346 32.7675 22.3359 32.7709 22.3375C32.7776 22.3406 32.7845 22.3431 32.7912 22.3459C32.7923 22.3463 32.7933 22.3468 32.7944 22.3472C32.8027 22.3506 32.8111 22.3546 32.8194 22.3577C32.8196 22.3577 32.8196 22.3577 32.8197 22.3578L34.6846 23.0235L34.516 23.8597C34.4859 24.009 34.5125 24.1564 34.5805 24.2802C34.6332 24.3804 34.6827 24.4845 34.728 24.5917C34.7294 24.5952 34.7309 24.5986 34.7324 24.6021C35.026 25.2945 35.1771 26.1256 35.1829 27.0744C34.8328 26.9029 34.4489 26.8196 34.05 26.8377C32.9873 26.8861 31.9681 27.6354 31.3237 28.8417C31.1627 29.1437 31.2767 29.5191 31.5785 29.6803ZM38.2176 22.9574C38.7748 22.8318 39.3175 22.8354 39.7892 22.9463C38.8449 23.2244 37.8599 23.9829 36.8571 25.2081C36.668 25.439 36.4954 25.6661 36.3418 25.8782C36.2705 25.3526 36.1524 24.8619 35.9882 24.4102C36.4477 23.7152 37.2765 23.1689 38.2176 22.9574ZM35.0935 21.8535L33.8973 21.4265C35.3473 18.6796 37.1989 17.0023 39.4083 16.438C39.5906 16.3914 39.7684 16.3546 39.941 16.326C38.4779 17.225 36.6614 18.8671 35.0935 21.8535Z" fill="black"/>
<path d="M33.46 28.8807C33.1178 28.8807 32.8403 29.1582 32.8403 29.5004V29.7993C32.8403 30.1415 33.1178 30.419 33.46 30.419C33.8023 30.419 34.0797 30.1415 34.0797 29.7993V29.5004C34.0798 29.1582 33.8023 28.8807 33.46 28.8807Z" fill="black"/>
<path d="M31.9381 36.0509C31.6502 35.8657 31.2669 35.9489 31.0816 36.2367L30.8794 36.551C30.6942 36.8388 30.7774 37.2222 31.0652 37.4074C31.169 37.4741 31.2851 37.5061 31.4 37.5061C31.6037 37.5061 31.8032 37.4057 31.9217 37.2216L32.1239 36.9073C32.3091 36.6195 32.2259 36.2361 31.9381 36.0509Z" fill="black"/>
</svg>
