<svg width="60" height="60" viewBox="0 0 60 60" fill="none" xmlns="http://www.w3.org/2000/svg">
<rect width="60" height="60" rx="30" fill="#FF99D3" fill-opacity="0.2"/>
<path d="M32.672 44.5434C33.5667 44.8691 34.3673 45.0582 35.0738 45.1108C35.7803 45.1635 36.3642 45.0828 36.8254 44.869C38.4665 40.36 39.7075 36.9506 40.5482 34.6407C41.209 32.8251 42.2204 30.0463 43.5824 26.3043C44.0118 25.1244 44.0164 24.2467 43.5961 23.671C43.1758 23.0954 42.4336 22.6139 41.3697 22.2267C40.8377 22.033 40.2865 21.8733 39.7162 21.7475C39.1458 21.6218 38.7145 21.5466 38.4222 21.522L36.2926 27.3731C35.8193 28.6734 35.3582 29.978 34.9091 31.2871C34.46 32.5961 34.0472 33.9184 33.6707 35.2539L33.4762 35.224C33.4532 34.2339 33.4171 33.355 33.3679 32.5872C33.3187 31.8194 33.2486 30.9963 33.1576 30.1179L32.186 21.5018C32.0617 20.3386 31.6449 19.4711 30.9356 18.8994C30.2263 18.3276 29.4244 17.8789 28.5297 17.5533C27.7317 17.2629 26.9383 17.1104 26.1494 17.096C25.3605 17.0815 24.7092 17.2535 24.1954 17.6118C22.6268 21.9213 21.4371 25.19 20.6262 27.4179C19.9765 29.2031 18.9752 31.9541 17.6224 35.6709C17.4033 36.2728 17.2984 36.7868 17.3076 37.2129C17.3169 37.6389 17.415 38.0087 17.6022 38.3222C17.7893 38.6357 18.0752 38.9034 18.46 39.1253C18.8448 39.3471 19.3032 39.5549 19.8351 39.7485C20.3671 39.9421 20.9183 40.1018 21.4886 40.2276C22.059 40.3534 22.4903 40.4286 22.7826 40.4531L24.8202 34.8548C25.2935 33.5546 25.7694 32.2281 26.2481 30.8752C26.7268 29.5224 27.1544 28.1783 27.531 26.8428L27.7617 26.8859C27.7848 27.876 27.8209 28.7549 27.87 29.5227C27.9192 30.2905 27.9893 31.1136 28.0803 31.992L29.0157 40.5949C29.1554 41.791 29.576 42.6667 30.2776 43.222C30.9792 43.7773 31.7773 44.2178 32.672 44.5434Z" stroke="#E3E3E3"/>
<path d="M31.5065 42.7421C32.4011 43.0678 33.2017 43.2569 33.9083 43.3096C34.6148 43.3622 35.1987 43.2816 35.6599 43.0677C37.301 38.5588 38.5419 35.1494 39.3827 32.8394C40.0435 31.0239 41.0549 28.2451 42.4169 24.503C42.8463 23.3231 42.8509 22.4454 42.4306 21.8697C42.0102 21.2941 41.2681 20.8126 40.2041 20.4254C39.6722 20.2318 39.121 20.0721 38.5506 19.9463C37.9803 19.8205 37.549 19.7453 37.2567 19.7207L35.127 25.5719C34.6538 26.8721 34.1926 28.1768 33.7436 29.4858C33.2945 30.7949 32.8817 32.1171 32.5052 33.4526L32.3107 33.4227C32.2876 32.4326 32.2515 31.5537 32.2024 30.7859C32.1532 30.0182 32.0831 29.1951 31.9921 28.3166L31.0204 19.7006C30.8961 18.5373 30.4794 17.6698 29.7701 17.0981C29.0608 16.5263 28.2588 16.0777 27.3641 15.752C26.5662 15.4616 25.7727 15.3091 24.9839 15.2947C24.195 15.2803 23.5436 15.4522 23.0298 15.8106C21.4613 20.12 20.2716 23.3887 19.4607 25.6166C18.811 27.4018 17.8097 30.1528 16.4569 33.8696C16.2378 34.4716 16.1328 34.9856 16.1421 35.4116C16.1513 35.8376 16.2495 36.2074 16.4366 36.5209C16.6237 36.8344 16.9097 37.1021 17.2945 37.324C17.6793 37.5458 18.1376 37.7536 18.6696 37.9472C19.2016 38.1408 19.7528 38.3005 20.3231 38.4263C20.8935 38.5521 21.3248 38.6273 21.6171 38.6519L23.6547 33.0536C24.1279 31.7533 24.6039 30.4268 25.0826 29.074C25.5613 27.7212 25.9889 26.377 26.3654 25.0416L26.5962 25.0847C26.6192 26.0747 26.6553 26.9536 26.7045 27.7214C26.7537 28.4892 26.8238 29.3123 26.9148 30.1908L27.8502 38.7936C27.9899 39.9897 28.4105 40.8654 29.1121 41.4207C29.8136 41.976 30.6118 42.4165 31.5065 42.7421Z" stroke="black"/>
</svg>
