<svg width="121" height="118" viewBox="0 0 121 118" fill="none" xmlns="http://www.w3.org/2000/svg">
<g filter="url(#filter0_d_508_1814)">
<path d="M3.75938 16.2V97.8C3.75938 106.12 10.6394 113 18.9594 113C27.4394 113 34.3194 106.12 34.3194 97.8V75.4H73.3594C78.1594 75.4 82.1594 71.72 82.1594 66.92C82.1594 62.12 78.1594 58.28 73.3594 58.28H44.3994C38.7994 58.28 34.3194 53.64 34.3194 48.2V31.56H66.1594C71.4394 32.04 76.0794 34.44 79.9194 38.12V38.28C84.2394 42.44 86.3194 47.72 86.3194 53.48V60.04C86.3194 68.36 93.1994 75.4 101.679 75.4H101.839C110.319 75.4 117.199 68.52 117.199 60.04V50.12C117.199 42.92 112.079 36.84 105.359 35.24C102.639 34.6 100.239 33.32 98.3194 31.4L87.7594 21.32C84.7194 18.44 82.3194 14.92 80.7194 10.92C78.6394 5.16 73.0394 0.999992 66.4794 0.999992H18.9594C10.6394 0.999992 3.75938 7.88 3.75938 16.2Z" fill="black"/>
</g>
<defs>
<filter id="filter0_d_508_1814" x="0.759277" y="-7.62939e-06" width="119.44" height="118" filterUnits="userSpaceOnUse" color-interpolation-filters="sRGB">
<feFlood flood-opacity="0" result="BackgroundImageFix"/>
<feColorMatrix in="SourceAlpha" type="matrix" values="0 0 0 0 0 0 0 0 0 0 0 0 0 0 0 0 0 0 127 0" result="hardAlpha"/>
<feOffset dy="2"/>
<feGaussianBlur stdDeviation="1.5"/>
<feComposite in2="hardAlpha" operator="out"/>
<feColorMatrix type="matrix" values="0 0 0 0 0 0 0 0 0 0 0 0 0 0 0 0 0 0 0.25 0"/>
<feBlend mode="normal" in2="BackgroundImageFix" result="effect1_dropShadow_508_1814"/>
<feBlend mode="normal" in="SourceGraphic" in2="effect1_dropShadow_508_1814" result="shape"/>
</filter>
</defs>
</svg>
