<svg width="60" height="60" viewBox="0 0 60 60" fill="none" xmlns="http://www.w3.org/2000/svg">
<rect width="60" height="60" rx="30" fill="#5B93FF" fill-opacity="0.2"/>
<path d="M44.8635 37.7118L42.5819 38.0379C44.1208 35.6396 44.9319 32.8844 44.9319 30.0002C44.9319 26.7398 43.8992 23.6422 41.9455 21.0406L41.1748 21.6191C43.0027 24.052 43.9685 26.9503 43.9685 30.0002C43.9685 32.7833 43.156 35.4354 41.6271 37.7267L40.5458 35.5645L39.6841 35.9956L41.2847 39.1964L44.9999 38.6655L44.8635 37.7118Z" fill="black"/>
<path d="M37.7116 15.1369L38.0378 17.4185C35.6395 15.8796 32.8839 15.0685 30.0001 15.0685C26.7397 15.0685 23.6415 16.1017 21.0405 18.0549L21.619 18.8256C24.0519 16.9981 26.9502 16.0319 30.0001 16.0319C32.7828 16.0319 35.4348 16.8444 37.7266 18.3733L35.5649 19.4541L35.996 20.3158L39.1968 18.7157L38.6654 15.0001L37.7116 15.1369Z" fill="black"/>
<path d="M15 21.3351L15.1364 22.2888L17.418 21.9627C15.8795 24.361 15.0684 27.1166 15.0684 30.0004C15.0684 33.2608 16.1011 36.3584 18.0548 38.9599L18.8254 38.3814C16.9975 35.9485 16.0317 33.0503 16.0317 30.0003C16.0317 27.2176 16.8443 24.5655 18.3732 22.2737L19.4545 24.4354L20.3162 24.0043L18.7156 20.8037L15 21.3351Z" fill="black"/>
<path d="M30.0003 43.9687C27.2177 43.9687 24.5656 43.1562 22.2738 41.6273L24.334 40.5969H35.7804V37.2253H35.2121L34.9539 35.9349C34.8345 35.3376 34.4896 34.8222 33.9593 34.4687C33.7319 34.3175 33.5706 34.0993 33.4733 33.8536H34.3355V32.8902H33.7411L34.8172 31.0969V23.1287L32.6881 19.4034H29.0371L26.6287 19.9906V20.9357L24.4269 21.3759L22.7093 23.6663L23.9135 26.6776L26.7914 26.2662L25.1836 27.874V31.0969L26.2597 32.8902H25.6653V33.8536H26.5261C26.4269 34.1012 26.2602 34.3232 26.0184 34.4846C25.5113 34.8227 25.1658 35.3376 25.0464 35.9354L24.7886 37.2253H24.2203V40.1152L24.0049 39.6841L20.8042 41.2842L21.335 44.9998L22.2883 44.8635L21.9622 42.5818C24.3609 44.1207 27.1165 44.9319 30.0003 44.9319C33.2608 44.9319 36.3589 43.8987 38.9599 41.9455L38.3814 41.1748C35.9485 43.0025 33.0504 43.9687 30.0003 43.9687ZM26.516 31.4455H30.4821V30.4821H26.147V28.2732L28.0737 26.3463V25.1099L24.5272 25.6166L23.8046 23.8113L24.977 22.2483L27.5919 21.7248V20.7431L28.1367 20.6067L28.6059 21.5455L29.4676 21.1144L29.0938 20.3669H29.0963H30.2951L30.0249 21.178L30.9386 21.4829L31.311 20.3669H32.1293L32.7781 21.5022L31.7747 21.8365L32.0796 22.7498L33.2655 22.3543L33.8536 23.3851V23.8735L32.7382 24.2452L33.0431 25.1585L33.8537 24.8884V26.6287H32.8903V27.592H33.8537V29.0371H32.8903V30.0004H33.8537V30.8304L32.6177 32.8905H27.383L26.516 31.4455ZM25.9914 36.1242C26.0608 35.7789 26.2602 35.4812 26.5762 35.2707C27.0762 34.9374 27.4177 34.4278 27.541 33.8541H32.4598C32.5842 34.4282 32.9295 34.9408 33.4478 35.2866C33.7406 35.4817 33.9401 35.7793 34.0094 36.1247L34.2295 37.2254H25.7713L25.9914 36.1242ZM25.1836 38.1886H34.8171V39.6337H25.1836V38.1886Z" fill="black"/>
<path d="M32.4087 30.4819H31.4453V31.4453H32.4087V30.4819Z" fill="black"/>
<path d="M29.0371 22.2936H28.0737V23.2569H29.0371V22.2936Z" fill="black"/>
</svg>
