<svg width="60" height="60" viewBox="0 0 60 60" fill="none" xmlns="http://www.w3.org/2000/svg">
<path d="M30 60C46.5685 60 60 46.5685 60 30C60 13.4315 46.5685 0 30 0C13.4315 0 0 13.4315 0 30C0 46.5685 13.4315 60 30 60Z" fill="#2C19A7" fill-opacity="0.2"/>
<path fill-rule="evenodd" clip-rule="evenodd" d="M16 35.2976V30.3188C16 22.4108 22.4107 16 30.3188 16C34.2194 16 37.7558 17.5597 40.3382 20.0894L37.2942 21.9915C35.4072 20.4091 32.9743 19.4563 30.3188 19.4563C24.3196 19.4563 19.4563 24.3196 19.4563 30.3188H22.9125L16 35.2976ZM23.2911 38.6018C25.1854 40.2108 27.6389 41.1814 30.319 41.1814C36.3182 41.1814 41.1816 36.3181 41.1816 30.3188H37.7253L44.6375 25.2579L44.6378 30.3188C44.6378 38.2269 38.2271 44.6377 30.319 44.6377C26.3942 44.6377 22.8382 43.0586 20.2517 40.501L23.2911 38.6018ZM35.8118 35.0712H31.8618L30.319 32.9871L28.7762 35.0712H24.8262L28.4046 30.401L24.8258 25.5665H28.529L30.319 27.9026L32.109 25.5665H35.8122L32.2334 30.401L35.8118 35.0712Z" fill="white"/>
</svg>
