<svg width="20" height="18" viewBox="0 0 20 18" fill="none" xmlns="http://www.w3.org/2000/svg">
<path d="M20 2.8125C19.25 3.125 18.5 3.375 17.625 3.4375C18.5 2.9375 19.125 2.125 19.4375 1.1875C18.625 1.6875 17.75 2 16.8125 2.1875C16.0625 1.375 15 0.875 13.875 0.875C11.625 0.875 9.75002 2.6875 9.75002 5C9.75002 5.3125 9.81252 5.625 9.87502 5.9375C6.43752 5.75 3.43752 4.125 1.37502 1.625C1.00002 2.25 0.812515 2.9375 0.812515 3.6875C0.812515 5.125 1.56252 6.375 2.62502 7.125C1.93752 7.125 1.31252 6.9375 0.750015 6.625V6.6875C0.750015 8.6875 2.18752 10.3125 4.06252 10.6875C3.68752 10.75 3.37502 10.8125 3.00002 10.8125C2.75002 10.8125 2.50002 10.8125 2.25002 10.75C2.75002 12.375 4.31252 13.5625 6.06252 13.625C4.68752 14.75 2.87502 15.375 0.937515 15.375C0.625015 15.375 0.250015 15.375 -0.0624847 15.3125C1.81252 16.4375 4.00002 17.125 6.31252 17.125C13.875 17.125 18 10.875 18 5.4375C18 5.25 18 5.0625 18 4.9375C18.75 4.3125 19.4375 3.625 20 2.8125Z" fill="#7A7A86"/>
</svg>
