<svg width="60" height="60" viewBox="0 0 60 60" fill="none" xmlns="http://www.w3.org/2000/svg">
<rect width="60" height="60" rx="30" fill="#FFD66B" fill-opacity="0.2"/>
<g clip-path="url(#clip0_161_559)">
<path d="M45.9999 19.1C44.7999 19.6 43.5999 20 42.1999 20.1C43.5999 19.3 44.5999 18 45.0999 16.5C43.7999 17.3 42.3999 17.8 40.8999 18.1C39.6999 16.8 37.9999 16 36.1999 16C32.5999 16 29.5999 18.9 29.5999 22.6C29.5999 23.1 29.6999 23.6 29.7999 24.1C24.2999 23.8 19.4999 21.2 16.1999 17.2C15.5999 18.2 15.2999 19.3 15.2999 20.5C15.2999 22.8 16.4999 24.8 18.1999 26C17.0999 26 16.0999 25.7 15.1999 25.2V25.3C15.1999 28.5 17.4999 31.1 20.4999 31.7C19.8999 31.8 19.3999 31.9 18.7999 31.9C18.3999 31.9 17.9999 31.9 17.5999 31.8C18.3999 34.4 20.8999 36.3 23.6999 36.4C21.4999 38.2 18.5999 39.2 15.4999 39.2C14.9999 39.2 14.3999 39.2 13.8999 39.1C16.8999 40.9 20.3999 42 24.0999 42C36.1999 42 42.7999 32 42.7999 23.3C42.7999 23 42.7999 22.7 42.7999 22.5C43.9999 21.5 45.0999 20.4 45.9999 19.1Z" fill="#FFD66B"/>
</g>
<defs>
<clipPath id="clip0_161_559">
<rect width="32" height="32" fill="white" transform="translate(14 13)"/>
</clipPath>
</defs>
</svg>
