<svg width="60" height="60" viewBox="0 0 60 60" fill="none" xmlns="http://www.w3.org/2000/svg">
<path d="M30 60C46.5685 60 60 46.5685 60 30C60 13.4315 46.5685 0 30 0C13.4315 0 0 13.4315 0 30C0 46.5685 13.4315 60 30 60Z" fill="#FF007A" fill-opacity="0.2"/>
<path d="M24.0115 17.7016C23.6469 17.645 23.6315 17.6383 23.8031 17.6119C24.1319 17.5613 24.9082 17.6303 25.4433 17.7577C26.6923 18.0551 27.8288 18.8168 29.042 20.1696L29.3643 20.5291L29.8253 20.4548C31.7677 20.1422 33.7437 20.3906 35.3964 21.1553C35.8511 21.3657 36.568 21.7845 36.6575 21.8921C36.6861 21.9264 36.7385 22.1472 36.774 22.3828C36.8967 23.1978 36.8353 23.8225 36.5864 24.2891C36.451 24.543 36.4434 24.6234 36.5345 24.8407C36.6072 25.0142 36.8098 25.1425 37.0105 25.1423C37.4212 25.1417 37.8632 24.4767 38.0681 23.5514L38.1494 23.1839L38.3106 23.3668C39.1947 24.37 39.8891 25.7382 40.0084 26.7121L40.0395 26.9659L39.8909 26.7351C39.6351 26.3379 39.3781 26.0675 39.0491 25.8494C38.4559 25.4563 37.8287 25.3226 36.1677 25.2349C34.6674 25.1557 33.8184 25.0274 32.9764 24.7524C31.5441 24.2846 30.8219 23.6617 29.1204 21.4258C28.3647 20.4327 27.8975 19.8832 27.4329 19.4407C26.377 18.4353 25.3395 17.9079 24.0115 17.7016Z" fill="#FF007A"/>
<path d="M36.9958 19.9191C37.0336 19.2536 37.1237 18.8146 37.3048 18.4138C37.3765 18.2551 37.4438 18.1252 37.4541 18.1252C37.4645 18.1252 37.4333 18.2424 37.3848 18.3855C37.2531 18.7746 37.2315 19.3066 37.3222 19.9257C37.4374 20.7112 37.5029 20.8246 38.3318 21.6731C38.7206 22.0711 39.1729 22.5731 39.3368 22.7886L39.6349 23.1804L39.3368 22.9004C38.9722 22.5579 38.1339 21.8901 37.9487 21.7946C37.8245 21.7306 37.8061 21.7316 37.7294 21.808C37.6589 21.8784 37.644 21.9841 37.6342 22.4839C37.619 23.2628 37.513 23.7628 37.2571 24.2627C37.1188 24.5331 37.0969 24.4754 37.2222 24.1702C37.3156 23.9424 37.3251 23.8422 37.3244 23.0881C37.323 21.573 37.1434 21.2087 36.0902 20.5847C35.8233 20.4267 35.3837 20.1987 35.1133 20.0781C34.8428 19.9576 34.6279 19.8525 34.6357 19.8447C34.6655 19.8149 35.6927 20.1152 36.1061 20.2744C36.721 20.5114 36.8225 20.5421 36.8972 20.5135C36.9473 20.4944 36.9715 20.3483 36.9958 19.9191Z" fill="#FF007A"/>
<path d="M24.7196 22.5109C23.9794 21.4904 23.5215 19.9255 23.6206 18.7558L23.6513 18.3938L23.8197 18.4246C24.1362 18.4824 24.6816 18.6858 24.9371 18.8412C25.6381 19.2675 25.9415 19.8289 26.2503 21.2705C26.3407 21.6927 26.4593 22.1705 26.5139 22.3323C26.6019 22.5927 26.934 23.2009 27.204 23.5959C27.3985 23.8803 27.2693 24.0151 26.8394 23.9762C26.1828 23.9169 25.2934 23.3021 24.7196 22.5109Z" fill="#FF007A"/>
<path d="M36.0981 30.1067C32.6391 28.7119 31.4209 27.5011 31.4209 25.4582C31.4209 25.1576 31.4313 24.9116 31.4438 24.9116C31.4564 24.9116 31.5903 25.0109 31.7412 25.1321C32.4426 25.6956 33.2281 25.9362 35.4025 26.2539C36.682 26.4409 37.402 26.5919 38.0663 26.8126C40.1775 27.5138 41.4837 28.9369 41.7951 30.8753C41.8857 31.4385 41.8326 32.4947 41.6858 33.0514C41.57 33.4911 41.2165 34.2836 41.1227 34.314C41.0966 34.3224 41.0712 34.2227 41.0645 34.0869C41.0289 33.359 40.6617 32.6504 40.045 32.1196C39.3438 31.5161 38.4016 31.0356 36.0981 30.1067Z" fill="#FF007A"/>
<path d="M33.6699 30.6861C33.6266 30.4278 33.5514 30.0979 33.5029 29.9531L33.4146 29.6897L33.5786 29.874C33.8054 30.129 33.9847 30.4554 34.1366 30.89C34.2526 31.2218 34.2656 31.3204 34.2648 31.8595C34.2639 32.3888 34.2494 32.4997 34.1423 32.7983C33.9735 33.2691 33.7639 33.603 33.4123 33.9614C32.7804 34.6055 31.9681 34.962 30.7959 35.11C30.592 35.1356 29.9982 35.179 29.476 35.2061C28.1602 35.2746 27.2941 35.4163 26.516 35.69C26.4041 35.7293 26.3042 35.7532 26.2941 35.7431C26.2626 35.7117 26.7924 35.3953 27.23 35.1842C27.8471 34.8865 28.4613 34.7241 29.8376 34.4945C30.5175 34.3811 31.2196 34.2435 31.3979 34.1888C33.0815 33.6718 33.9469 32.3376 33.6699 30.6861Z" fill="#FF007A"/>
<path d="M35.2553 33.5065C34.7958 32.517 34.6903 31.5617 34.942 30.6707C34.969 30.5755 35.0123 30.4976 35.0384 30.4976C35.0644 30.4976 35.1728 30.5563 35.2793 30.6281C35.4911 30.7709 35.9158 31.0113 37.0474 31.6292C38.4595 32.4003 39.2645 32.9974 39.8121 33.6795C40.2915 34.2769 40.5882 34.9573 40.7311 35.787C40.8119 36.257 40.7645 37.3878 40.6441 37.861C40.2645 39.3532 39.3821 40.5253 38.1236 41.2092C37.9392 41.3094 37.7737 41.3917 37.7558 41.3921C37.7378 41.3924 37.805 41.2213 37.905 41.0118C38.3284 40.1255 38.3766 39.2633 38.0565 38.3036C37.8605 37.716 37.461 36.999 36.6542 35.7872C35.7161 34.3783 35.4861 34.0033 35.2553 33.5065Z" fill="#FF007A"/>
<path d="M22.2633 38.8454C23.5469 37.7599 25.1439 36.9887 26.5988 36.752C27.2258 36.65 28.2702 36.6905 28.8508 36.8393C29.7815 37.0779 30.6139 37.6121 31.0469 38.2487C31.47 38.8708 31.6515 39.4129 31.8406 40.6192C31.9151 41.095 31.9962 41.5728 32.0207 41.681C32.1626 42.3061 32.4389 42.8058 32.7811 43.0567C33.3247 43.4552 34.2608 43.48 35.1817 43.1203C35.338 43.0592 35.4736 43.017 35.4832 43.0265C35.5166 43.0597 35.0529 43.3707 34.7257 43.5343C34.2856 43.7545 33.9356 43.8397 33.4705 43.8397C32.6271 43.8397 31.9269 43.4099 31.3426 42.5337C31.2277 42.3613 30.9692 41.8448 30.7684 41.386C30.1515 39.9768 29.8469 39.5475 29.1306 39.0777C28.5073 38.6689 27.7034 38.5957 27.0986 38.8927C26.3043 39.2827 26.0826 40.2995 26.6516 40.9439C26.8777 41.1999 27.2994 41.4208 27.6442 41.4637C28.2893 41.5441 28.8437 41.0526 28.8437 40.4003C28.8437 39.9767 28.6811 39.735 28.2719 39.5501C27.7131 39.2975 27.1124 39.5927 27.1152 40.1186C27.1165 40.3428 27.214 40.4836 27.4384 40.5853C27.5823 40.6505 27.5857 40.6557 27.4683 40.6313C26.9555 40.5248 26.8354 39.9057 27.2477 39.4946C27.7426 39.0012 28.7662 39.2189 29.1177 39.8925C29.2654 40.1754 29.2826 40.7388 29.1538 41.079C28.8656 41.8405 28.0255 42.241 27.1732 42.023C26.593 41.8747 26.3567 41.714 25.6571 40.9923C24.4415 39.7381 23.9695 39.495 22.217 39.221L21.8811 39.1685L22.2633 38.8454Z" fill="#FF007A"/>
<path fill-rule="evenodd" clip-rule="evenodd" d="M13.0964 10.7502C17.1562 15.6852 23.4151 23.3688 23.7259 23.799C23.9824 24.1542 23.8859 24.4735 23.4464 24.7237C23.2019 24.8629 22.6994 25.0039 22.4478 25.0039C22.1633 25.0039 21.8427 24.8667 21.6092 24.6449C21.4442 24.4881 20.7782 23.4921 19.2408 21.1029C18.0645 19.2747 17.08 17.7582 17.0532 17.7328C16.9911 17.6741 16.9921 17.6761 19.1209 21.4909C20.4575 23.8863 20.9088 24.7332 20.9088 24.8464C20.9088 25.0768 20.8461 25.1979 20.5623 25.5149C20.0893 26.0434 19.8779 26.6372 19.7252 27.8662C19.5541 29.2439 19.073 30.2171 17.7395 31.8826C16.959 32.8576 16.8313 33.0363 16.6343 33.4293C16.3862 33.9241 16.318 34.2013 16.2904 34.8262C16.2612 35.4869 16.3181 35.9137 16.5196 36.5454C16.696 37.0984 16.8802 37.4636 17.351 38.194C17.7573 38.8242 17.9913 39.2927 17.9913 39.4759C17.9913 39.6217 18.0191 39.6219 18.6487 39.4795C20.1555 39.1387 21.379 38.5393 22.0671 37.8048C22.4929 37.3502 22.5929 37.0991 22.5961 36.4761C22.5983 36.0686 22.584 35.9833 22.474 35.7489C22.295 35.3673 21.9691 35.0501 21.2507 34.5582C20.3095 33.9138 19.9075 33.395 19.7964 32.6815C19.7053 32.0961 19.811 31.683 20.3317 30.59C20.8706 29.4586 21.0042 28.9765 21.0945 27.8361C21.1529 27.0993 21.2337 26.8088 21.4451 26.5756C21.6655 26.3323 21.8639 26.25 22.4094 26.1753C23.2988 26.0536 23.8651 25.8232 24.3306 25.3936C24.7344 25.0209 24.9034 24.6617 24.9294 24.1211L24.949 23.7114L24.7234 23.4479C23.9062 22.4935 12.5491 10 12.4988 10C12.4881 10 12.757 10.3376 13.0964 10.7502ZM18.4501 35.5737C18.6348 35.2461 18.5367 34.8247 18.2276 34.6189C17.9355 34.4244 17.4819 34.516 17.4819 34.7694C17.4819 34.8467 17.5246 34.9031 17.6208 34.9527C17.7828 35.0362 17.7946 35.1301 17.6672 35.322C17.538 35.5164 17.5485 35.6872 17.6965 35.8034C17.9352 35.9906 18.2731 35.8876 18.4501 35.5737Z" fill="#FF007A"/>
<path fill-rule="evenodd" clip-rule="evenodd" d="M25.5101 26.3901C25.0927 26.5186 24.6868 26.9618 24.5611 27.4265C24.4845 27.71 24.528 28.2073 24.6428 28.3609C24.8283 28.609 25.0076 28.6743 25.4933 28.6709C26.4441 28.6643 27.2706 28.2558 27.3667 27.7452C27.4456 27.3267 27.0825 26.7466 26.5825 26.492C26.3244 26.3606 25.7757 26.3085 25.5101 26.3901ZM26.6217 27.2606C26.7683 27.052 26.7042 26.8265 26.4548 26.674C25.9799 26.3835 25.2617 26.6238 25.2617 27.0732C25.2617 27.2969 25.6362 27.5409 25.9795 27.5409C26.208 27.5409 26.5207 27.4045 26.6217 27.2606Z" fill="#FF007A"/>
</svg>
