<svg width="60" height="60" viewBox="0 0 60 60" fill="none" xmlns="http://www.w3.org/2000/svg">
<rect width="60" height="60" rx="30" fill="#5B93FF" fill-opacity="0.2"/>
<path d="M29.9998 36.2903C33.4682 36.2903 36.2902 33.4684 36.2902 29.9999C36.2902 26.5315 33.4683 23.7096 29.9998 23.7096C26.5314 23.7096 23.7095 26.5315 23.7095 29.9999C23.7095 33.4684 26.5315 36.2903 29.9998 36.2903ZM29.9998 24.6774C32.9345 24.6774 35.3224 27.0653 35.3224 29.9999C35.3224 32.9346 32.9345 35.3225 29.9998 35.3225C27.0651 35.3225 24.6772 32.9346 24.6772 29.9999C24.6772 27.0653 27.0651 24.6774 29.9998 24.6774Z" fill="black"/>
<path d="M29.9998 15C27.4672 15 25.0474 15.6242 22.9034 16.7768L20.4782 15.6968L20.0849 16.5808L21.8766 17.3787C21.3328 17.7299 20.8116 18.119 20.3142 18.5419L17.7124 17.9894L17.5111 18.9358L19.4447 19.3466C18.9879 19.8014 18.5568 20.2877 18.1537 20.8065H15.4837V21.7742H17.9902L18.3962 23.8046L19.345 23.6144L18.9051 21.4152C19.286 20.9231 19.6948 20.4625 20.1274 20.0319L20.4182 21.7162L21.372 21.5512L20.9743 19.2495C21.4702 18.8304 21.9934 18.4516 22.5377 18.1084L22.7448 19.8939L23.7057 19.7826L23.4503 17.5815C25.4345 16.5344 27.6661 15.9678 29.9998 15.9678C37.7375 15.9678 44.0321 22.2625 44.0321 30C44.0321 37.7375 37.7374 44.0322 29.9998 44.0322C25.0595 44.0322 20.5348 41.4551 17.996 37.258H20.8063V36.2902H16.6165L15.0391 39.9707L15.9284 40.3519L17.095 37.6301C19.793 42.1911 24.669 45 29.9998 45C38.2706 45 44.9999 38.2708 44.9999 30C44.9999 21.7292 38.2706 15 29.9998 15Z" fill="black"/>
<path d="M30.9677 32.4193H29.0322C28.4985 32.4193 28.0644 31.9854 28.0644 31.4516H27.0967C27.0967 32.519 27.9648 33.3871 29.0322 33.3871H29.5161V34.3549H30.4838V33.3871H30.9677C32.0352 33.3871 32.9032 32.519 32.9032 31.4516C32.9032 30.3841 32.0352 29.5161 30.9677 29.5161H29.0322C28.4985 29.5161 28.0644 29.0821 28.0644 28.5483C28.0644 28.0146 28.4984 27.5805 29.0322 27.5805H30.9677C31.5014 27.5805 31.9355 28.0145 31.9355 28.5483H32.9032C32.9032 27.4809 32.0352 26.6128 30.9677 26.6128H30.4838V25.645H29.5161V26.6128H29.0322C27.9648 26.6128 27.0967 27.4809 27.0967 28.5483C27.0967 29.6157 27.9648 30.4838 29.0322 30.4838H30.9677C31.5014 30.4838 31.9355 30.9178 31.9355 31.4516C31.9355 31.9853 31.5014 32.4193 30.9677 32.4193Z" fill="black"/>
<path d="M16.9355 30.4839V31.4517H20.6512L19.9738 32.4194H15.9678V33.3872H19.2963L18.4743 34.5615L19.2673 35.116L20.4485 33.4288C21.8802 37.4376 25.6714 40.1613 30.0001 40.1613C35.6034 40.1613 40.1614 35.6033 40.1614 30C40.1614 24.3968 35.6034 19.8387 30.0001 19.8387C25.6714 19.8387 21.8802 22.5625 20.449 26.5713L19.2678 24.884L18.4747 25.4385L19.2963 26.6129H16.9355V27.5806H19.9738L20.6512 28.5484H17.9032V29.5162H21.3286L21.6672 30L21.3286 30.4839H16.9355ZM21.149 27.572C22.2406 23.5795 25.8465 20.8065 30 20.8065C35.0695 20.8065 39.1935 24.9306 39.1935 30C39.1935 35.0695 35.0695 39.1936 30 39.1936C25.8465 39.1936 22.2406 36.4206 21.149 32.4281L22.8489 30L21.149 27.572Z" fill="black"/>
<path d="M15.9678 26.6129H15V27.5807H15.9678V26.6129Z" fill="black"/>
<path d="M16.9355 28.5483H15.9678V29.5161H16.9355V28.5483Z" fill="black"/>
<path d="M15.9678 30.4839H15V31.4516H15.9678V30.4839Z" fill="black"/>
</svg>
