<svg width="60" height="60" viewBox="0 0 60 60" fill="none" xmlns="http://www.w3.org/2000/svg">
<rect width="60" height="60" rx="30" fill="#FFD66B" fill-opacity="0.2"/>
<g clip-path="url(#clip0_547_2291)">
<path d="M24.6207 23.1537C24.5823 22.8121 24.2743 22.5663 23.9326 22.6043L23.8569 22.6131C23.5154 22.6533 23.2713 22.9628 23.3115 23.3042C23.3488 23.6209 23.6177 23.854 23.929 23.854C23.9533 23.854 23.9779 23.8526 24.0026 23.8496L24.0713 23.8418C24.4131 23.8035 24.659 23.4955 24.6207 23.1537Z" fill="black"/>
<path d="M20.6317 28.0941L20.6105 27.9696C20.5529 27.6307 20.2316 27.4024 19.8924 27.4601C19.5534 27.5177 19.3254 27.8392 19.3829 28.1781L19.4041 28.3027C19.4557 28.6064 19.7191 28.821 20.0171 28.821C20.0518 28.821 20.0869 28.8182 20.1222 28.8121C20.4611 28.7546 20.6892 28.4331 20.6317 28.0941Z" fill="black"/>
<path d="M44.9907 38.9762C44.4713 35.9583 42.5965 35.3316 41.0902 34.828C41.0658 34.8199 41.0418 34.8118 41.0174 34.8036C40.4272 32.003 38.0205 26.6774 32.4968 24.0316C32.4084 22.2536 34.3558 21.3519 34.4413 21.3132C34.6774 21.2084 34.8243 20.9685 34.8103 20.7105C34.7963 20.4525 34.6244 20.23 34.3783 20.1512C32.5144 19.5551 28.5402 19.8947 26.8548 22.5653C26.4475 22.5357 26.0326 22.5201 25.6167 22.5186C25.616 22.5186 25.6153 22.5186 25.6146 22.5186C25.2718 22.5186 24.9932 22.796 24.9921 23.1391C24.9909 23.4829 25.2687 23.7626 25.6125 23.7637C26.1019 23.7654 26.5887 23.7889 27.0622 23.8322C27.1119 23.8431 27.1622 23.8479 27.2123 23.8464C28.7865 24.0047 30.2777 24.3952 31.6453 25.0085C37.1869 27.4932 39.4401 32.8717 39.8586 35.3732C39.8587 35.3741 39.8589 35.375 39.8591 35.376C39.8592 35.3767 39.8593 35.3774 39.8595 35.3781C39.8611 35.3879 39.8635 35.3972 39.8656 35.4069C39.8675 35.4158 39.869 35.4248 39.8713 35.4337C39.8814 35.4724 39.8952 35.5092 39.9119 35.5442C39.9129 35.5462 39.9141 35.5482 39.9151 35.5503C39.9226 35.5655 39.9305 35.5804 39.9391 35.5949C39.9415 35.599 39.9442 35.6028 39.9468 35.6068C39.9543 35.6188 39.962 35.6306 39.9704 35.642C39.9744 35.6476 39.9787 35.6529 39.983 35.6582C39.9902 35.6675 39.9977 35.6767 40.0054 35.6856C40.011 35.692 40.0168 35.6982 40.0226 35.7044C40.0296 35.7117 40.0367 35.7188 40.044 35.7258C40.0509 35.7324 40.0579 35.7388 40.0651 35.7451C40.0721 35.7512 40.0793 35.757 40.0866 35.7628C40.0944 35.7689 40.102 35.7751 40.1101 35.7809C40.1182 35.7867 40.1266 35.792 40.135 35.7976C40.1426 35.8025 40.15 35.8075 40.1578 35.8121C40.1737 35.8215 40.19 35.8304 40.207 35.8384C40.2074 35.8386 40.2078 35.8388 40.2082 35.839C40.2263 35.8476 40.2451 35.8552 40.2643 35.862C40.2653 35.8623 40.2662 35.8628 40.2671 35.8632C40.4076 35.9126 40.5508 35.9605 40.6955 36.0088C41.7289 36.3543 42.6609 36.6659 43.2486 37.6658C42.8606 37.5428 42.4028 37.465 41.8758 37.4807C41.1727 37.5017 40.8656 37.3457 40.7931 37.2728C40.6806 37.0382 40.4355 36.8837 40.1733 36.9103C39.8877 36.9391 39.6616 37.1435 39.6218 37.4269C39.6057 37.4855 39.5124 37.7616 39.1482 37.9172C38.7746 38.0768 38.4726 38.2477 38.2331 38.4087C38.2149 38.3202 38.2003 38.2265 38.1914 38.1291C38.1265 37.417 38.3837 36.839 38.9776 36.3622C38.98 36.3602 38.9822 36.3579 38.9847 36.3559C38.9877 36.3534 38.9909 36.3513 38.9938 36.3487C38.9992 36.3441 39.0039 36.339 39.0091 36.3342C39.0171 36.3268 39.025 36.3195 39.0326 36.3119C39.0397 36.3046 39.0465 36.297 39.0533 36.2894C39.0604 36.2814 39.0674 36.2735 39.0741 36.2652C39.0804 36.2573 39.0863 36.2491 39.0922 36.2409C39.0983 36.2326 39.1044 36.2241 39.11 36.2154C39.1156 36.2068 39.1207 36.1981 39.1258 36.1893C39.1308 36.1806 39.1359 36.1719 39.1405 36.163C39.1453 36.1539 39.1495 36.1446 39.1537 36.1352C39.1579 36.1263 39.1619 36.1174 39.1655 36.1082C39.1693 36.0986 39.1727 36.0889 39.1761 36.0792C39.1792 36.07 39.1823 36.0609 39.1851 36.0515C39.188 36.0417 39.1904 36.0317 39.1928 36.0217C39.195 36.0123 39.1972 36.0028 39.1991 35.9932C39.201 35.9833 39.2024 35.9733 39.2038 35.9634C39.2052 35.9535 39.2066 35.9437 39.2075 35.9339C39.2084 35.9241 39.2088 35.9142 39.2093 35.9044C39.2097 35.8943 39.2102 35.8842 39.2101 35.8741C39.2101 35.8644 39.2096 35.8546 39.2091 35.8449C39.2087 35.8347 39.2081 35.8245 39.207 35.8143C39.206 35.8046 39.2047 35.795 39.2032 35.7854C39.2017 35.7752 39.2002 35.7651 39.1982 35.755C39.1962 35.7453 39.1939 35.7358 39.1915 35.7262C39.189 35.7163 39.1865 35.7064 39.1836 35.6965C39.1806 35.6868 39.1772 35.6773 39.1738 35.6677C39.1705 35.6583 39.167 35.6488 39.1632 35.6395C39.1593 35.6298 39.1547 35.6203 39.1502 35.6107C39.146 35.6017 39.1418 35.5928 39.1371 35.584C39.132 35.5745 39.1264 35.5651 39.1208 35.5558C39.1157 35.5473 39.1106 35.5389 39.1049 35.5305C39.0988 35.5215 39.0922 35.5126 39.0855 35.5037C39.0814 35.4982 39.0778 35.4925 39.0735 35.487C39.0713 35.4843 39.0687 35.4819 39.0665 35.4792C39.0642 35.4765 39.0623 35.4735 39.0599 35.4707C35.8668 31.7588 31.5367 30.5549 28.2813 30.2244C28.2836 29.9225 28.316 29.6211 28.379 29.3236C28.4503 28.9872 28.2353 28.6567 27.8989 28.5855C27.5624 28.5143 27.2321 28.7292 27.1609 29.0656C27.0356 29.6575 27.004 30.2619 27.0674 30.8617C27.0677 30.8645 27.0681 30.8673 27.0684 30.8701C27.0688 30.8738 27.0694 30.8773 27.0698 30.881C27.1403 31.5293 27.3122 32.1004 27.5064 32.5686C26.5553 32.2255 25.3674 31.6016 24.8447 30.5319C24.6645 30.1626 24.573 29.7541 24.573 29.3177C24.573 28.9739 24.2943 28.6952 23.9504 28.6952C23.6066 28.6952 23.3279 28.9739 23.3279 29.3177C23.3279 29.6425 23.3646 29.9576 23.4357 30.2614C21.5123 30.4795 19.6435 30.9337 18.1011 31.5635L17.1079 31.957C17.0987 31.9607 17.0896 31.9646 17.0806 31.9687C16.8091 32.0917 16.4871 31.9921 16.332 31.7378C16.2753 31.6446 16.2454 31.5387 16.2454 31.4314C16.2454 31.2168 16.3611 31.0188 16.5474 30.9145C16.5576 30.9088 16.5676 30.9028 16.5775 30.8965L17.5469 30.2802C17.7273 30.1655 17.8363 29.9662 17.8354 29.7524C17.8352 29.7089 17.8724 25.3905 22.559 24.1229C22.8909 24.0332 23.0872 23.6913 22.9974 23.3594C22.9076 23.0275 22.5657 22.8312 22.2339 22.921C19.3155 23.7104 17.9343 25.522 17.2895 26.9027C16.8011 27.9485 16.6537 28.9041 16.6093 29.4008L15.9227 29.8374C15.353 30.164 15 30.773 15 31.4316C15 31.7673 15.0928 32.0971 15.2685 32.3859C15.6114 32.948 16.2156 33.2663 16.8394 33.2663C17.0879 33.2663 17.3395 33.2157 17.5789 33.1099L18.5626 32.7201C18.5647 32.7193 18.5667 32.7185 18.5687 32.7176C20.1053 32.0898 21.999 31.6476 23.9398 31.4604C25.3202 33.6404 28.5435 34.1469 28.6874 34.1684C28.7181 34.173 28.7487 34.1753 28.7791 34.1752C29.0009 34.1752 29.2086 34.0558 29.3203 33.8587C29.4474 33.6346 29.4225 33.3544 29.2588 33.1554C29.2524 33.1475 28.7299 32.5021 28.4514 31.4955C31.2998 31.8285 34.9331 32.8866 37.7217 35.8459C36.4963 37.2432 36.955 38.9875 37.4243 39.7839C37.5332 39.9688 37.7234 40.0938 37.9379 40.0994C37.9439 40.0995 37.9499 40.0996 37.9559 40.0996C38.1615 40.0996 38.3483 40.0058 38.4638 39.8348C38.5 39.7908 38.8318 39.4065 39.6371 39.0623C39.9927 38.9105 40.2457 38.7023 40.4251 38.4924C40.7624 38.641 41.2394 38.7453 41.9126 38.7254C43.1922 38.6873 43.8418 39.4137 43.893 39.4734C44.0675 39.699 44.369 39.772 44.6306 39.6576C44.8932 39.5429 45.0394 39.2585 44.9907 38.9762ZM31.2727 23.5111C30.3206 23.1562 29.3215 22.8954 28.2863 22.7306C29.0083 21.9357 30.0019 21.5461 30.7904 21.3555C31.3864 21.2113 31.983 21.1525 32.5163 21.1518C31.9145 21.7338 31.3889 22.5285 31.2727 23.5111Z" fill="black"/>
</g>
<defs>
<clipPath id="clip0_547_2291">
<rect width="30" height="30" fill="white" transform="translate(15 15)"/>
</clipPath>
</defs>
</svg>
